<svg width="40" height="41" viewBox="0 0 40 41" fill="none" xmlns="http://www.w3.org/2000/svg">
<path d="M24.002 3.5288C23.6502 2.81687 23.1973 2.37347 22.4702 2.02901L21.9477 1.78145L13.8523 1.76886C9.12959 1.76151 5.63052 1.78638 5.45336 1.82846C4.96655 1.94414 4.25729 2.36205 3.91204 2.73655C3.73645 2.92708 3.48131 3.31816 3.34521 3.60545L3.09766 4.12793V14.8867V25.6454L3.39269 26.2425C3.74114 26.9475 4.19088 27.3841 4.93573 27.7405L5.44413 27.9838H13.6959H21.9477L22.4702 27.7362C23.1973 27.3918 23.6502 26.9484 24.002 26.2364L24.2942 25.6454V14.8826V4.11979L24.002 3.5288Z" fill="#F4F4F3"/>
<path fill-rule="evenodd" clip-rule="evenodd" d="M5.2879 0.581966C5.07281 0.622404 4.61337 0.792133 4.26687 0.959123C3.05679 1.54238 2.10498 2.79399 1.88676 4.08893C1.82677 4.44482 1.80784 7.77634 1.82372 15.1956L1.8464 25.7938L2.04812 26.3116C2.33643 27.0517 2.5997 27.4689 3.08354 27.9517C3.62722 28.4945 4.34923 28.9186 5.0265 29.093L5.56166 29.2309V30.0062C5.56166 30.4326 5.60444 30.9264 5.65677 31.1035C5.78371 31.5331 6.43165 32.181 6.86129 32.308C7.31307 32.4414 12.5704 32.4414 13.0222 32.308C13.4518 32.181 14.0998 31.5331 14.2267 31.1035C14.2791 30.9264 14.3218 30.4425 14.3218 30.028V29.2745H15.8748H17.4278L17.4749 30.6237C17.5252 32.0665 17.657 32.8282 18.0403 33.8892C18.5512 35.3036 19.2921 36.4548 20.4126 37.5754C21.8645 39.0274 23.4973 39.9166 25.5067 40.3497C26.4347 40.5498 28.488 40.5501 29.4144 40.3504C31.4652 39.9081 33.0229 39.0589 34.509 37.5728C35.9791 36.1026 36.8394 34.5268 37.2886 32.4813C37.4271 31.851 37.4346 31.2819 37.4346 21.5311V11.2457L37.2569 10.5417C36.9429 9.29835 36.3869 8.30696 35.0857 6.67006C34.453 5.87421 33.7195 5.00171 33.4559 4.73116C32.6212 3.87509 31.6822 3.3634 30.4957 3.11835C29.6698 2.94776 26.094 2.94416 25.624 3.1135C25.452 3.17545 25.307 3.22676 25.3019 3.22738C25.2969 3.22801 25.1561 2.99414 24.9891 2.70772C24.3698 1.64547 23.2943 0.845319 22.1635 0.605744C21.7233 0.512432 20.3027 0.49499 13.657 0.501091C9.04399 0.505393 5.51402 0.539495 5.2879 0.581966ZM22.4704 2.02912C23.1975 2.37358 23.6504 2.81699 24.0022 3.52891L24.2944 4.11991V14.8827V25.6455L24.0022 26.2365C23.6504 26.9485 23.1975 27.3919 22.4704 27.7363L21.9479 27.9839H13.6961H5.44433L4.93593 27.7406C4.19108 27.3842 3.74134 26.9476 3.39289 26.2426L3.09786 25.6455V14.8868V4.12804L3.34541 3.60556C3.48151 3.31827 3.73665 2.92719 3.91224 2.73666C4.25749 2.36216 4.96675 1.94425 5.45356 1.82857C5.63072 1.78649 9.12979 1.76162 13.8525 1.76897L21.9479 1.78156L22.4704 2.02912ZM5.75368 3.81166L5.56166 4.0036V6.43541V8.86722L5.75368 9.05916C6.00765 9.31321 6.36713 9.31321 6.62109 9.05916L6.81311 8.86722V6.43541V4.0036L6.62109 3.81166C6.50009 3.69058 6.33975 3.61964 6.18739 3.61964C6.03502 3.61964 5.87468 3.69058 5.75368 3.81166ZM20.7711 3.81166L20.5791 4.0036V6.43541V8.86722L20.7711 9.05916C21.0251 9.31321 21.3846 9.31321 21.6385 9.05916L21.8306 8.86722V6.43541V4.0036L21.6385 3.81166C21.5175 3.69058 21.3572 3.61964 21.2048 3.61964C21.0525 3.61964 20.8921 3.69058 20.7711 3.81166ZM8.69029 6.43541V8.62545H13.6961H18.7019V6.43541V4.24536H13.6961H8.69029V6.43541ZM27.8958 6.94029C28.2838 7.32824 28.0089 7.99973 27.4621 7.99973C27.1406 7.99973 26.8364 7.69555 26.8364 7.374C26.8364 7.05245 27.1406 6.74827 27.4621 6.74827C27.6145 6.74827 27.7748 6.81922 27.8958 6.94029ZM30.3987 6.94029C30.7868 7.32824 30.5118 7.99973 29.965 7.99973C29.6435 7.99973 29.3393 7.69555 29.3393 7.374C29.3393 7.05245 29.6435 6.74827 29.965 6.74827C30.1174 6.74827 30.2777 6.81922 30.3987 6.94029ZM12.3932 11.244C10.8153 11.5304 9.39791 12.2939 8.28834 13.4553C5.48024 16.3945 5.49838 20.9402 8.3298 23.8654C9.65618 25.2358 11.4052 26.0224 13.3441 26.1205C16.8996 26.3004 20.0171 23.987 20.9884 20.4475C21.2247 19.5866 21.2247 17.6875 20.9884 16.8267C20.1809 13.8843 17.883 11.7529 14.9706 11.2451C14.1697 11.1054 13.1596 11.105 12.3932 11.244ZM29.5121 14.0827L31.2102 15.7746L31.2329 19.1026L31.2556 22.4306L31.4707 22.8386C31.7558 23.3796 32.1653 23.7769 32.6811 24.013L33.1033 24.2063L33.077 27.894L33.0506 31.5818L32.8479 32.1815C32.5299 33.1219 32.1207 33.7809 31.4189 34.4827C30.7141 35.1875 30.0507 35.5984 29.1177 35.9078C28.594 36.0815 28.3841 36.1067 27.4621 36.1065C26.53 36.1064 26.3328 36.0821 25.7805 35.8993C24.8864 35.6034 24.2322 35.1927 23.5125 34.4758C22.7943 33.7602 22.3836 33.1041 22.093 32.2076C21.9236 31.6851 21.8836 31.3872 21.8504 30.4037L21.8105 29.2256L22.252 29.1268C22.9493 28.9707 23.7061 28.5484 24.2449 28.0145C24.7859 27.4786 25.0473 27.0735 25.3441 26.3116L25.5458 25.7938L25.5678 19.0673L25.5898 12.3407L26.7019 12.3657L27.8141 12.3908L29.5121 14.0827ZM14.9087 13.8855C14.7406 14.5918 14.3376 17.0403 14.3829 17.08C14.4138 17.1071 15.2395 17.4598 16.2177 17.8637C17.196 18.2675 17.9967 18.6221 17.9971 18.6515C17.998 18.7044 12.5634 23.5647 12.5035 23.5647C12.4865 23.5647 12.6055 22.817 12.7682 21.9032C12.9307 20.9894 13.0388 20.2199 13.0084 20.1933C12.9779 20.1666 12.1528 19.8144 11.1746 19.4105C10.1964 19.0067 9.40706 18.6421 9.42044 18.6005C9.45087 18.5057 14.8081 13.7197 14.8904 13.7138C14.9235 13.7114 14.9317 13.7886 14.9087 13.8855ZM36.2218 27.6906C36.2215 30.2744 36.1937 31.2945 36.1085 31.8556C35.694 34.5849 33.989 36.9759 31.5472 38.2519C29.0106 39.5776 26.2026 39.6271 23.6686 38.3909C21.8553 37.5062 20.5133 36.1796 19.6106 34.3791C18.9934 33.1483 18.7032 31.8108 18.7024 30.1935L18.7019 29.2745H19.6405H20.5791V30.1637C20.5791 32.3278 21.2295 33.9981 22.6098 35.3783C25.3062 38.0748 29.6181 38.0748 32.3145 35.3783C32.9836 34.7092 33.5547 33.8423 33.8827 32.9975C34.299 31.9253 34.3451 31.3932 34.3451 27.6608V24.2686H35.2837H36.2223L36.2218 27.6906Z" fill="#525257"/>
</svg>
