<svg width="58" height="24" viewBox="0 0 58 24" fill="none" xmlns="http://www.w3.org/2000/svg">
<path fill-rule="evenodd" clip-rule="evenodd" d="M7.83502 4.45292C8.91784 4.54426 10.0007 3.90487 10.6774 3.09421C11.3429 2.26071 11.7828 1.14177 11.67 0C10.7113 0.045671 9.52693 0.639394 8.85017 1.47289C8.2298 2.19221 7.69966 3.35682 7.83502 4.45292ZM20.7166 19.1595V1.35925H27.3151C30.7215 1.35925 33.1015 3.73414 33.1015 7.20513C33.1015 10.6761 30.6764 13.0739 27.2249 13.0739H23.4463V19.1595H20.7166ZM11.6592 4.66992C10.7052 4.61435 9.83481 4.96033 9.13173 5.23979C8.67928 5.41963 8.29614 5.57192 8.00466 5.57192C7.67755 5.57192 7.27859 5.41149 6.83065 5.23136C6.24371 4.99533 5.57267 4.72548 4.86898 4.73843C3.25602 4.76126 1.75585 5.6861 0.932456 7.15899C-0.759458 10.1048 0.492558 14.4663 2.12808 16.8641C2.92891 18.0515 3.88767 19.3531 5.15096 19.3075C5.70674 19.2862 6.10653 19.1145 6.52027 18.9368C6.99661 18.7322 7.49144 18.5196 8.26408 18.5196C9.00994 18.5196 9.48313 18.7266 9.93737 18.9254C10.3693 19.1143 10.784 19.2958 11.3998 19.2846C12.7082 19.2618 13.5316 18.0972 14.3324 16.9097C15.1966 15.6353 15.5764 14.3915 15.6341 14.2027L15.6408 14.1809C15.6394 14.1795 15.6288 14.1746 15.6099 14.1658C15.321 14.0319 13.1129 13.0086 13.0917 10.2646C13.0704 7.9614 14.8431 6.79445 15.1222 6.61075C15.1392 6.59957 15.1506 6.59203 15.1558 6.5881C14.0279 4.89828 12.2683 4.71559 11.6592 4.66992ZM38.0869 19.2955C39.8014 19.2955 41.3918 18.4163 42.1137 17.0234H42.1701V19.1585H44.6966V10.2983C44.6966 7.72933 42.6663 6.07376 39.5419 6.07376C36.6431 6.07376 34.5 7.75216 34.4211 10.0585H36.88C37.083 8.96244 38.0869 8.24313 39.463 8.24313C41.1323 8.24313 42.0685 9.03095 42.0685 10.481V11.4629L38.6621 11.6684C35.4926 11.8625 33.7782 13.1756 33.7782 15.4591C33.7782 17.7655 35.549 19.2955 38.0869 19.2955ZM38.8202 17.1839C37.3652 17.1839 36.4403 16.476 36.4403 15.3913C36.4403 14.2723 37.3313 13.6215 39.0345 13.5188L42.0687 13.3247V14.3294C42.0687 15.9964 40.67 17.1839 38.8202 17.1839ZM53.078 19.8552C51.9839 22.9723 50.7319 23.9999 48.07 23.9999C47.8669 23.9999 47.1902 23.977 47.0322 23.9314V21.7962C47.2014 21.8191 47.6188 21.8419 47.8331 21.8419C49.04 21.8419 49.7167 21.3281 50.1341 19.9922L50.3822 19.2044L45.7577 6.24528H48.6114L51.826 16.761H51.8824L55.097 6.24528H57.8718L53.078 19.8552ZM23.4457 3.68772H26.5927C28.9614 3.68772 30.3149 4.96651 30.3149 7.2158C30.3149 9.4651 28.9614 10.7553 26.5814 10.7553H23.4457V3.68772Z" fill="#525257"/>
</svg>
