<svg width="666" height="483" viewBox="0 0 666 483" fill="none" xmlns="http://www.w3.org/2000/svg">
<g opacity="0.8" clip-path="url(#clip0_1_7471)">
<path d="M641.681 276.159C639.418 275.934 637.148 275.815 634.893 275.461C633.123 275.181 632.804 276.696 632.885 278.931C631.245 280.57 631.495 283.191 631.704 285.536C632.09 289.956 631.971 294.376 632.087 298.801C632.415 311.194 631.745 375.246 630.975 394.946C630.183 415.316 624.951 439.432 618.479 457.828C618.421 451.953 615.403 331.775 614.338 321.819C613.177 316.454 610.304 316.977 607.613 317.106C603.931 317.28 602.929 318.942 602.715 324.863C603.295 337.04 606.296 409.96 606.487 424.005C606.702 439.422 607.378 454.794 608.211 470.134C608.792 480.869 607.631 489.944 602.21 497.292C598.771 501.946 595.636 507.202 592.157 511.805C588.32 516.882 584.927 521.187 580.647 524.07C575.191 527.742 576.154 528.279 576.369 520.196C576.41 518.667 576.282 517.134 576.352 515.606C577.028 500.849 576.894 427.553 577.115 405.907C577.495 368.802 578.749 332.087 578.795 294.968C578.795 289.46 578.215 283.53 578.166 278.032C578.164 276.796 578.205 275.561 578.287 274.332C575.403 273.873 572.518 272.882 569.633 274.332C568.295 275.498 568.4 277.591 568.284 279.555C568.043 283.709 568.812 287.762 568.789 291.884C568.667 314.65 569.001 337.411 568.557 360.182C567.77 400.482 568.647 440.822 567.167 481.117C566.714 493.441 566.502 523.803 566.276 525.442C565.614 530.239 566.566 529.573 560.883 527.847C553.741 525.658 537.054 516.441 534.474 464.047C532.579 425.4 528.316 177.283 540.47 145.966C543.157 139.04 544.681 131.127 547.841 124.623C548.959 117.774 548.445 110.853 548.236 103.931C548.187 102.384 547.754 100.948 546.477 101.044C545.766 102.485 545.003 103.867 544.35 105.372C538.709 118.38 534.515 132.817 531.949 148.059C528.467 168.525 527.216 189.506 526.27 210.537C525.344 231.127 525.399 251.759 525.524 272.391C525.721 301.885 526.026 331.38 525.887 360.87C525.782 383.031 525.73 405.191 525.655 427.351C525.614 439.578 525.823 451.797 526.74 463.946C527.88 479.02 529.837 493.781 533.978 507.624C540.139 528.228 549.96 540.938 564.621 543.329C566.92 543.701 566.943 543.816 566.865 547.556C566.441 565.879 565.832 584.198 564.833 602.461C563.463 627.247 558.068 732.599 560.344 760.487C561.174 770.654 562.282 780.756 564.441 790.437C566.923 801.567 570.759 813.689 578.476 814.621C587.734 815.736 597.389 795.587 600.671 709.769C601.342 692.208 606.386 628.137 607.346 613.38C608.397 597.398 619.405 507.766 619.17 490.173C619.053 485.61 619.9 481.114 621.575 477.395C628.97 460.412 634.635 442.089 637.877 422.013C638.402 418.763 640.198 391.155 640.378 380.616C640.875 353.274 641.142 325.923 641.69 298.581C641.867 291.09 641.597 283.631 641.681 276.159ZM606.566 535.434C603.272 565.833 599.749 596.177 597.169 626.774C594.789 654.942 593.509 683.271 592.192 711.609C591.321 730.621 590.111 749.641 587.879 768.432C587.596 770.679 587.402 772.951 587.299 775.235C587.058 781.468 584.922 786.462 583.059 791.602C582.141 794.131 580.589 801.241 578.891 798.841C576.526 795.495 573.653 786.494 572.477 780.398C571.421 774.891 570.173 769.745 569.619 764.146C568.528 753.093 568.397 741.93 568.191 730.791C567.901 714.616 567.416 698.445 567.785 682.238C568.2 663.732 569.857 645.436 571.087 627.068C572.858 600.643 574.764 574.228 574.811 547.602C574.811 546.684 574.889 545.766 574.84 544.848C574.741 543.049 575.208 542.094 576.32 541.566C588.869 535.485 599.226 524.207 607.663 508.395C607.856 508.061 608.066 507.754 608.292 507.477C608.515 507.321 608.746 507.199 608.983 507.115C608.522 516.799 607.599 526.126 606.589 535.434H606.566Z" fill="#1B1B1B"/>
<path d="M502.777 191.19C504.701 195.959 505.447 201.573 505.871 207.443C506.741 219.556 506.797 231.77 507.032 243.961C507.737 279.441 507.055 314.907 506.741 350.373C506.509 375.264 505.691 400.114 504.977 424.969C504.074 456.488 503.122 488.016 503.59 519.604C504.063 551.499 503.999 583.404 503.822 615.294C503.761 626.021 503.677 636.78 502.397 647.323C499.942 667.555 491.122 682.298 480.535 683.432C470.027 684.552 460.824 677.644 452.518 665.393C443.017 651.376 439.061 631.736 437.529 609.543C437.069 602.589 436.851 595.6 436.876 588.609C436.893 564.03 436.557 539.464 436.333 514.894C436.179 497.811 435.834 480.732 435.753 463.648C435.689 449.984 435.848 436.31 435.997 422.642C436.422 383.269 436.795 343.895 437.114 304.52C437.337 279.624 437.352 254.724 437.642 229.833C437.738 221.571 437.793 213.236 438.475 205.011C438.659 202.289 438.99 199.597 439.465 196.964C440.21 193.15 441.394 190.153 443.49 188.909C445.295 192.815 444.717 197.791 445.06 202.358C444.357 225.436 445.106 248.551 444.68 271.619C444.218 296.497 444.61 321.393 444.099 346.238C443.765 362.509 444.163 378.78 443.664 394.997C443.083 413.696 443.615 432.414 443.118 451.072C442.828 462.459 442.474 473.861 442.811 485.189C443.496 508.138 442.811 531.088 443.319 553.959C443.789 574.71 443.118 595.76 445.724 616.098C448.789 640.002 455.615 657.93 468.143 665.976C474.966 670.355 481.493 669.579 488.069 664.14C491.674 661.157 494.164 656.668 495.307 649.163C496.236 643.036 497.025 636.771 497.022 630.487C497.022 612.16 498.38 593.951 498.131 575.619C497.765 570.423 497.086 565.296 497.17 560.013C497.365 554.226 496.479 548.539 496.677 542.774C496.726 539.561 496.805 536.348 496.88 533.162C497.544 527.566 497.795 521.867 497.629 516.18C497.672 505.283 497.249 494.405 497.228 483.527C497.193 463.368 497.635 443.227 498.407 423.11C498.871 410.951 499.393 398.783 499.64 386.611C499.93 372.152 500.379 357.713 500.986 343.291C501.103 340.537 501.137 337.783 501.137 335.002C501.137 306.842 501.341 278.679 501.056 250.547C500.905 235.336 501.375 219.964 499.521 204.946C499.283 198.92 500.688 193.003 502.777 191.19Z" fill="#404040"/>
<path d="M487.799 578.896C490.574 581.65 491.537 581.191 492.971 576.266C493.891 573.118 494.233 569.744 494.381 566.32C494.773 557.607 494.72 548.857 494.222 540.157C492.405 509.142 491.305 478.062 490.922 446.918C490.728 430.729 490.052 414.563 489.761 398.37C489.372 377.816 489.445 357.258 489.28 336.7C489.039 306.953 488.853 277.201 488.119 247.472C487.933 239.857 487.469 232.261 487.695 224.623C488.072 224.596 488.452 224.531 488.827 224.554C491.357 224.692 491.532 225.059 491.729 229.071C492.721 250.538 492.228 272.033 492.118 293.513C492.08 300.811 491.639 308.123 491.81 315.439C492.1 328.19 492.504 340.932 492.832 353.678C493.247 369.844 493.551 386.023 494.059 402.184C494.5 416.321 495.104 430.445 495.731 444.559C496.021 451.384 496.561 458.181 496.979 464.997C497.269 469.638 497.684 474.274 497.777 478.928C497.91 485.776 498.389 492.578 498.584 499.422C498.941 512.007 499.501 524.579 499.954 537.151C500.438 550.65 500.85 564.232 498.987 577.63C498.632 580.524 498.059 583.341 497.281 586.02C496.869 587.346 496.189 588.696 496.869 590.348C493.615 596.389 489.213 596.962 485.344 591.799C483.246 588.994 481.839 585.286 480.625 581.389C476.795 569.284 474.402 556.171 473.565 542.7C472.235 520.669 471.611 498.573 471.333 476.454C470.686 425.662 471.194 374.865 471.498 324.068C471.617 304.442 471.858 284.815 471.826 265.18C471.797 249.115 473.498 212.588 473.567 210.298C473.71 205.249 473.907 204.96 477.102 205.098C477.288 205.098 477.474 205.153 477.659 205.18C479.006 208.361 478.478 212.097 478.359 215.398C477.067 251.024 478.17 286.679 477.799 322.315C477.648 336.939 476.812 351.498 476.278 366.089C475.866 377.261 475.254 388.456 475.236 399.623C475.204 417.501 473.591 435.337 474.833 453.243C475.19 458.347 474.923 463.51 474.966 468.646C475.185 492.677 476.712 516.633 479.531 540.249C480.594 549.236 481.455 558.288 483.255 566.963C484.169 571.465 485.022 576.234 487.799 578.896Z" fill="#404040"/>
<path d="M487.8 578.896C486.206 579.309 485.681 577.148 485.063 575.546C483.796 572.241 482.802 568.693 482.106 564.989C479.291 549.931 477.199 534.558 475.848 519.002C474.043 498.958 473.44 478.767 473.443 458.507C473.443 451.2 472.819 443.907 473.048 436.586C473.419 424.611 473.358 412.617 473.646 400.647C474.032 384.646 474.441 368.618 475.346 352.677C476.829 326.561 476.217 300.412 476.316 274.272C476.351 266.011 476.382 257.749 476.342 249.51C476.272 234.707 477.363 220.001 477.642 205.231C478.666 205.111 479.192 205.823 479.171 207.585C479.191 208.338 479.243 209.088 479.325 209.83C478.62 229.149 479.186 248.454 479.526 267.764C479.778 282.094 479.787 296.433 479.473 310.767C479.14 325.872 478.936 340.982 478.545 356.083C477.729 387.552 478.063 419.034 478.185 450.507C478.263 470.45 478.109 490.412 478.864 510.332C479.523 527.774 480.721 545.082 483.049 562.152C483.89 568.312 485.356 573.971 487.8 578.896Z" fill="black"/>
<path d="M143.86 146.214C146.835 147.453 149.929 148.155 152.593 150.845C153.632 151.896 154.833 152.64 155.721 154.834C151.809 158.648 149.868 164.624 148.872 171.454C147.488 180.932 147.836 190.222 150.323 199.2C150.556 200.035 150.77 200.976 151.165 201.586C154.433 206.635 154.827 213.52 155.762 219.974C156.664 226.211 157.268 232.555 158.113 238.792C158.403 241.032 157.947 242.115 156.702 243.052C151.973 246.576 147.801 251.728 144.493 258.13C142.917 241.555 140.558 225.22 138.338 208.848C134.455 179.968 142.557 169.085 142.888 160.81C143.048 156.761 142.534 152.672 143.21 148.655C143.367 147.793 143.367 146.856 143.86 146.214Z" fill="#4D5B77"/>
<path d="M266.231 257.896C265.477 257.01 265.195 255.775 265.123 254.343C264.736 246.326 264.331 238.31 263.91 230.296C263.512 222.723 262.813 215.209 262.015 207.723C261.753 205.176 261.597 202.605 261.547 200.026C261.034 198.842 261.034 197.4 260.758 196.101C260.468 194.068 260.616 191.883 259.974 189.956C259.867 188.009 259.867 186.036 259.318 184.214C257.757 171.013 256.007 157.89 253.157 145.199C252.533 142.413 251.996 139.577 251.256 136.855C249.428 128.827 247.211 121.061 244.872 113.368C244.503 112.147 244.001 110.968 244.14 109.49C243.493 104.826 243.052 100.172 244.239 95.5409C246.207 99.2496 248.14 102.995 249.445 107.42C253.186 121.119 256.375 135.178 258.993 149.514C261.623 163.692 263.779 177.971 265.155 192.659C266.53 207.347 267.308 221.966 267.114 236.764C267.114 237.828 267.195 238.912 266.902 239.926C267.035 245.936 266.811 251.952 266.231 257.896Z" fill="#010101"/>
<path d="M266.913 239.912C266.873 236.552 266.719 233.188 266.809 229.842C266.996 221.589 266.573 213.329 265.549 205.231C263.834 191.131 262.339 176.948 259.936 163.082C258.689 155.862 257.412 148.642 255.888 141.559C253.857 132.155 252.379 122.475 249.985 113.267C249.519 111.41 249.338 109.404 249.457 107.415C252.109 112.923 253.938 119.133 255.705 125.375C261.466 145.736 264.74 167.144 266.266 189.263C267.262 203.975 267.607 218.78 267.299 233.569C267.259 235.694 267.349 237.842 266.913 239.912Z" fill="#1B1B1B"/>
<path d="M147.691 227.097C147.558 228.786 148.039 231.453 146.53 232.008C144.838 232.623 144.757 229.713 144.345 228.02C142.874 222.016 142.136 215.705 141.594 209.353C141.283 205.704 141.954 203.041 143.045 203.142C144.876 203.317 145.207 205.928 145.639 208.012C146.907 214.131 147.296 220.52 147.691 227.097Z" fill="#1E1E1E"/>
<path d="M244.091 141.835C240.492 62.5669 259.548 183.043 262.932 200.834C267.117 245.953 266.092 291.384 269.836 336.356C273.522 411.695 274.015 488.03 274.682 563.672C274.926 591.005 286.703 738.391 261.838 722.979C245.264 713.156 246.601 626.944 244.407 600.382C245.226 522.968 241.346 444.783 226.043 370.514C226.057 360.678 211.048 314.154 223.802 318.147C225.198 319.474 225.349 321.819 225.668 323.99C233.353 370.583 246.413 415.536 248.27 464.116C251.622 516.515 253.897 569.042 254.904 621.729C257.551 645.914 254.408 694.053 262.45 712.325C278.046 695.476 267.384 530.358 266.548 493.57C264.049 374.925 269.531 254.582 244.091 141.835Z" fill="#2B2B2B"/>
<path d="M261.759 711.761C263.393 711.302 264.139 709.434 264.777 707.281C266.582 701.209 267 694.677 267.36 688.132C269.18 654.905 268.614 621.619 268.28 588.342C268.077 568.174 266.733 548.121 265.929 528.013C265.004 504.856 264.243 481.691 263.866 458.489C263.349 426.897 262.659 395.313 262.052 363.725C262.023 362.206 262.09 360.682 262.11 359.158C261.791 357.988 261.907 356.753 261.91 355.542C261.945 338.196 261.826 320.851 261.199 303.529C260.424 282.112 259.765 260.668 257 239.573C256.231 231.426 255.432 223.283 254.701 215.127C253.471 201.357 251.799 187.743 249.808 174.208C249.593 172.743 249.228 171.33 248.938 169.893C249.66 168.814 250.139 169.209 250.409 170.545C251.297 174.905 252.284 179.224 253.021 183.644C255.633 199.296 257.545 215.209 259.876 230.967C261.24 240.183 262.836 249.326 263.599 258.736C264.261 266.896 264.693 275.103 265.221 283.287C265.845 293.031 265.648 302.79 266.037 312.525C266.524 324.674 266.617 336.925 265.842 349.12C265.61 352 265.604 354.913 265.825 357.795C266.234 362.215 266.115 366.626 266.254 371.042C267.172 403.846 266.62 436.678 266.913 469.486C267.003 479.369 267.827 489.223 268.402 499.101C268.692 504.113 268.588 509.139 269.003 514.165C269.525 520.494 269.479 526.938 269.754 533.328C270.03 539.717 270.419 546.083 270.718 552.468C271.008 558.393 271.365 564.323 271.441 570.263C271.562 580.03 271.47 589.807 271.493 599.583C271.493 604.765 271.385 609.943 271.931 615.115C272.175 617.689 272.195 620.304 271.992 622.886C270.991 636.899 271.722 650.954 271.481 664.985C271.272 677.347 270.292 689.646 268.556 701.704C268.022 705.422 267.352 709.135 265.979 712.348C264.383 716.089 262.299 716.479 259.841 713.725C259.376 710.352 260.729 711.449 261.759 711.761Z" fill="black"/>
<path d="M259.934 304.919C255.035 328.397 247.455 349.084 235.039 364.754C234.294 365.694 233.617 366.842 232.625 367.182C231.844 363.868 230.863 360.646 230.863 356.997C231.014 356.824 231.194 356.725 231.38 356.712C233.542 357.749 235.208 356.845 236.752 354.105C242.652 343.645 248.247 332.863 252.327 320.305C253.085 317.969 253.825 315.669 253.778 313.007C253.648 306.728 254.597 300.674 255.23 294.555L258.692 273.488C260.143 273.387 260.143 275.383 260.207 276.627C260.706 284.788 260.787 292.995 261.263 301.156C261.356 302.941 260.715 303.96 259.934 304.919Z" fill="#010101"/>
<path d="M255.218 294.546C255.218 300.632 255.192 306.719 255.244 312.8C255.26 315.545 254.798 318.245 253.909 320.603C250.818 329.209 247.675 337.774 243.508 345.219C240.704 350.222 238.046 355.445 234.961 360.035C233.339 362.449 233.144 362.357 232.12 359.172C231.859 358.359 231.627 357.524 231.38 356.698C243.035 340.252 249.953 319.249 254.707 296.162C254.851 295.603 255.022 295.063 255.218 294.546Z" fill="#1B1B1B"/>
<path d="M259.934 304.919C260.514 301.032 260.381 297.185 260.07 293.215C259.673 288.129 259.797 282.952 259.322 277.848C259.182 276.356 259.232 274.819 258.68 273.488C259.011 264.041 257.81 254.788 257.267 245.448C257.157 243.497 256.849 241.565 257 239.582C258.584 246.191 259.159 253.168 259.832 260.08C261.011 272.143 261.231 284.334 261.736 296.497C262.555 316.178 261.875 335.851 262.261 355.519C262.285 356.73 262.163 357.947 262.11 359.191C261.368 352.269 261.759 345.26 261.53 338.302C261.191 328.447 260.926 318.588 260.601 308.738C260.546 307.398 260.749 305.915 259.934 304.919Z" fill="#1C1C1C"/>
<path d="M223.294 365.116C219.319 367.815 215.311 370.261 210.958 371.138C206.604 372.015 202.332 371.276 198.087 369.683C196.531 369.1 195.881 367.985 195.954 365.295C196.128 358.924 196.09 352.535 196.136 346.155C195.675 341.317 196.136 336.466 196.052 331.624C195.98 327.158 195.623 326.52 192.761 325.868C191.339 325.546 189.92 325.193 188.498 324.853C188.391 335.383 188.298 345.907 188.164 356.437C188.144 358.057 188.408 359.769 187.723 361.486C186.359 361.027 185.381 359.53 184.354 358.245C178.52 350.952 173.967 341.914 170.133 331.922C164.111 316.211 160.556 299.012 157.913 281.263C157.683 279.721 157.454 278.201 158.981 277.949C159.323 277.874 159.634 277.595 159.85 277.168C160.066 276.741 160.171 276.199 160.141 275.654C160.063 271.188 161.491 267.062 161.264 262.582C161.34 262.38 161.418 262.183 161.494 261.985C161.494 261.848 161.494 261.71 161.494 261.577C161.697 256.133 161.183 250.712 161.204 245.273C161.471 242.359 160.623 239.642 160.623 236.773C160.22 229.383 159.59 222.039 158.847 214.741C157.704 203.523 155.945 192.37 158.383 181.001C158.686 179.56 158.686 178.003 158.383 176.562C158.94 173.735 158.896 170.848 158.731 167.952C158.603 165.68 158.304 163.403 158.328 161.14C158.42 153.053 157.677 145.039 157.553 136.965C157.483 132.274 157.106 127.56 157.091 122.837C157.091 121.304 157.019 119.785 156.47 118.44C155.779 118.628 155.248 119.285 154.729 119.959C149.601 126.67 146.023 135.106 143.73 144.924C143.652 145.11 143.6 145.321 143.578 145.542C143.556 145.763 143.564 145.989 143.602 146.204C144.072 148.633 145.445 149.151 146.719 149.794C147.993 150.436 149.331 150.859 150.55 151.827C152.602 153.475 152.79 154.916 151.42 157.895C145.216 171.256 144.853 190.419 150.55 204.253C151.658 206.943 152.782 209.6 153.214 212.809C154.134 219.657 155.185 226.464 155.826 233.399C156.459 240.078 156.453 240.018 152.903 243.759C149.354 247.499 145.439 250.671 144.452 258.148C144.725 264.074 145.947 269.664 146.89 275.351C147.143 276.88 147.369 278.431 148.521 278.748C149.511 279.018 149.723 280.01 149.766 281.336C149.81 282.663 149.917 284.09 149.946 285.467C150.373 303.786 151.238 322.063 152.033 340.344C153.014 362.895 154.32 385.413 155.147 407.972C155.959 430.082 156.45 452.228 156.888 474.366C157.612 510.406 158.053 546.455 158.211 582.513C158.357 625.911 158.745 669.263 161.755 712.477C162.37 721.28 163.162 730.038 164.524 738.639C165.03 742.08 166.136 745.227 167.716 747.723C169.437 750.482 171.535 752.582 173.849 753.863C176.162 755.143 178.63 755.569 181.064 755.109C183.498 754.649 185.833 753.314 187.89 751.207C189.948 749.101 191.674 746.277 192.935 742.954C195.332 736.762 196.839 729.951 197.733 722.901C200.15 703.825 201.137 684.492 201.128 665.068C201.128 649.636 200.928 634.205 200.745 618.778C200.548 602.424 199.677 586.144 198.478 569.9C197.608 557.925 196.447 546.033 196.464 533.874C196.49 520.435 196.128 506.991 195.861 493.551C195.327 466.673 194.938 439.79 195.106 412.897C195.164 403.58 195.396 394.267 195.579 384.949C195.602 383.65 195.356 382.067 196.577 381.635C198.246 378.041 200.571 379.281 202.695 379.758C208.832 381.187 215.1 379.995 220.848 376.306C229.85 370.555 229.29 360.063 223.294 365.116ZM193.794 678.741C193.215 693.535 191.87 708.229 189.775 722.676C189.195 726.559 188.263 730.217 187.265 733.88C185.689 739.649 182.467 741.017 179.101 741.999C177.444 742.458 176.126 740.806 174.957 739.218C172.76 736.19 171.15 732.24 170.313 727.826C168.546 719.04 167.852 709.952 167.005 700.883C164.393 672.921 165.322 644.757 164.93 616.676C164.495 585.662 164.785 554.629 164.059 523.625C163.685 507.748 163.043 491.89 162.475 476.027C161.735 455.285 160.844 434.557 160.205 413.811C159.625 395.038 159.335 376.251 158.862 357.474C158.592 346.789 158.194 336.112 157.881 325.427C157.814 323.192 157.881 320.943 157.881 318.703L158.394 318.515C159.932 323.105 161.485 327.658 163.009 332.248C165.937 341.074 169.332 349.409 173.456 356.974C177.136 363.735 181.246 369.757 186.089 374.365C187.627 375.824 188.138 377.491 188.121 380.245C187.999 395.85 188.039 411.419 187.918 427.007C187.723 451.622 188.092 476.215 189.226 500.762C190.57 529.862 192.129 558.939 193.58 588.026C194.16 599.459 194.494 610.902 194.45 622.372C194.354 641.163 194.566 659.964 193.794 678.741Z" fill="#1B1B1B"/>
<path d="M58.5148 262.536C58.5148 262.536 57.9344 288.345 66.0313 318.138C74.1283 347.931 87.3329 406.366 89.6488 427.378C91.9647 448.391 98.5003 510.64 105.097 540.043C111.693 569.446 124.59 674.527 112.973 703.136C101.356 731.745 50.1538 764.641 38.7601 627.536C38.7601 627.536 37.2191 540.043 43.5225 482.448C49.8259 424.854 54.002 325.234 54.002 325.234L51.0187 326.492C51.0187 326.492 49.022 409.569 41.7319 454.707C34.4418 499.844 25.7557 608.988 37.5644 669.515C49.3732 730.042 65.3464 737.198 79.9354 743.082C94.5243 748.967 115.486 731.323 119.88 693.47C127.948 623.799 88.6389 402.304 91.4771 398.797C91.4771 398.797 62.1048 290.759 62.7984 262.173L58.5148 262.536Z" fill="black"/>
<path d="M120.858 600.616C119.227 584.271 116.688 568.22 114.439 552.087C113.716 546.9 112.843 541.819 113.11 536.385C111.824 531.987 111.844 527.076 111.862 522.408C111.978 492.046 111.281 461.725 110.643 431.395C110.147 408.115 110.266 384.807 109.851 361.522C109.56 344.402 110.298 327.355 110.881 310.299C111.435 294.073 111.958 277.839 112.291 261.59C112.582 246.655 113.098 231.687 112.001 216.811C110.451 195.638 107.735 175.043 101.51 156.527C101.29 155.997 101.181 155.371 101.199 154.737C102.175 155.527 102.758 158.336 104.177 156.669C103.777 154.122 102.938 151.997 102.073 149.959C101.063 147.577 100.256 144.736 98.4918 143.772C98.1615 144.039 97.8858 144.448 97.6963 144.953C97.5069 145.457 97.4114 146.036 97.4209 146.622C97.2642 153.567 96.8404 160.534 97.7343 167.437C99.2325 169.562 100.398 172.208 101.138 175.167V175.213C101.318 175.832 101.464 176.516 101.641 177.15C102.07 178.692 102.947 182.795 103.382 184.338C103.553 186.027 108.153 208.421 108.153 226C108.153 234.262 108.878 242.524 108.501 250.685C107.993 261.646 108.141 272.629 107.758 283.595C107.346 295.326 106.47 306.957 106.017 318.671C105.695 326.878 105.126 335.052 104.691 343.25C104.595 345.086 104.56 346.922 104.557 348.758C104.54 361.435 104.583 374.112 104.519 386.79C104.461 398.219 104.888 409.675 104.104 421.076C104.256 426.467 104.206 431.866 103.954 437.247C103.954 437.536 103.954 437.825 103.954 438.114C103.794 451.948 103.559 465.801 104.11 479.63C103.681 473.828 102.029 461.968 101.966 461.729C99.9167 454.331 100.169 445.715 98.5643 438.101C98.7789 438.288 99.0216 438.38 99.2666 438.367C100.819 438.367 100.718 435.342 100.947 433.41C102.05 424.266 102.61 414.995 102.189 405.645C101.983 401.055 101.777 396.53 101.754 391.94C101.716 383.531 102.044 375.159 102.215 366.773C102.505 353.003 103.205 339.358 104.014 325.703C105.724 296.965 108.176 268.328 106.803 239.256C106.78 238.797 106.757 238.31 106.737 237.842C106.02 223.228 104.955 208.682 101.867 194.991C100.581 189.29 100.175 183.479 100.018 177.572C99.5075 174.065 99.1651 171.38 99.0083 171.224C99.0083 171.224 98.9909 171.224 98.9851 171.224C98.8231 171.177 98.6564 171.188 98.4976 171.257C98.3388 171.327 98.1919 171.452 98.0681 171.623C97.3106 172.895 97.3193 174.621 97.3106 176.255C97.2729 184.998 97.0494 193.751 97.4992 202.486C97.4818 204.249 98.1957 205.428 98.5614 206.892C99.0315 210.367 99.6468 213.75 99.8064 217.385C100.097 223.88 99.995 230.43 100.413 236.869C101.408 252.305 100.541 267.672 100.085 283.025C99.58 299.913 98.9716 316.797 98.2596 333.675C97.8156 344.315 97.5283 354.977 97.0987 365.621C96.5183 380.157 95.2878 394.597 94.7451 409.455C94.719 409.115 94.6813 408.785 94.6406 408.459C93.3318 398.191 92.0897 387.859 89.6142 378.266C86.9036 367.755 84.3381 357.153 81.7204 346.55C77.0016 327.497 71.6065 308.995 68.7305 288.52C67.7612 281.635 66.5946 274.75 65.367 267.943C65.079 267.375 64.7003 266.939 64.27 266.681C62.3604 265.882 61.6377 267.732 61.4723 270.812C61.3894 272.185 61.3777 273.566 61.4375 274.943C62.0308 288.083 63.8448 301.014 66.8209 313.319C70.8491 329.911 75.4083 346.054 79.4045 362.67C83.2324 378.606 87.307 394.368 90.2497 410.974C94.7974 436.636 97.003 463.299 100.544 489.411C104.691 519.966 108.812 550.517 113.394 580.879C117.814 610.14 120.94 639.869 118.688 670.475C118.061 678.929 116.749 687.159 115.251 695.32C111.499 715.8 90.4616 736.312 77.7561 727.908C65.4801 719.802 55.5433 708.144 49.3618 686.943C45.3743 673.274 43.0642 658.559 40.8557 643.734C37.4602 620.94 35.9801 597.756 35.5767 574.274C35.1907 551.784 35.9801 529.371 38.5949 507.317C42.031 478.29 46.1578 449.529 48.4911 420.108C50.0496 400.463 52.1768 380.979 53.4422 361.238C54.0806 351.268 54.8671 340.51 55.2473 330.522C55.6129 320.883 57.9114 302.767 57.1075 293.146C56.62 287.335 55.3663 286.381 52.3277 289.332C51.8112 290.833 51.8141 292.545 51.7908 294.206C51.6428 305.034 49.7187 324.312 49.3008 335.149C48.6043 353.118 47.5073 371.9 45.5281 389.558C41.793 422.922 38.1219 456.29 35.2836 489.953C33.6323 509.561 31.537 529.041 30.8433 548.892C30.736 552.004 31.476 555.442 30.1526 558.352C30.1384 558.516 30.1007 558.673 30.0424 558.811C29.9901 558.912 29.8856 559.059 29.8479 559.027C29.3546 558.568 29.2152 557.65 28.9773 556.874C24.8612 543.064 21.4039 528.786 18.6341 514.16C14.1416 490.031 11.2018 465.199 8.18649 440.391C5.98088 422.307 4.28604 404.131 4.228 385.573C4.15545 361.899 4.08869 338.219 4.26572 314.554C4.34989 303.281 4.52982 291.948 5.38885 280.767C7.97754 247.082 12.856 214.397 18.7937 182.189C20.387 173.56 22.6826 165.432 24.2729 156.839C25.0971 152.378 25.9446 147.324 23.6925 143.019C22.9699 144.557 22.6071 146.452 22.1428 148.238C13.4364 181.629 8.05589 216.857 4.46307 253.085C2.35613 274.314 1.25623 295.772 0.400102 317.239C0.092544 318.713 0.092544 320.304 0.400102 321.778C0.432026 322.535 0.498772 323.293 0.484262 324.046C0.167931 338.628 0.0837692 353.205 0.484262 367.788C0.481289 368.697 0.449325 369.605 0.388491 370.509C0.928286 392.192 2.03399 413.774 3.91747 435.227C8.41866 486.446 16.3966 535.568 30.617 580.93C31.0696 582.254 31.3228 583.726 31.357 585.23C31.5834 603.131 32.898 620.83 34.8396 638.377C36.3893 652.303 37.9942 666.183 40.8789 679.475C46.6193 705.922 56.7593 723.998 71.6413 733.141C74.5899 734.949 77.5907 736.712 80.6698 737.18C84.7028 737.865 88.7786 737.556 92.7514 736.262C101.951 733.104 109.961 726.164 115.074 711.306C118.853 700.482 121.296 688.621 122.275 676.354C124.199 650.958 123.363 625.649 120.858 600.616ZM97.3889 433.781L97.2032 433.258C97.2764 433.422 97.3386 433.597 97.3889 433.781Z" fill="#252525"/>
<path d="M25.7183 135.675C26.0984 136.07 26.1768 136.758 26.2551 137.451C26.5835 142.356 26.5942 147.3 26.2871 152.208L26.1507 153.828C26.2697 157.707 25.6254 161.314 24.8795 164.844C16.3009 205.483 11.1786 247.573 8.6741 290.787C7.43199 312.217 6.50041 333.694 6.78482 355.225C7.49004 408.596 10.8188 461.252 20.8137 511.92C23.3675 524.873 26.2232 537.624 29.9002 549.686C30.8196 552.594 31.3154 555.79 31.3513 559.04C31.6908 561.689 32.0304 564.337 31.4006 567.642C30.1004 565.347 29.3256 562.864 28.5826 560.404C22.429 540.07 17.7556 518.697 14.6525 496.695C11.376 473.461 8.01242 450.268 5.33957 426.782C3.7292 412.524 2.9366 398.065 2.97144 383.581C2.99465 363.11 3.0585 342.639 2.94822 322.173C2.89018 311.318 3.31679 300.504 3.64182 289.704C4.04812 276.136 5.49628 262.77 7.12437 249.501C9.75369 228.171 12.8706 207.085 16.6723 186.339C17.9986 179.096 19.4381 171.885 21.4144 165.138C23.086 159.433 23.9857 153.567 23.7129 147.118C23.6548 145.741 23.6984 144.364 23.6955 142.987C24.1453 140.357 24.9637 138.044 25.7183 135.675Z" fill="#010101"/>
<path d="M113.11 536.38C112.761 536.839 112.268 537.399 112.117 536.293C111.392 531.01 110.019 525.942 110.492 520.228C110.604 518.405 110.642 516.573 110.605 514.743C110.605 496.383 110.637 478.074 110.605 459.742C110.579 448.451 110.219 437.164 109.978 425.887C109.81 417.96 109.81 410.019 109.566 402.106C108.928 381.53 108.446 360.949 108.64 340.34C108.719 332.11 109.279 323.908 109.511 315.696C109.766 306.085 110.492 296.566 110.756 286.959C111.22 270.041 111.853 253.131 111.627 236.19C111.397 215.352 109.19 194.688 105.079 174.887C103.757 168.67 102.079 162.657 100.068 156.922C98.808 153.287 98.689 151.506 99.4378 146.824C100.744 148.256 101.313 150.707 102.186 152.644C102.819 154.021 103.181 155.857 104.177 156.683C105.997 161.535 107.059 167.011 108.08 172.496C112.48 196.069 113.998 220.382 113.496 245.159C112.915 274.309 112.23 303.451 112.027 332.624C111.844 359.191 111.142 385.748 111.226 412.333C111.296 434.181 111.908 455.983 112.515 477.794C113.034 496.393 113.855 514.972 113.252 533.649C113.223 534.562 113.159 535.471 113.11 536.38Z" fill="#010101"/>
<path d="M102.209 366.75C102.026 375.136 101.71 383.508 101.748 391.917C101.771 396.507 101.977 401.055 102.183 405.622C102.604 414.972 102.044 424.244 100.941 433.387C100.709 435.319 99.9107 454.307 101.96 461.706C101.739 462.276 99.3187 453.729 98.7208 448.983C97.8502 441.993 97.0231 434.975 96.1815 427.971C96.1147 427.392 95.9667 426.796 96.344 426.001C98.7295 434.419 99.8265 432.014 99.9107 431.115C100.863 422.114 101.475 416.234 100.947 407.05C100.52 399.733 100.526 392.435 100.532 385.119C100.532 374.291 101.098 363.514 101.402 352.714C101.809 338.697 102.853 324.803 103.593 310.854C104.11 301.302 104.957 291.801 105.372 282.241C105.898 270.252 106.269 258.29 105.741 246.182C105.219 234.29 104.525 222.521 103.184 210.84C102.494 204.845 101.359 201.701 100.175 193.398C99.1561 186.252 95.3137 175.323 98.9704 171.146C98.9704 171.146 98.9704 171.146 98.9936 171.146C99.1504 171.302 99.4928 173.987 100.004 177.494C100.496 181.064 101.112 184.588 101.849 188.051C104.94 201.752 106.008 222.728 106.722 237.746C106.742 238.205 106.766 238.687 106.789 239.16C108.161 268.214 105.709 296.869 104 325.606C103.199 339.344 102.508 353.003 102.209 366.75Z" fill="black"/>
<path d="M97.052 596.999C98.1229 593.827 96.045 583.353 95.5574 579.709C94.1673 569.285 94.1267 558.508 93.2879 547.933C92.0603 532.488 91.2565 516.974 91.5147 501.363C91.7121 488.998 91.1055 478.028 91.4683 465.672C91.4973 464.626 92.2867 434.254 94.7738 459.843C94.3443 469.716 95.2614 472.112 96.7415 481.292C97.409 485.423 97.0317 497.48 96.9997 501.813C96.8982 515.849 97.644 529.812 98.3841 543.747C98.6424 548.594 98.8223 553.459 98.9906 558.324C99.0616 561.026 99.3742 563.698 99.9193 566.26C101.449 562.721 101.475 559.091 101.608 555.524C102.282 548.497 101.492 541.296 102.343 534.292C102.569 532.414 102.171 524.267 103.718 524.084C105.018 530.688 106.127 543.43 107.151 550.173C107.672 553.753 107.469 557.502 106.571 560.89C103.686 571.768 102.206 589.068 97.052 596.999Z" fill="#252525"/>
<path d="M89.2483 272.68H41.5229C37.0867 272.679 32.8211 269.977 29.6116 265.133C26.4021 260.289 24.4954 253.677 24.2872 246.669L20.4855 118.908C20.3755 115.22 20.7399 111.535 21.5564 108.077C22.373 104.618 23.6248 101.457 25.2361 98.7854C26.8474 96.1138 28.7846 93.9872 30.9306 92.534C33.0766 91.0809 35.3867 90.3315 37.7211 90.3313H88.218C92.7571 90.3307 97.1136 93.1588 100.344 98.2027C103.573 103.247 105.417 110.1 105.474 117.279L106.496 245.039C106.525 248.651 106.1 252.237 105.247 255.587C104.393 258.938 103.127 261.987 101.523 264.558C99.9188 267.13 98.0076 269.171 95.9005 270.565C93.7934 271.96 91.5323 272.678 89.2483 272.68Z" fill="#2B3954"/>
<path d="M86.8397 268.696H40.0546C36.541 268.694 33.1629 266.551 30.6226 262.712C28.0822 258.873 26.5751 253.634 26.4146 248.082L22.6593 118.922C22.575 116.005 22.8652 113.092 23.5126 110.358C24.1599 107.623 25.1509 105.125 26.4256 103.013C27.7004 100.901 29.2325 99.2199 30.9295 98.0706C32.6265 96.9212 34.4532 96.3277 36.2992 96.3257H87.1618C88.9603 96.3257 90.7412 96.8874 92.4021 97.9786C94.0631 99.0698 95.5714 100.669 96.8406 102.684C98.1098 104.7 99.1149 107.092 99.7981 109.723C100.481 112.354 100.829 115.173 100.822 118.018L100.5 247.178C100.486 252.893 99.0407 258.367 96.4803 262.4C93.92 266.433 90.4533 268.697 86.8397 268.696Z" fill="#F4F4F4"/>
<path d="M85.8879 264.207H40.8499C37.8356 264.206 34.9377 262.366 32.7592 259.071C30.5808 255.776 29.2896 251.28 29.1544 246.517L25.5818 120.161C25.5117 117.663 25.7622 115.168 26.3183 112.827C26.8744 110.485 27.7245 108.347 28.8174 106.539C29.9103 104.732 31.2233 103.293 32.6773 102.31C34.1313 101.327 35.6961 100.82 37.2774 100.819H86.1955C87.7366 100.819 89.2625 101.3 90.6857 102.235C92.1089 103.17 93.4015 104.54 94.4892 106.267C95.5768 107.993 96.4383 110.043 97.024 112.297C97.6098 114.551 97.9084 116.967 97.9027 119.404L97.595 245.76C97.5828 250.658 96.344 255.349 94.1499 258.807C91.9558 262.264 88.9851 264.206 85.8879 264.207Z" fill="#4D5B77"/>
<path d="M58.506 182.584C69.9949 182.584 79.3084 167.854 79.3084 149.683C79.3084 131.513 69.9949 116.783 58.506 116.783C47.0172 116.783 37.7036 131.513 37.7036 149.683C37.7036 167.854 47.0172 182.584 58.506 182.584Z" fill="#2B3954"/>
<path d="M55.5607 182.584C67.0495 182.584 76.3631 167.854 76.3631 149.683C76.3631 131.513 67.0495 116.783 55.5607 116.783C44.0718 116.783 34.7583 131.513 34.7583 149.683C34.7583 167.854 44.0718 182.584 55.5607 182.584Z" fill="#8FEAA9"/>
<path d="M54.8727 130.098C57.3982 130.098 59.867 131.283 61.9669 133.502C64.0668 135.721 65.7035 138.875 66.67 142.565C67.6365 146.256 67.8893 150.316 67.3966 154.234C66.9039 158.151 65.6878 161.75 63.9019 164.574C62.1161 167.399 59.8408 169.322 57.3638 170.101C54.8868 170.881 52.3193 170.481 49.986 168.952C47.6528 167.424 45.6585 164.835 44.2554 161.514C42.8522 158.193 42.1033 154.288 42.1033 150.294C42.1033 144.938 43.4487 139.801 45.8434 136.013C48.2381 132.226 51.486 130.098 54.8727 130.098ZM54.8727 124.131C51.6009 124.131 48.4027 125.666 45.6824 128.541C42.962 131.415 40.8418 135.501 39.5898 140.282C38.3377 145.063 38.0101 150.323 38.6484 155.398C39.2867 160.473 40.8622 165.135 43.1756 168.794C45.4891 172.452 48.4366 174.944 51.6455 175.954C54.8543 176.963 58.1804 176.445 61.203 174.465C64.2257 172.485 66.8092 169.131 68.6269 164.829C70.4446 160.527 71.4147 155.468 71.4147 150.294C71.4147 143.355 69.6719 136.701 66.5697 131.794C63.4674 126.888 59.2599 124.131 54.8727 124.131Z" fill="#2B3954"/>
<path d="M46.2563 216.485L48.1543 291.112C48.1708 291.73 48.3377 292.314 48.62 292.742C48.9023 293.169 49.2783 293.408 49.6692 293.407H60.5638C60.9581 293.408 61.337 293.165 61.6199 292.73C61.9028 292.296 62.0674 291.704 62.0787 291.08L63.4659 216.485H46.2563Z" fill="#2B3954"/>
<path d="M49.2139 291.016L49.5041 301.215C49.5198 301.745 49.6639 302.245 49.9066 302.611C50.1493 302.976 50.4718 303.18 50.8071 303.18H59.7195C60.0651 303.18 60.3966 302.963 60.6409 302.576C60.8853 302.19 61.0226 301.665 61.0226 301.119V291.021L49.2139 291.016Z" fill="black"/>
<path d="M69.7202 160.433L69.6738 162.31L68.3824 206.727C68.3033 209.546 67.8717 212.313 67.1125 214.867C66.3533 217.421 65.2816 219.711 63.9593 221.606C62.637 223.501 61.0903 224.963 59.4086 225.907C57.727 226.851 55.9438 227.258 54.162 227.106L53.8224 227.069C50.5287 226.679 47.4397 224.393 45.14 220.643C42.8404 216.894 41.4896 211.941 41.3433 206.722L40.0722 162.324L40.0112 160.208C40.1563 159.211 40.3218 158.273 40.5075 157.395C43.5257 143.047 51.6313 144.084 59.6354 144.915C65.3961 145.516 67.9877 152.442 69.0556 156.848C69.3437 158.01 69.5661 159.209 69.7202 160.433Z" fill="#718BCF"/>
<path d="M48.5752 146.053L61.8205 146.512L61.6957 144.07C61.6128 142.46 61.1559 140.956 60.4131 139.847C59.6704 138.739 58.6944 138.104 57.6733 138.066L52.998 137.887C51.9874 137.849 51.0027 138.397 50.2305 139.429C49.4582 140.461 48.9519 141.905 48.8074 143.487L48.5752 146.053Z" fill="#2B3954"/>
<path d="M203.519 331.013C180.282 331.013 161.218 301.413 160.403 264.064L155.867 56.4256C155.216 26.6232 169.866 1.73208 188.405 1.13998L210.94 0.419357C229.357 -0.168153 244.555 23.4516 244.817 53.0703L246.662 260.636C246.993 299.343 227.59 331.013 203.519 331.013Z" fill="#FF9F48"/>
<path d="M233.788 14.0697C228.352 8.59766 222.012 5.7947 215.569 6.01443L193.034 6.73505C174.495 7.32715 159.845 32.2183 160.51 62.0207L165.046 269.655C165.238 279.188 166.665 288.558 169.239 297.183C171.814 305.809 175.48 313.507 180.012 319.8C174.17 313.657 169.342 305.393 165.931 295.698C162.52 286.003 160.624 275.158 160.403 264.069L155.867 56.4255C155.216 26.6232 169.866 1.73204 188.405 1.13994L210.94 0.419317C219.383 0.146796 227.568 5.0364 233.788 14.0697Z" fill="#E27F2D"/>
<path d="M213.465 297.117H191.827C185.071 297.113 178.579 292.971 173.714 285.558C168.849 278.146 165.988 268.04 165.734 257.363L161.796 92.406C161.642 86.0174 162.304 79.6454 163.743 73.6713C165.183 67.6972 167.37 62.2439 170.173 57.638C172.976 53.032 176.339 49.368 180.058 46.8655C183.778 44.3629 187.779 43.0732 191.821 43.0735H210.566C218.534 43.0759 226.176 48.084 231.81 56.9962C237.444 65.9084 240.609 77.995 240.609 90.5975L239.567 256.216C239.499 267.096 236.719 277.494 231.832 285.152C226.945 292.81 220.345 297.11 213.465 297.117Z" fill="#4D5B77"/>
<path d="M211.297 275.36H192.239C186.292 275.361 180.576 271.717 176.293 265.193C172.009 258.67 169.49 249.774 169.266 240.376L165.783 95.1232C165.649 89.4993 166.233 83.8905 167.501 78.6322C168.77 73.3739 170.695 68.5742 173.164 64.5205C175.632 60.4667 178.592 57.2421 181.867 55.0397C185.141 52.8372 188.663 51.7022 192.221 51.7025H208.726C215.742 51.7025 222.471 56.1108 227.433 63.9577C232.394 71.8045 235.181 82.4471 235.181 93.5442L234.264 239.366C234.204 248.94 231.758 258.09 227.458 264.829C223.158 271.568 217.351 275.352 211.297 275.36Z" fill="#5BCEB8"/>
<path d="M237.956 94.7971C237.689 94.7971 237.434 94.6298 237.246 94.3319C237.057 94.0341 236.952 93.6302 236.952 93.209C236.977 83.6817 235.072 74.3921 231.516 66.7023C228.092 59.2789 223.272 53.7561 217.745 50.9222C217.616 50.8641 217.495 50.7654 217.39 50.6321C217.286 50.4987 217.199 50.3333 217.135 50.1459C217.071 49.9584 217.032 49.7526 217.02 49.5407C217.008 49.3288 217.022 49.1151 217.063 48.9124C217.104 48.7096 217.17 48.5219 217.258 48.3604C217.345 48.1989 217.453 48.0669 217.573 47.9723C217.694 47.8776 217.825 47.8222 217.959 47.8094C218.093 47.7965 218.228 47.8265 218.355 47.8975C224.287 50.9378 229.461 56.8637 233.138 64.8296C236.944 73.0609 238.984 83.0026 238.96 93.1998C238.961 93.4091 238.935 93.6166 238.885 93.8103C238.835 94.0041 238.761 94.1802 238.668 94.3287C238.575 94.4771 238.464 94.5949 238.341 94.6753C238.219 94.7557 238.088 94.7971 237.956 94.7971Z" fill="#8FEAA9"/>
<path d="M163.641 96.5366C163.382 96.5369 163.132 96.3778 162.944 96.0928C162.757 95.8078 162.647 95.419 162.637 95.0082C162.193 75.9647 168.798 58.4038 179.47 50.2797C179.708 50.1162 179.976 50.1049 180.22 50.248C180.463 50.3911 180.662 50.6776 180.774 51.0474C180.887 51.4172 180.904 51.8415 180.824 52.2315C180.743 52.6215 180.569 52.9468 180.34 53.1392C170.395 60.7171 164.236 77.1076 164.651 94.9072C164.656 95.1156 164.635 95.3235 164.589 95.519C164.544 95.7144 164.474 95.8937 164.384 96.0463C164.294 96.199 164.186 96.3221 164.066 96.4086C163.946 96.4951 163.817 96.5433 163.685 96.5504L163.641 96.5366Z" fill="#8FEAA9"/>
<path d="M184.798 139.622H180V158.45H184.798V139.622Z" fill="#718BCF"/>
<path d="M222 241.987H185.941V243.676H222V241.987Z" fill="#5B5B5B"/>
<path d="M222 247.201H185.941V248.89H222V247.201Z" fill="#5B5B5B"/>
<path d="M176.118 280.46H227.636C227.636 281.833 227.291 283.15 226.677 284.121C226.063 285.092 225.231 285.637 224.362 285.637H179.38C178.511 285.637 177.679 285.092 177.065 284.121C176.451 283.15 176.106 281.833 176.106 280.46H176.118Z" fill="white"/>
<path d="M329.085 45.3501L364.706 44.8681C369.38 44.8068 373.894 47.5578 377.334 52.564C380.774 57.5702 382.881 64.4571 383.23 71.8293L387.647 165.28C388.007 172.897 388.054 180.543 387.789 188.17L384.803 274.355C384.375 286.696 381.423 298.483 376.391 307.94C371.359 317.397 364.52 324.011 356.905 326.786L354.194 327.773C348.364 329.899 342.291 329.695 336.523 327.18C329.242 324.006 322.776 317.294 318.037 307.992C313.298 298.69 310.527 287.269 310.114 275.342L307.093 188.23C306.87 181.843 306.883 175.442 307.131 169.058L310.863 72.6968C311.148 65.3373 313.187 58.4225 316.569 53.3473C319.95 48.272 324.423 45.4142 329.085 45.3501Z" fill="#2B3954"/>
<path d="M384.737 188.129L382.749 245.526L382.232 260.751L381.988 267.791C381.593 279.199 378.864 290.095 374.213 298.837C369.561 307.578 363.24 313.692 356.2 316.256L353.696 317.174C348.307 319.139 342.694 318.951 337.362 316.628C330.631 313.694 324.653 307.49 320.272 298.891C315.891 290.293 313.329 279.735 312.947 268.709L312.729 262.472L312.253 248.73L310.155 188.188C309.949 182.285 309.961 176.368 310.19 170.467L313.641 81.4223C313.903 74.6174 315.789 68.2236 318.916 63.5314C322.043 58.8392 326.18 56.198 330.49 56.141L363.415 55.682C367.735 55.6257 371.908 58.1691 375.087 62.7968C378.267 67.4245 380.215 73.7906 380.537 80.6053L384.618 166.983C384.946 174.02 384.985 181.084 384.737 188.129Z" fill="#C0DBF2"/>
<path d="M316.743 196.95C325.795 190.823 349.247 179.05 376.86 197.285C377.296 197.576 377.769 197.697 378.24 197.64C378.711 197.583 379.167 197.35 379.57 196.958C379.972 196.567 380.31 196.029 380.555 195.39C380.8 194.751 380.945 194.029 380.978 193.283L381.611 178.761C381.894 172.258 380.65 165.818 378.117 160.676C375.584 155.534 371.94 152.051 367.884 150.895L367.687 150.836C367.512 150.788 367.336 150.764 367.158 150.762H326.445C326.257 150.762 326.069 150.79 325.885 150.845C321.974 152.033 318.459 155.386 315.971 160.303C313.483 165.22 312.184 171.378 312.308 177.673L312.599 192.778C312.613 193.544 312.746 194.293 312.985 194.959C313.224 195.625 313.563 196.189 313.972 196.6C314.381 197.012 314.847 197.259 315.33 197.32C315.813 197.381 316.298 197.254 316.743 196.95Z" fill="#718BCF"/>
<path d="M345.416 120.023H345.126C343.992 120.023 343.074 121.476 343.074 123.269V136.937C343.074 138.729 343.992 140.182 345.126 140.182H345.416C346.549 140.182 347.468 138.729 347.468 136.937V123.269C347.468 121.476 346.549 120.023 345.416 120.023Z" fill="white"/>
<path d="M364.816 197.102C365.424 197.102 365.916 196.324 365.916 195.365C365.916 194.405 365.424 193.628 364.816 193.628H329.132C328.524 193.628 328.032 194.405 328.032 195.365C328.032 196.324 328.524 197.102 329.132 197.102H364.816Z" fill="white"/>
<path d="M339.76 234.808H351.821C352.781 234.807 353.711 235.339 354.448 236.313C355.184 237.286 355.682 238.638 355.852 240.133L359.218 269.508C359.31 270.288 359.31 271.087 359.218 271.867L356.336 295.992C356.159 297.476 355.66 298.816 354.924 299.78C354.189 300.743 353.263 301.271 352.308 301.27H339.249C338.271 301.277 337.323 300.73 336.578 299.728C335.833 298.726 335.339 297.336 335.186 295.808L332.498 269.15C332.424 268.415 332.431 267.664 332.519 266.933L335.711 240.087C335.888 238.596 336.391 237.252 337.131 236.287C337.87 235.323 338.801 234.799 339.76 234.808Z" fill="#718BCF"/>
<path d="M382.749 245.53L377.298 281.543C376.138 290.117 372.217 296.777 367.092 298.929L364.77 299.898C352.404 305.076 339.381 304.854 327.089 299.255C321.972 296.923 318.139 290.098 316.958 279.211L312.233 248.725L312.709 262.467L315.097 282.116C316.299 292.026 320.69 299.843 326.552 302.514C339.182 308.267 352.562 308.494 365.266 303.17L367.588 302.202C373.459 299.742 377.94 292.104 379.281 282.291L382.232 260.75L382.749 245.53Z" fill="black"/>
<path d="M347.915 383.191H343.053C342.075 383.193 341.135 382.582 340.44 381.493C339.745 380.403 339.35 378.924 339.342 377.376L338.903 300.834L336.634 298.539L335.473 280.487L338.779 248.592C338.947 246.96 339.478 245.477 340.276 244.408C341.074 243.34 342.086 242.756 343.132 242.763H348.24C349.287 242.758 350.301 243.345 351.099 244.418C351.897 245.491 352.427 246.979 352.593 248.615L355.785 280.033L355.007 299.081L353.106 301.257L351.655 377.486C351.628 379.022 351.221 380.48 350.522 381.547C349.822 382.614 348.886 383.204 347.915 383.191Z" fill="#2B3954"/>
<path d="M399.613 526.902C398.911 502.694 398.855 478.455 398.722 454.239C398.646 440.469 398.841 426.639 399.012 412.838C399.375 384.164 398.568 355.532 397.227 326.933C397.015 322.434 396.473 317.849 397.059 313.287C397.033 307.65 395.721 295.652 395.686 295.189C394.853 283.943 394.166 272.698 393.098 261.471C391.38 243.469 387.813 226.735 380.618 212.263C379.106 209.509 376.941 209.123 374.896 208.352C366.386 205.139 357.677 205.245 349.026 204.68C341.832 204.221 334.623 204.037 327.417 203.969C322.86 203.927 318.612 205.18 314.775 209.219C312.538 210.771 310.863 213.167 310.062 216.908C307.367 222.674 304.961 228.765 302.868 235.125C302.467 236.323 301.977 237.498 301.965 238.939C302.034 239.552 302.009 240.181 301.893 240.775C296.55 265.58 292.96 291.244 291.19 317.298C290.096 333.726 289.26 350.19 288.984 366.649C288.746 380.782 288.511 394.909 288.021 409.023C287.339 428.691 286.401 448.341 284.811 467.885C283.502 484.009 282.57 500.138 282.779 516.414C282.832 520.196 283.572 523.973 282.875 527.765C282.635 532.136 282.781 536.539 283.31 540.846C284.352 548.337 284.181 555.993 284.669 563.594C285.635 578.671 285.092 593.887 285.586 609.006C286.099 624.8 285.65 640.677 285.742 656.494C285.856 675.592 285.847 694.718 288.314 713.537C289.509 722.653 291.12 731.571 294.971 738.984C297.191 740.544 298.674 738.626 299.951 736.179C302.041 732.168 303.056 727.367 303.457 722.318C304.528 708.842 305.982 695.43 306.025 681.789C306.049 674.156 306.185 666.518 306.281 658.885C306.571 634.77 307.363 610.691 307.442 586.539C307.479 577.083 307.392 567.601 307.958 558.159C308.539 548.585 309.119 539.01 309.609 529.426C311.06 501.786 310.39 474.219 308.547 446.665C307.441 430.117 306.758 413.515 306.498 396.86C306.15 374.576 306.339 352.274 305.477 330.003C304.763 311.547 304.76 293.082 305.915 274.64C306.179 270.403 306.73 266.18 306.551 261.88C304.383 261.88 304.267 264.725 303.898 266.929C301.663 280.386 300.471 294.055 299.916 307.871C299.968 304.771 299.911 301.67 299.748 298.581C299.437 293.165 299.838 287.982 300.302 282.704C301.591 268.062 305.561 254.646 307.987 240.523C308.762 236.015 310.065 231.802 312.903 229.388C313.286 227.864 316.516 215.205 329.408 214.493C333.149 213.846 358.963 214.805 368.087 215.994C382.725 216.504 386.385 250.671 386.478 253.815C386.604 257.086 386.861 260.34 387.247 263.56C388.827 277.844 389.679 292.306 389.795 306.806C390.288 369.229 389.296 431.652 390.375 494.075C390.581 505.962 391.043 517.841 391.185 529.738C391.261 535.962 391.38 542.246 391.748 548.465C392.604 562.827 392.239 577.079 390.988 591.358C389.435 609.061 382.92 607.051 380.618 603.939C378.587 601.185 377.902 597.357 377.002 593.676C372.902 576.868 372.736 559.077 371.869 541.475C371.262 529.165 370.923 516.804 369.799 504.59C367.26 476.927 366.738 449.02 365.446 421.205C364.889 409.351 364.387 397.49 363.94 385.624C363.65 377.628 362.828 369.729 362.248 361.802C361.668 353.875 360.246 338.311 359.819 330.421C359.578 325.996 358.171 324.936 355.466 326.662C355.35 329.416 356.046 339.95 356.4 342.694C356.691 348.473 356.818 354.284 357.271 360.026C359.546 388.19 360.997 416.482 362.062 444.797C363.072 471.598 363.696 498.44 364.48 525.263C364.996 542.944 365.42 560.633 366.935 578.194C367.652 586.525 368.612 594.773 370.435 602.7C371.767 608.501 373.627 613.803 376.608 617.952C384.539 628.968 389.563 619.361 390.828 617.493C396.769 608.823 399.291 597.889 399.63 585.364C400.189 565.872 400.184 546.384 399.613 526.902ZM300.595 363.501C301.721 375.893 301.988 388.332 302.502 400.752C303.187 417.354 303.347 434.011 304.981 450.493C305.956 460.302 306.902 470.179 306.722 480.098C306.345 499.633 304.429 518.975 303.28 538.39C302.302 554.914 301.193 571.41 301.144 588.012C301.054 617.181 301.489 646.368 300.479 675.51C300.108 686.209 299.983 696.958 298.828 707.589C298.602 709.663 298.364 710.962 297.156 711.72C296.469 712.312 295.749 713.138 295.334 711.261C295.054 709.798 294.845 708.303 294.71 706.79C292.597 688.664 292.678 670.263 292.516 651.991C292.191 616.713 292.597 581.416 291.149 546.184C290.827 538.381 291.021 530.578 290.49 522.858C289.564 509.377 290.177 495.984 290.908 482.614C291.924 464.052 294.028 445.683 294.852 427.076C295.894 403.626 297.052 380.194 297.066 356.657C297.066 340.344 296.068 335.282 298.253 331.871C298.521 331.835 298.777 331.683 298.993 331.432C299.21 331.181 299.378 330.841 299.481 330.448C299.394 341.506 299.6 352.54 300.595 363.496V363.501Z" fill="#0A1B2D"/>
<path d="M350.161 755.719C347.343 759.703 344.165 760.308 340.874 757.495C338.117 755.131 336.387 751.262 334.962 747.057C331.1 735.647 328.465 723.607 327.469 710.687C326.201 694.292 325.652 677.814 325.307 661.331C324.457 621.018 324.399 580.691 324.912 540.359C325.171 520.049 325.017 499.725 325.264 479.41C325.554 456.35 325.092 433.272 325.815 410.221C326.265 395.892 326.921 381.571 327.356 367.237C327.646 357.322 327.733 347.39 327.936 337.466C327.968 335.796 327.936 325.11 328.015 323.444C331.256 322.265 333.503 333.262 333.439 338.27C333.329 346.706 333.265 355.138 332.882 363.592C332.475 372.662 332.066 381.778 331.866 390.898C331.358 413.847 331.285 436.797 331.23 459.747C331.23 466.172 331.956 472.529 331.837 478.942C331.547 494.8 331.097 510.64 330.304 526.466C329.681 538.932 329.564 551.453 328.981 563.929C328.061 583.592 328.29 603.296 328.401 622.983C328.552 649.994 329.759 676.873 333.105 703.435C334.266 712.665 334.968 722.061 337.31 730.823C337.777 732.604 338.317 734.352 338.761 736.152C339.609 739.47 341.066 741.109 343.35 740.783C346.234 739.668 346.437 735.826 346.873 732.218C348.182 721.4 347.085 710.6 346.687 699.818C346.153 685.355 344.862 671.002 344.542 656.48C344.005 631.942 343.646 607.368 342.757 582.871C342.36 571.855 342.586 560.895 342.287 549.925C341.521 521.697 342.183 493.437 341.597 465.227C341.19 445.678 341.399 426.075 340.337 406.559C340.189 403.878 340.314 400.996 340.183 398.503C340.053 396.011 339.519 390.108 340.813 387.988C345.813 386.06 347.36 393.955 347.488 402.037C347.883 427.741 347.459 453.412 347.488 479.098C347.488 492.17 347.558 505.26 347.935 518.286C348.695 544.507 349.654 570.72 350.811 596.926C351.972 623.088 354.047 649.145 354.65 675.413C354.941 688.651 355.663 701.906 355.997 715.157C356.287 726.467 355.75 737.79 352.857 748.466C352.14 751.087 350.814 753.084 350.161 755.719Z" fill="#404040"/>
<path d="M336.805 733.159C335.168 726.6 334.112 719.779 333.102 712.927C330.879 697.881 329.123 682.716 328.215 667.33C327.866 661.405 327.721 655.452 327.495 649.508C326.624 626.765 326.871 603.999 326.993 581.237C327.036 573.163 327.573 565.094 327.884 557.021C327.936 555.644 328.006 554.267 328.029 552.89C328.267 538.39 329.23 523.946 329.59 509.469C329.921 496.076 330.719 482.705 330.037 469.202C329.437 457.355 329.86 445.375 329.854 433.455C329.854 420.319 330.31 407.215 330.867 394.115C331.224 385.739 331.32 377.334 331.599 368.949C331.889 360.255 332.089 351.562 332.278 342.864C332.394 337.476 331.247 325.064 328.003 323.43V321.627C328.502 319.965 328.049 318.161 328.322 316.468C330.751 314.352 334.385 316.647 335.818 321.2C336.381 323.866 336.538 335.649 336.471 338.389C336.085 353.949 335.31 369.472 334.527 384.99C333.899 397.636 333.899 410.34 334.527 422.986C334.75 427.576 334.727 432.166 334.733 436.723C334.756 451.7 334.965 466.686 334.692 481.65C334.248 505.907 333.677 530.16 333.157 554.414C332.826 569.813 332.722 585.244 333.412 600.675C333.964 613.013 333.677 625.424 333.552 637.799C333.241 668.147 334.588 698.243 338.564 727.986C338.665 728.734 340.343 738.837 340.305 739.603C339.96 741.017 338.59 738.869 336.805 733.159Z" fill="black"/>
<path d="M306.574 261.852C305.247 265.345 304.995 269.361 304.446 273.203C302.763 284.985 302.067 296.979 301.277 308.977C300.697 317.812 301.01 326.662 300.407 335.484C299.905 342.616 300.723 349.795 301.115 356.928C301.742 368.32 302.766 379.648 303.225 391.077C303.879 407.362 304.652 423.632 305.546 439.886C305.932 446.867 306.742 453.793 307.378 460.743C308.492 472.897 308.097 485.037 307.479 497.228C306.867 509.272 305.355 521.096 304.441 533.057C304.127 537.142 304.043 541.277 303.909 545.376C303.669 552.839 303.312 560.298 303.039 567.757C302.026 595.989 303.039 624.245 302.441 652.464C302.07 669.97 302.113 687.563 300.244 704.931C299.844 708.672 299.443 712.408 298.271 716.08C298.126 715.015 297.98 713.955 297.841 712.867C296.448 711.49 296.442 709.195 296.55 707.139C297.13 696.178 296.915 685.181 297.362 674.211C297.673 666.601 298.184 658.995 298.204 651.362C298.245 633.645 298.361 615.919 298.178 598.202C297.969 577.827 299.449 557.663 300.819 537.482C301.98 520.324 303.1 503.149 303.169 485.9C303.219 474.159 302.009 462.491 301.457 450.76C300.923 439.198 300.035 427.663 299.974 416.055C299.844 391.311 298.813 366.658 297.272 342.038C297.58 268.016 308.434 234.042 310.355 229.585C310.854 228.424 311.136 226.601 312.453 227.028C313.167 230.948 307.972 249.322 307.23 256.023C307.032 257.992 306.797 259.938 306.574 261.852Z" fill="#010101"/>
<path d="M350.16 755.718C350.343 754.695 350.451 753.602 350.718 752.652C354.49 739.966 355.12 726.563 354.389 712.844C354.308 711.325 354.241 709.796 354.241 708.254C354.241 698.156 353.588 688.155 353.179 678.112C352.888 671.112 352.813 664.094 352.5 657.09C351.931 644.465 351.234 631.856 350.41 619.265C350.079 614.255 349.804 609.242 349.586 604.223C349.005 590.683 348.456 577.14 347.937 563.593C347.668 556.589 347.45 549.558 347.372 542.567C347.232 529.896 346.942 517.24 346.501 504.599C345.801 484.743 346.327 464.915 346.121 445.077C346.074 440.639 346.573 436.219 346.515 431.831C346.365 421.003 346.008 410.18 346.008 399.343C346.008 396.929 345.343 395.621 343.753 395.644C342.975 395.638 342.209 395.339 341.518 394.772C339.585 392.757 340.154 389.851 340.412 387.047C342.307 382.315 346.864 382.062 348.965 386.588C348.886 416.523 349.571 446.459 349.023 476.399C348.608 499.013 349.046 521.596 350.033 544.164C350.692 559.242 351.231 574.334 351.887 589.416C352.352 600.079 353.46 610.64 353.919 621.312C355.053 647.369 356.354 673.412 357.474 699.469C358.002 711.701 357.517 723.933 356.339 736.023C355.611 743.459 353.951 750.513 350.16 755.718Z" fill="black"/>
<path d="M399.677 585.364C399.337 597.871 396.815 608.804 390.875 617.493C389.598 619.356 387.92 620.297 386.756 622.344C386.426 620.541 387.377 619.884 388.027 619.132C395.727 610.25 398.641 597.664 398.792 583.28C398.974 565.723 399.154 548.139 398.731 530.601C397.924 497.168 398.44 463.735 398.304 430.307C398.26 419.291 398.533 408.275 398.185 397.328C397.77 384.357 397.956 371.377 397.541 358.429C397.279 350.346 397.25 342.263 397.085 334.185C396.981 328.998 396.391 323.862 396.531 318.652C396.577 316.816 396.435 314.98 397.065 313.296C396.484 317.858 397.021 322.444 397.233 326.942C398.574 355.542 399.381 384.174 399.018 412.847C398.841 426.649 398.646 440.473 398.728 454.248C398.861 478.464 398.916 502.704 399.619 526.911C400.178 546.394 400.197 565.878 399.677 585.364Z" fill="#020202"/>
<path d="M301.965 238.935C302.734 240.385 302.232 241.835 301.948 243.263C298.605 260.191 295.882 277.366 294.196 294.9C293.311 304.079 292.882 313.392 292.124 322.613C291.045 335.782 290.464 349.015 289.916 362.252C289.776 365.603 289.811 368.967 289.814 372.327C289.814 389.429 288.923 406.453 288.186 423.491C287.933 429.274 287.716 435.071 287.606 440.85C287.333 453.532 286.683 466.122 285.22 478.607C283.58 492.624 283.148 506.775 283.4 521.004C283.441 523.267 283.647 525.594 282.898 527.737C282.679 525.705 282.627 523.636 282.744 521.582C282.164 515.73 282.951 509.79 282.321 503.938V492.964C282.945 488.039 282.158 483.008 282.742 478.079C282.983 468.44 284.021 458.966 284.773 449.433C286.178 431.991 287.072 414.55 287.568 396.993C288.206 374.268 288.148 351.507 289.242 328.814C290.647 299.097 294.651 269.831 301.141 241.854C301.373 240.853 301.69 239.908 301.965 238.935Z" fill="#010101"/>
<path d="M349.4 378.229C350.526 378.229 351.165 377.22 351.272 375.416C351.342 374.204 351.426 372.992 351.835 371.914C352.166 375.205 351.742 378.487 351.806 381.768C351.855 384.348 351.287 385.706 349.597 385.78C349.38 385.78 349.168 386.303 348.953 386.588C347.099 385.348 345.279 385.321 343.361 385.33C341.141 385.087 340.859 386.285 340.459 387.446C338.517 387.942 338.717 386.106 338.517 383.714C338.204 379.955 337.937 376.127 338.92 372.46C339.756 371.005 340.639 371.244 341.268 372.667C341.875 380.547 347.302 378.229 349.4 378.229Z" fill="#1B1B1B"/>
<path d="M361.56 332.128C361.229 342.272 363.153 360.017 364.152 369.949C365.35 381.883 366.148 393.863 366.804 405.879C367.744 423.069 368.664 440.262 369.474 457.47C370.496 479.089 371.198 500.748 372.414 522.339C373.464 541.043 373.949 559.807 375.122 578.488C375.595 586.02 376.573 593.309 379.225 599.744C381.085 604.274 383.578 607.115 387.267 605.743C386.852 608.754 385.357 608.382 384.075 608.038C381.202 607.276 379.234 604.426 377.835 600.538C376.294 596.251 375.36 591.578 374.591 586.846C372.66 575.175 371.437 563.239 370.937 551.201C370.139 530.647 368.986 510.144 367.164 489.733C366.372 480.837 365.971 471.832 365.713 462.845C365.382 451.269 364.703 439.725 364.207 428.163C363.98 422.834 363.829 417.506 363.574 412.181C363.232 405.039 363.014 397.865 362.756 390.714C362.303 378.234 361.412 365.795 360.292 353.403C359.912 349.18 359.517 344.925 359.456 340.67C359.407 337.246 357.752 327.424 355.715 326.501C355.715 324.908 355.257 322.972 356.586 322.173C357.915 321.374 359.305 320.58 360.765 321.255C361.458 321.576 361.368 322.673 361.392 323.55C361.455 326.4 361.505 329.246 361.56 332.128Z" fill="#010101"/>
<path d="M502.87 19.4033H443.124C439.401 19.4033 436.383 24.177 436.383 30.0656V201.481C436.383 207.37 439.401 212.143 443.124 212.143H502.87C506.594 212.143 509.612 207.37 509.612 201.481V30.0656C509.612 24.177 506.594 19.4033 502.87 19.4033Z" fill="#FF5252"/>
<path d="M496.964 29.4506H449.311C445.05 29.4506 441.595 34.9147 441.595 41.6552V191.759C441.595 198.5 445.05 203.964 449.311 203.964H496.964C501.226 203.964 504.681 198.5 504.681 191.759V41.6552C504.681 34.9147 501.226 29.4506 496.964 29.4506Z" fill="url(#paint0_linear_1_7471)"/>
<path d="M499.321 184.971V183.433C499.321 181.778 498.472 180.436 497.426 180.436H449.277C448.23 180.436 447.382 181.778 447.382 183.433V184.971C447.382 186.626 448.23 187.968 449.277 187.968H497.426C498.472 187.968 499.321 186.626 499.321 184.971Z" fill="#8FEAA9"/>
<path d="M494.599 320.167C494.599 341.51 495.325 362.807 496.123 384.1C496.764 401.193 497.258 418.304 498.479 435.324C500.099 457.911 500.511 480.663 501.962 503.254C502.803 508.418 502.754 513.701 502.757 518.98C502.65 521.733 502.983 524.52 502.56 527.241C502.226 533.126 503.245 538.886 503.14 544.752C503.41 548.708 503.549 552.665 503.091 556.612C502.722 561.803 502.49 567.041 501.947 572.181C501.236 578.924 499.774 585.203 496.877 590.339C495.136 589.88 495.397 587.847 495.806 586.121C499.779 569.303 498.999 551.889 498.372 534.438C497.902 521.55 497.44 508.657 497.057 495.755C496.599 480.369 495.569 465.043 494.663 449.704C493.967 437.935 493.685 426.112 493.157 414.32C492.071 390.108 491.485 365.841 491.093 341.593C490.838 325.785 490.13 309.996 490.615 294.073C491.233 273.878 491.485 253.599 490.324 233.39C490.144 230.237 489.721 227.189 487.765 225.555C487.474 225.183 487.739 223.301 487.596 222.723C487.373 221.346 487.437 221.419 487.431 220.02C487.399 212.905 489.007 210.307 493.215 212.432C494.228 212.946 494.846 213.874 494.834 215.728C494.834 216.816 494.834 217.904 494.834 218.991C494.834 251.167 494.834 283.344 494.834 315.522C494.802 317.092 494.976 318.689 494.599 320.167Z" fill="black"/>
<path d="M487.698 224.655C487.048 223.164 487.286 221.41 487.187 219.763C487.071 217.821 487.022 216.022 486.337 214.144C485.466 211.762 486 208.765 485.954 206.034C487.297 204.547 488.821 205.061 490.284 205.011C491.86 204.955 493.438 205.061 495.017 205.038C496.288 205.038 497.167 205.786 497.446 207.966C497.446 209.343 497.429 210.757 497.4 212.152C497.382 212.96 497.24 213.915 496.715 213.952C494.599 214.108 495.058 216.66 495.058 218.688C495.078 243.378 495.148 268.067 495.142 292.751C495.142 301.137 494.965 309.518 494.852 317.9C494.805 318.664 494.722 319.422 494.602 320.167C494.222 316.302 494.39 312.41 494.445 308.536C494.875 278.858 494.335 249.175 494.466 219.492C494.489 214.851 494.213 214.502 491.384 214.443C490.912 214.416 490.441 214.428 489.97 214.48C488.171 214.732 487.846 215.241 487.765 218.151C487.701 220.309 487.715 222.484 487.698 224.655Z" fill="#3F5175"/>
<path d="M659.57 54.6171C662.496 59.1336 663.807 64.5956 663.746 71.0812C663.703 75.4921 664.269 79.9305 664.138 84.3277C663.54 104.464 663.99 124.627 663.503 144.749C663.25 155.127 663.212 165.496 663.093 175.869C662.876 194.637 662.513 213.401 662.339 232.169C662.261 240.39 662.121 248.638 661.88 256.867C661.732 261.797 661.187 266.584 659.593 270.922C657.019 277.935 653.177 281.671 648.029 282.089C645.141 282.319 618.157 284.843 615.908 283.567C613.102 283.998 615.075 279.308 615.374 266.511C615.455 263.045 615.809 259.475 617.559 256.84C617.755 256.44 617.986 256.086 618.244 255.789C619.605 255.013 620.49 253.778 620.876 251.3C621.223 248.835 621.842 246.485 622.705 244.36C623.363 242.813 623.268 241.372 622.705 239.871C622.58 236.842 623.813 233.665 622.319 230.769C621.689 226.055 620.789 221.52 618.883 217.637C616.14 206.846 609.596 201.114 601.377 202.261C590.81 203.753 583.166 215.939 581.677 233.652C580.374 249.161 586.489 264.684 595.994 270.004C596.902 270.513 597.831 270.922 598.745 271.44C601.818 273.125 604.349 278.486 601.847 282.14C600.106 283.278 560.776 282.631 557.587 282.14C551.603 277.329 547.879 273.52 547.897 259.911C547.963 213.304 547.708 166.689 548.048 120.088C548.158 105.29 548.016 90.4323 548.666 75.6757C549.089 66.0919 551.144 56.9809 557.497 52.6389C560.263 50.7478 563.252 51.0875 566.203 51.037C582.844 50.7432 599.485 50.8442 616.12 50.9681C628.309 51.0553 640.477 52.4599 652.669 52.3451C655.098 52.3176 657.231 54.1903 659.57 54.6171Z" fill="#BAC9EC"/>
<path d="M544.191 130.869C544.966 123.172 544.945 104.73 544.983 102.999C545.209 92.9017 545.688 82.8498 545.688 72.7749C545.688 64.0265 548.32 58.0045 552.607 53.3411C555.645 50.0364 559.096 48.7512 562.764 48.7512C590.416 48.791 618.068 48.8323 645.721 48.8751C648.137 48.8739 650.551 49.093 652.95 49.5315C655.562 50.0134 657.774 51.5924 659.567 54.6263C658.725 54.3342 657.867 54.1804 657.005 54.1673C649.183 53.7359 641.11 54.2637 633.289 53.8644C611.166 52.7215 589.04 52.0973 566.908 52.8271C564.783 52.8795 562.661 53.1231 560.553 53.5569C557.561 54.204 554.049 56.7698 552.485 61.0384C550.387 66.7667 550.001 72.2149 549.911 79.1136C549.127 139.434 549.217 199.76 549.2 260.085C549.2 262.839 549.2 265.515 549.905 268.168C551.33 273.469 553.149 278.541 556.954 279.946C557.308 280.074 560.727 281.85 561.052 282.158C558.896 283.076 555.178 282.236 553.625 281.809C546.695 279.904 542.751 269.875 543.5 257.941C543.816 252.893 543.584 246.568 543.604 241.537C543.721 212.57 543.982 188.579 543.895 159.602C543.88 152.102 543.999 138.236 544.191 130.869Z" fill="#2B3954"/>
<path d="M616.076 310.918C616.21 322.678 611.389 327.3 607.039 325.937C603.411 324.798 600.875 319.575 600.907 313.727C600.968 302.758 601.031 271.225 599.505 267.117C599.215 265.506 598.034 264.891 597.064 264.014C593.117 260.448 592.131 254.894 592.94 248.193C593.521 245.943 593.152 243.369 593.849 241.147C594.548 236.631 595.616 232.389 597.537 228.777C598.64 226.781 599.688 224.706 600.802 222.714C602.082 220.419 603.51 218.45 605.469 217.738C606.505 217.582 607.5 216.756 608.574 217.215C611.476 217.302 613.02 220.713 614.796 223.554C616.387 226.198 617.144 229.736 618.653 232.472C619.297 234.34 619.364 236.511 619.939 238.439C620.85 240.867 619.556 243.91 620.824 246.242C620.923 246.735 620.965 247.253 620.946 247.77C620.946 251.259 620.656 254.595 618.964 257.193C617.353 260.08 616.848 263.619 616.738 267.291C616.323 281.052 616.032 310.317 616.076 310.918Z" fill="#2B3954"/>
<path d="M595.163 241.551C594.777 243.732 594.401 245.911 594.037 248.087C592.604 250.299 591.135 247.421 589.684 248.036C590.236 255.738 596.153 265.386 600.367 265.551C600.746 266.249 600.953 267.141 600.947 268.062C600.904 276.108 600.46 274.433 597.384 273.207C580.308 266.4 575.476 233.619 584.905 214.273C589.232 205.405 594.807 199.971 601.882 199.842C609.236 199.709 615.377 204.432 619.8 214.048C620.217 214.966 620.548 215.847 620.113 216.967C620.42 221.308 620.041 225.702 619.01 229.755C618.639 231.237 618.447 233.009 617.193 233.426C616.242 230.434 615.005 227.73 613.801 224.986C613.696 221.961 613.566 218.955 614.001 215.925C614.315 213.768 614.138 211.652 612.782 210.28C611.285 208.76 610.199 209.486 609.958 212.276C609.758 214.612 610.214 217.284 608.507 218.753L605.605 219.579C604.267 217.61 604.259 214.989 604.198 212.4C604.154 210.482 603.884 208.545 602.439 208.292C600.767 207.998 599.099 208.591 597.955 210.656C596.966 212.437 597.889 214.158 598.573 215.553C599.882 218.211 600.985 221.006 601.595 224.274C600.641 226.11 599.685 227.946 598.727 229.782C596.58 229.231 595.683 226.349 594.461 224.072C591.968 219.427 590.738 219.744 589.287 225.408C587.691 231.655 587.928 233.137 591.539 236.515C592.943 237.803 594.175 239.514 595.163 241.551Z" fill="#3F5175"/>
<path d="M632.493 70.9894C631.643 70.0026 630.659 70.1861 629.698 70.1861C627.571 70.1861 625.447 70.2091 623.314 70.1861C607.788 70.1081 592.261 69.7685 576.732 70.255C574.12 69.9108 571.508 72.2516 570.73 75.7308C570.301 77.631 570.269 79.6138 570.211 81.6058C569.973 89.8401 570.118 98.0881 569.776 106.327C569.456 113.942 569.436 121.593 569.485 129.226C569.529 134.693 571.807 138.043 575.29 138.062C593.703 138.162 612.116 138.216 630.529 138.222C634.838 138.222 636.768 135.317 636.913 128.905C637.023 123.714 636.954 118.513 637.073 113.327C637.319 102.646 637.392 91.9882 637.407 81.2707C637.427 73.2706 632.476 70.994 632.493 70.9894ZM633.703 117.907C633.875 126.238 632.946 127.413 627.583 127.5C610.8 127.776 594.026 126.903 577.249 126.545C573.49 126.463 572.942 125.696 572.872 119.908C572.744 109.219 572.951 98.515 572.782 87.8297C572.692 82.0832 578.34 74.3125 578.694 74.06C579.086 74.1167 579.479 74.1412 579.872 74.1335C595.706 74.3446 611.541 74.3446 627.377 74.1335C628.422 74.1335 629.559 74.1335 630.279 72.7565C630.301 73.0258 630.359 73.2848 630.448 73.5165C630.538 73.7482 630.657 73.9475 630.798 74.1013C634.089 77.1353 634.368 81.9776 634.371 87.2422C634.377 97.4823 633.492 107.653 633.703 117.907Z" fill="#4D5B77"/>
<path d="M617.225 233.422C617.948 227.827 618.43 222.122 620.145 216.967C621.982 221.181 623.54 225.578 623.712 230.861C623.448 233.72 623.001 236.428 621.465 238.356C620.508 239.563 619.57 240.412 618.488 238.719C618.293 236.819 617.768 235.116 617.225 233.422Z" fill="#8FEAA9"/>
<path d="M618.488 238.719C619.602 238.801 620.171 237.498 620.786 236.383C621.782 234.57 622.739 232.711 623.712 230.875C624.55 233.863 625.119 236.842 623.622 239.77C622.766 245.512 622.171 246.49 619.634 246.324C618.891 243.915 619.062 241.174 618.488 238.719Z" fill="#3F5175"/>
<path d="M619.625 246.311C621.256 244.585 622.203 241.817 623.613 239.756C623.764 240.302 624.08 240.885 624.04 241.395C623.564 247.449 622.638 253.195 619.35 257.17C619.332 253.824 619.06 250.464 619.506 247.132C619.559 246.861 619.599 246.586 619.625 246.311Z" fill="#8FEAA9"/>
<path d="M619.515 247.132C619.66 250.487 619.805 253.843 619.361 257.17H618.964C619.233 253.833 618.659 250.386 619.515 247.132Z" fill="#8A8A8A"/>
<path d="M595.163 241.551C592.105 240.702 589.905 237.296 587.345 234.969C587.054 234.678 586.826 234.252 586.693 233.75C586.561 233.247 586.529 232.692 586.602 232.16C587.13 226.652 588.343 221.557 590.633 217.224C591.228 216.1 592.041 215.939 592.621 217.133C594.653 221.341 597.279 224.848 598.736 229.759C597.135 233.344 595.927 237.331 595.163 241.551Z" fill="#8FEAA9"/>
<path d="M601.603 224.247C601.267 224.169 600.946 223.977 600.662 223.685C600.377 223.393 600.136 223.007 599.955 222.553C598.533 219.469 597.073 216.421 595.692 213.286C594.699 211.037 594.798 210.335 596.272 208.884C598.356 206.823 600.692 205.841 603.086 205.212C604.183 204.914 605.077 205.511 605.245 207.383C605.614 211.427 606.168 215.471 605.625 219.593C604.047 220.639 602.775 222.342 601.603 224.247Z" fill="#8FEAA9"/>
<path d="M608.528 218.748C608.552 215.546 608.445 212.345 608.208 209.164C608.011 206.351 608.679 205.566 610.458 206.19C611.302 206.515 612.125 206.965 612.916 207.535C615.986 209.651 616.311 210.427 615.577 215.494C615.113 218.707 615.383 222.273 613.836 224.981C612.449 222.193 610.616 220.042 608.528 218.748Z" fill="#8FEAA9"/>
<path d="M600.378 265.551C599.961 267.993 598.948 267.002 598.109 266.433C594.171 263.861 590.933 259.175 588.964 253.2C587.857 250.044 587.11 246.604 586.759 243.038C589.687 243.878 591.669 246.71 594.037 248.087C594.066 248.391 594.079 248.698 594.075 249.005C593.605 256.959 595.781 262.403 600.378 265.551Z" fill="#8FEAA9"/>
<path d="M576.636 71.9073C580.676 71.9349 584.716 71.9762 588.758 71.9854C601.458 72.019 614.16 72.042 626.863 72.0542C628.114 72.0542 629.362 71.9578 630.613 71.9073C631.24 72.3067 631.869 72.706 632.499 73.0961C634.757 74.4731 635.799 77.1536 635.776 80.9219C635.747 86.4298 635.857 91.9377 635.628 97.4226C635.253 106.433 635.404 115.443 635.337 124.457C635.297 129.694 635.297 129.763 631.878 129.717C613.022 129.475 594.166 129.209 575.31 128.918C572.602 128.877 572.547 128.772 572.556 124.512C572.579 110.13 572.617 95.7672 572.669 81.4222C572.678 76.8736 573.679 73.3761 576.636 71.9073Z" fill="#2B3954"/>
<path d="M624.124 124.802C610.162 125.375 596.185 125.123 581.988 123.03C581.745 123 581.519 122.827 581.353 122.544C581.188 122.262 581.096 121.891 581.096 121.506C581.096 121.121 581.188 120.75 581.353 120.468C581.519 120.185 581.745 120.012 581.988 119.982C592.546 118.435 614.288 119.28 624.251 121.887C624.478 121.95 624.681 122.143 624.822 122.428C624.964 122.714 625.033 123.073 625.018 123.435C625.002 123.797 624.902 124.138 624.737 124.39C624.571 124.642 624.353 124.789 624.124 124.802Z" fill="#9BFF5A"/>
<path d="M57.9838 172.601H47.9483C47.0122 172.601 46.2534 173.801 46.2534 175.282C46.2534 176.762 47.0122 177.962 47.9483 177.962H57.9838C58.9198 177.962 59.6786 176.762 59.6786 175.282C59.6786 173.801 58.9198 172.601 57.9838 172.601Z" fill="#9DB3FF"/>
<path d="M57.9838 184.631H47.9483C47.0122 184.631 46.2534 185.831 46.2534 187.312C46.2534 188.792 47.0122 189.992 47.9483 189.992H57.9838C58.9198 189.992 59.6786 188.792 59.6786 187.312C59.6786 185.831 58.9198 184.631 57.9838 184.631Z" fill="#9DB3FF"/>
<path d="M69.7202 160.433L69.6738 162.31L69.639 162.402C53.4103 155.563 40.107 162.402 40.107 162.402L40.0722 162.324L40.0112 160.208C40.1563 159.211 40.3218 158.273 40.5075 157.395C53.033 152.295 64.3281 155.155 69.0556 156.835C69.3442 158.001 69.5666 159.205 69.7202 160.433Z" fill="#9DB3FF"/>
</g>
<defs>
<linearGradient id="paint0_linear_1_7471" x1="444.027" y1="47.4706" x2="512.244" y2="112.334" gradientUnits="userSpaceOnUse">
<stop stop-color="#3F5175"/>
<stop offset="0.32" stop-color="#182237"/>
<stop offset="0.73" stop-color="#9DB5EA"/>
<stop offset="0.76" stop-color="#94ABDE"/>
<stop offset="0.82" stop-color="#7D91BF"/>
<stop offset="0.89" stop-color="#57678C"/>
<stop offset="0.98" stop-color="#232E46"/>
<stop offset="1" stop-color="#182237"/>
</linearGradient>
<clipPath id="clip0_1_7471">
<rect width="805.35" height="845" fill="white" transform="translate(0.150391 0.410156)"/>
</clipPath>
</defs>
</svg>
