<svg width="21" height="16" viewBox="0 0 21 16" fill="none" xmlns="http://www.w3.org/2000/svg">
<path d="M21 8.05078L1 8.05078" stroke="#0E5543" stroke-width="1.2" stroke-linecap="round"/>
<path d="M11.297 15.9995C11.297 16.3309 11.5656 16.5995 11.897 16.5995C12.2283 16.5995 12.497 16.3309 12.497 15.9995H11.297ZM12.497 15.9995C12.497 15.1197 12.914 13.2645 14.1951 11.6394C15.452 10.045 17.5558 8.65079 20.9995 8.65079V7.45079C17.1783 7.45079 14.7309 9.02135 13.2527 10.8965C11.7987 12.7409 11.297 14.8601 11.297 15.9995H12.497Z" fill="#0E5543"/>
<path d="M20.9995 7.45077C21.3309 7.45077 21.5995 7.7194 21.5995 8.05077C21.5995 8.38214 21.3309 8.65077 20.9995 8.65077V7.45077ZM12.497 0.102051C12.497 0.981838 12.914 2.83705 14.1951 4.46218C15.452 6.05658 17.5558 7.45077 20.9995 7.45077V8.65077C17.1783 8.65077 14.7309 7.08021 13.2527 5.20507C11.7987 3.36064 11.297 1.24149 11.297 0.102051L12.497 0.102051Z" fill="#0E5543"/>
</svg>
