<svg width="194" height="216" viewBox="0 0 194 216" fill="none" xmlns="http://www.w3.org/2000/svg">
<g filter="url(#filter0_f_769_24174)">
<rect x="24.4004" y="179" width="124" height="12" fill="#032B2B"/>
</g>
<rect x="25.4004" y="15" width="124" height="79" fill="#85C0C0"/>
<path fill-rule="evenodd" clip-rule="evenodd" d="M25.4004 15V135H5.40039V62.4366L15.402 47.0864L25.4004 15Z" fill="#086B6B"/>
<path fill-rule="evenodd" clip-rule="evenodd" d="M148.4 15V135H168.4V62.4366L158.399 47.0864L148.4 15Z" fill="#086B6B"/>
<path d="M5.40039 62H168.4V198C168.4 200.761 166.162 203 163.4 203H10.4004C7.63897 203 5.40039 200.761 5.40039 198V62Z" fill="#5CAAAA"/>
<path opacity="0.5" fill-rule="evenodd" clip-rule="evenodd" d="M54.4004 117.548C54.4004 116.848 54.7598 116.197 55.3815 115.876C56.7652 115.161 59.409 114 61.9782 114C64.5464 114 67.1147 115.16 68.4529 115.875C69.0559 116.197 69.4004 116.835 69.4004 117.519C69.4004 119.129 67.5461 120.185 66.0311 119.639C64.8141 119.201 63.3831 118.846 61.9404 118.846C60.4691 118.846 58.9978 119.215 57.7507 119.665C56.2385 120.211 54.4004 119.155 54.4004 117.548Z" fill="#032B2B"/>
<path opacity="0.5" fill-rule="evenodd" clip-rule="evenodd" d="M105.4 117.548C105.4 116.848 105.76 116.197 106.382 115.876C107.765 115.161 110.409 114 112.978 114C115.546 114 118.115 115.16 119.453 115.875C120.056 116.197 120.4 116.835 120.4 117.519C120.4 119.129 118.546 120.185 117.031 119.639C115.814 119.201 114.383 118.846 112.94 118.846C111.469 118.846 109.998 119.215 108.751 119.665C107.239 120.211 105.4 119.155 105.4 117.548Z" fill="#032B2B"/>
<ellipse opacity="0.5" cx="87.4004" cy="138.003" rx="16" ry="7.00303" fill="#032B2B"/>
<circle opacity="0.149343" cx="50.4004" cy="77" r="6" fill="#032B2B"/>
<circle opacity="0.149343" cx="123.4" cy="77" r="6" fill="#032B2B"/>
<path d="M50.4004 76.6926V39.5C50.4004 19.3416 66.742 3 86.9004 3C107.059 3 123.4 19.3416 123.4 39.5V76.6926" stroke="#F4F4F3" stroke-width="5" stroke-linecap="round" stroke-linejoin="round"/>
<g filter="url(#filter1_d_769_24174)">
<circle cx="168" cy="175.6" r="17.6" fill="#CC7E84"/>
</g>
<path d="M163.161 177.047C163.161 181.007 165.115 183.629 168.406 183.629C171.68 183.629 173.633 181.007 173.633 177.047C173.633 173.104 171.592 170.429 168.406 170.429C165.203 170.429 163.161 173.104 163.161 177.047ZM164.868 177.047C164.868 173.879 166.171 171.978 168.406 171.978C170.641 171.978 171.926 173.879 171.926 177.047C171.926 180.18 170.641 182.08 168.406 182.08C166.171 182.08 164.868 180.18 164.868 177.047Z" fill="white"/>
<defs>
<filter id="filter0_f_769_24174" x="0.213446" y="154.813" width="172.374" height="60.3739" filterUnits="userSpaceOnUse" color-interpolation-filters="sRGB">
<feFlood flood-opacity="0" result="BackgroundImageFix"/>
<feBlend mode="normal" in="SourceGraphic" in2="BackgroundImageFix" result="shape"/>
<feGaussianBlur stdDeviation="12.0935" result="effect1_foregroundBlur_769_24174"/>
</filter>
<filter id="filter1_d_769_24174" x="142.4" y="152" width="51.2002" height="51.2002" filterUnits="userSpaceOnUse" color-interpolation-filters="sRGB">
<feFlood flood-opacity="0" result="BackgroundImageFix"/>
<feColorMatrix in="SourceAlpha" type="matrix" values="0 0 0 0 0 0 0 0 0 0 0 0 0 0 0 0 0 0 127 0" result="hardAlpha"/>
<feOffset dy="2"/>
<feGaussianBlur stdDeviation="4"/>
<feColorMatrix type="matrix" values="0 0 0 0 1 0 0 0 0 0.415686 0 0 0 0 0.596078 0 0 0 0.3 0"/>
<feBlend mode="normal" in2="BackgroundImageFix" result="effect1_dropShadow_769_24174"/>
<feBlend mode="normal" in="SourceGraphic" in2="effect1_dropShadow_769_24174" result="shape"/>
</filter>
</defs>
</svg>
