<svg width="335" height="303" viewBox="0 0 335 303" fill="none" xmlns="http://www.w3.org/2000/svg">
<g filter="url(#filter0_f_769_24173)">
<rect x="96.4004" y="179" width="124" height="12" fill="#032B2B"/>
</g>
<rect x="97.4004" y="15" width="124" height="79" fill="#85C0C0"/>
<path fill-rule="evenodd" clip-rule="evenodd" d="M97.4004 15V135H77.4004V62.4366L87.402 47.0864L97.4004 15Z" fill="#086B6B"/>
<path fill-rule="evenodd" clip-rule="evenodd" d="M220.4 15V135H240.4V62.4366L230.399 47.0864L220.4 15Z" fill="#086B6B"/>
<path d="M77.4004 62H240.4V198C240.4 200.761 238.162 203 235.4 203H82.4004C79.639 203 77.4004 200.761 77.4004 198V62Z" fill="#5CAAAA"/>
<path opacity="0.5" fill-rule="evenodd" clip-rule="evenodd" d="M126.4 117.548C126.4 116.848 126.76 116.197 127.382 115.876C128.765 115.161 131.409 114 133.978 114C136.546 114 139.115 115.16 140.453 115.875C141.056 116.197 141.4 116.835 141.4 117.519V117.519C141.4 119.129 139.546 120.185 138.031 119.639C136.814 119.201 135.383 118.846 133.94 118.846C132.469 118.846 130.998 119.215 129.751 119.665C128.239 120.211 126.4 119.155 126.4 117.548V117.548Z" fill="#032B2B"/>
<path opacity="0.5" fill-rule="evenodd" clip-rule="evenodd" d="M177.4 117.548C177.4 116.848 177.76 116.197 178.382 115.876C179.765 115.161 182.409 114 184.978 114C187.546 114 190.115 115.16 191.453 115.875C192.056 116.197 192.4 116.835 192.4 117.519V117.519C192.4 119.129 190.546 120.185 189.031 119.639C187.814 119.201 186.383 118.846 184.94 118.846C183.469 118.846 181.998 119.215 180.751 119.665C179.239 120.211 177.4 119.155 177.4 117.548V117.548Z" fill="#032B2B"/>
<ellipse opacity="0.5" cx="159.4" cy="138.003" rx="16" ry="7.00303" fill="#032B2B"/>
<circle opacity="0.149343" cx="122.4" cy="77" r="6" fill="#032B2B"/>
<circle opacity="0.149343" cx="195.4" cy="77" r="6" fill="#032B2B"/>
<path d="M122.4 76.6926V39.5C122.4 19.3416 138.742 3 158.9 3C179.059 3 195.4 19.3416 195.4 39.5V76.6926" stroke="#F4F4F3" stroke-width="5" stroke-linecap="round" stroke-linejoin="round"/>
<g filter="url(#filter1_d_769_24173)">
<circle cx="240" cy="175.6" r="17.6" fill="#CC7E84"/>
</g>
<path d="M235.161 177.047C235.161 181.007 237.115 183.629 240.406 183.629C243.68 183.629 245.633 181.007 245.633 177.047C245.633 173.104 243.592 170.429 240.406 170.429C237.203 170.429 235.161 173.104 235.161 177.047ZM236.868 177.047C236.868 173.879 238.171 171.978 240.406 171.978C242.641 171.978 243.926 173.879 243.926 177.047C243.926 180.18 242.641 182.08 240.406 182.08C238.171 182.08 236.868 180.18 236.868 177.047Z" fill="white"/>
<path d="M10.2 279.24L0.4 262.08H4.8L11.24 273.64C11.64 274.32 11.88 274.88 12.2 275.56C12.56 274.84 12.64 274.6 13.16 273.64L19.56 262.08H23.84L14.12 279.24V291H10.2V279.24ZM22.0025 281.2C22.0025 275.16 26.3225 270.92 32.2025 270.92C38.0425 270.92 42.3625 275.16 42.3625 281.2C42.3625 287.24 38.0425 291.48 32.2025 291.48C26.3225 291.48 22.0025 287.24 22.0025 281.2ZM25.8025 281.2C25.8025 285.28 28.4025 288.12 32.2025 288.12C35.9625 288.12 38.6025 285.28 38.6025 281.2C38.6025 277.12 35.9625 274.28 32.2025 274.28C28.4025 274.28 25.8025 277.12 25.8025 281.2ZM59.8259 271.44H63.5459V291H60.1859L59.7859 288.04C58.6659 290.08 56.0659 291.48 53.1859 291.48C48.6259 291.48 46.0659 288.4 46.0659 283.6V271.44H49.8259V282.36C49.8259 286.56 51.6259 288.16 54.5059 288.16C57.9459 288.16 59.8259 285.96 59.8259 281.76V271.44ZM80.4513 271.28V274.72H78.7713C75.2113 274.72 73.0113 276.88 73.0113 280.64V291H69.2513V271.48H72.7713L73.0113 274.44C73.8113 272.4 75.7713 271.04 78.4513 271.04C79.1313 271.04 79.6913 271.12 80.4513 271.28ZM98.8153 291H95.4153V261.56H99.1753V274.8C100.455 272.24 103.095 270.88 106.295 270.88C111.895 270.88 115.255 275.28 115.255 281.32C115.255 287.24 111.735 291.48 106.055 291.48C102.975 291.48 100.375 290.12 99.0953 287.44L98.8153 291ZM99.2153 281.16C99.2153 285.24 101.535 288.08 105.375 288.08C109.215 288.08 111.495 285.2 111.495 281.16C111.495 277.16 109.215 274.28 105.375 274.28C101.535 274.28 99.2153 277.16 99.2153 281.16ZM125.37 291.48C121.17 291.48 118.69 289.12 118.69 285.56C118.69 281.96 121.37 279.72 125.97 279.36L132.13 278.88V278.32C132.13 275.04 130.17 273.88 127.53 273.88C124.37 273.88 122.57 275.28 122.57 277.64H119.29C119.29 273.56 122.65 270.88 127.69 270.88C132.53 270.88 135.81 273.44 135.81 278.72V291H132.61L132.21 287.84C131.21 290.08 128.53 291.48 125.37 291.48ZM126.45 288.56C130.01 288.56 132.17 286.24 132.17 282.56V281.52L127.17 281.92C123.85 282.24 122.49 283.52 122.49 285.44C122.49 287.52 124.01 288.56 126.45 288.56ZM140.027 280.72C140.027 275.2 143.587 270.88 149.267 270.88C152.427 270.88 154.867 272.32 156.107 274.76L156.387 271.44H159.747V290.2C159.747 296.36 155.947 300.28 149.947 300.28C144.627 300.28 140.987 297.28 140.267 292.32H144.027C144.507 295.2 146.667 296.88 149.947 296.88C153.627 296.88 156.027 294.48 156.027 290.76V286.84C154.747 289.12 152.187 290.48 149.107 290.48C143.547 290.48 140.027 286.2 140.027 280.72ZM143.787 280.64C143.787 284.32 146.067 287.2 149.747 287.2C153.547 287.2 155.867 284.48 155.867 280.64C155.867 276.88 153.627 274.16 149.787 274.16C146.027 274.16 143.787 277.04 143.787 280.64ZM178.451 266.8C177.091 266.8 175.971 265.68 175.971 264.32C175.971 262.92 177.091 261.84 178.451 261.84C179.811 261.84 180.931 262.92 180.931 264.32C180.931 265.68 179.811 266.8 178.451 266.8ZM176.611 291V271.44H180.371V291H176.611ZM184.479 285.32H188.079C188.079 287.32 189.599 288.52 192.079 288.52C194.719 288.52 196.239 287.44 196.239 285.64C196.239 284.32 195.599 283.52 193.559 283L190.119 282.2C186.639 281.36 184.999 279.64 184.999 276.76C184.999 273.16 188.039 270.88 192.359 270.88C196.639 270.88 199.439 273.28 199.519 277H195.919C195.839 275.04 194.519 273.8 192.239 273.8C189.879 273.8 188.559 274.84 188.559 276.64C188.559 277.96 189.519 278.84 191.439 279.32L194.879 280.16C198.199 280.96 199.839 282.48 199.839 285.4C199.839 289.12 196.639 291.48 191.999 291.48C187.399 291.48 184.479 289.04 184.479 285.32ZM223.887 291.48C218.127 291.48 214.167 287.32 214.167 281.24C214.167 275.12 218.047 270.88 223.727 270.88C229.287 270.88 232.927 274.72 232.927 280.52V281.92L217.807 281.96C218.087 286.08 220.247 288.36 223.967 288.36C226.887 288.36 228.807 287.16 229.447 284.92H232.967C232.007 289.12 228.727 291.48 223.887 291.48ZM223.727 274.04C220.447 274.04 218.367 276 217.887 279.44H229.167C229.167 276.2 227.047 274.04 223.727 274.04ZM241.136 291H237.376V271.44H240.736L241.096 274C242.096 272.16 244.176 270.88 246.936 270.88C249.976 270.88 252.136 272.4 253.136 274.84C254.056 272.4 256.416 270.88 259.456 270.88C263.936 270.88 266.656 273.68 266.656 278.2V291H262.976V279.12C262.976 276.04 261.256 274.28 258.616 274.28C255.776 274.28 253.896 276.28 253.896 279.4V291H250.176V279.08C250.176 276 248.496 274.32 245.856 274.32C243.016 274.32 241.136 276.28 241.136 279.4V291ZM272.118 299.76V271.44H275.518L275.798 274.96C277.118 272.28 279.758 270.88 282.878 270.88C288.478 270.88 291.958 275.08 291.958 281.08C291.958 287.04 288.678 291.52 282.878 291.52C279.758 291.52 277.158 290.2 275.878 287.8V299.76H272.118ZM275.918 281.24C275.918 285.24 278.238 288.12 282.078 288.12C285.918 288.12 288.198 285.24 288.198 281.24C288.198 277.2 285.918 274.32 282.078 274.32C278.238 274.32 275.918 277.16 275.918 281.24ZM301.678 291H297.918V274.6H294.078V271.44H297.918V265.32H301.678V271.44H305.518V274.6H301.678V291ZM307.262 299.76V296.68H309.782C311.582 296.68 313.022 296.4 313.942 293.92L314.622 292.04L306.742 271.44H310.702L316.382 287.2L322.182 271.44H326.062L316.822 295.4C315.502 298.76 313.542 300.16 310.542 300.16C309.302 300.16 308.262 300 307.262 299.76ZM328.793 291.48C327.233 291.48 325.913 290.2 325.913 288.68C325.913 287.12 327.233 285.84 328.793 285.84C330.313 285.84 331.633 287.12 331.633 288.68C331.633 290.2 330.313 291.48 328.793 291.48Z" fill="#6C6C72"/>
<defs>
<filter id="filter0_f_769_24173" x="72.2134" y="154.813" width="172.374" height="60.3739" filterUnits="userSpaceOnUse" color-interpolation-filters="sRGB">
<feFlood flood-opacity="0" result="BackgroundImageFix"/>
<feBlend mode="normal" in="SourceGraphic" in2="BackgroundImageFix" result="shape"/>
<feGaussianBlur stdDeviation="12.0935" result="effect1_foregroundBlur_769_24173"/>
</filter>
<filter id="filter1_d_769_24173" x="214.4" y="152" width="51.2002" height="51.2002" filterUnits="userSpaceOnUse" color-interpolation-filters="sRGB">
<feFlood flood-opacity="0" result="BackgroundImageFix"/>
<feColorMatrix in="SourceAlpha" type="matrix" values="0 0 0 0 0 0 0 0 0 0 0 0 0 0 0 0 0 0 127 0" result="hardAlpha"/>
<feOffset dy="2"/>
<feGaussianBlur stdDeviation="4"/>
<feColorMatrix type="matrix" values="0 0 0 0 1 0 0 0 0 0.415686 0 0 0 0 0.596078 0 0 0 0.3 0"/>
<feBlend mode="normal" in2="BackgroundImageFix" result="effect1_dropShadow_769_24173"/>
<feBlend mode="normal" in="SourceGraphic" in2="effect1_dropShadow_769_24173" result="shape"/>
</filter>
</defs>
</svg>
