<svg width="476" height="376" viewBox="0 0 476 376" fill="none" xmlns="http://www.w3.org/2000/svg">
<path d="M402.216 115.399C396.736 112.363 394.254 114.889 392.263 112.363C390.272 109.837 397.731 103.291 382.789 96.7333C382.789 96.7333 381.793 82.6094 361.37 82.0992C340.947 81.589 346.427 96.2231 340.947 99.7198C335.466 103.217 333.967 97.7039 328.486 101.238C323.006 104.772 325.5 111.828 321.015 112.836C316.53 113.844 310.557 108.294 305.04 111.828C299.522 115.362 299.559 118.386 297.065 118.386C294.57 118.386 289.593 116.37 286.607 118.386C283.621 120.402 280.131 122.928 280.131 122.928H406.21C406.21 122.928 407.697 118.386 402.216 115.399Z" fill="#5CAAAA"/>
<path opacity="0.5" d="M402.216 115.399C396.736 112.363 394.254 114.889 392.263 112.363C390.272 109.837 397.731 103.291 382.789 96.7333C382.789 96.7333 381.793 82.6094 361.37 82.0992C340.947 81.589 346.427 96.2231 340.947 99.7198C335.466 103.217 333.967 97.7039 328.486 101.238C323.006 104.772 325.5 111.828 321.015 112.836C316.53 113.844 310.557 108.294 305.04 111.828C299.522 115.362 299.559 118.386 297.065 118.386C294.57 118.386 289.593 116.37 286.607 118.386C283.621 120.402 280.131 122.928 280.131 122.928H406.21C406.21 122.928 407.697 118.386 402.216 115.399Z" fill="#5CAAAA"/>
<path d="M293.563 47.0693C290.319 45.2773 288.845 46.7706 287.665 45.2773C286.485 43.7841 290.909 39.8891 282.049 36.0066C282.049 36.0066 281.459 27.6318 269.355 27.2958C257.251 26.9599 260.495 35.6706 257.251 37.7612C254.007 39.8518 253.122 36.5168 249.878 38.6572C246.634 40.7975 248.109 44.9413 245.454 45.5386C242.8 46.136 239.31 42.8383 236.005 44.9413C232.699 47.0444 232.76 48.8238 231.274 48.8238C229.787 48.8238 226.85 47.5795 225.129 48.8238C223.409 50.0682 221.295 51.5117 221.295 51.5117H295.997C295.997 51.5117 296.82 48.8612 293.563 47.0693Z" fill="#5CAAAA"/>
<path opacity="0.5" d="M293.563 47.0693C290.319 45.2773 288.845 46.7706 287.665 45.2773C286.485 43.7841 290.909 39.8891 282.049 36.0066C282.049 36.0066 281.459 27.6318 269.355 27.2958C257.251 26.9599 260.495 35.6706 257.251 37.7612C254.007 39.8518 253.122 36.5168 249.878 38.6572C246.634 40.7975 248.109 44.9413 245.454 45.5386C242.8 46.136 239.31 42.8383 236.005 44.9413C232.699 47.0444 232.76 48.8238 231.274 48.8238C229.787 48.8238 226.85 47.5795 225.129 48.8238C223.409 50.0682 221.295 51.5117 221.295 51.5117H295.997C295.997 51.5117 296.82 48.8612 293.563 47.0693Z" fill="#5CAAAA"/>
<path d="M256.685 167.153C253.441 165.362 251.966 166.855 250.787 165.362C249.607 163.868 254.031 159.973 245.171 156.091C245.171 156.091 244.581 147.716 232.477 147.38C220.373 147.044 223.617 155.755 220.373 157.845C217.129 159.936 216.232 156.601 213 158.741C209.768 160.882 211.23 164.963 208.576 165.623C205.922 166.282 202.432 162.935 199.126 165.026C195.821 167.116 195.87 168.908 194.395 168.908C192.921 168.908 189.971 167.664 188.251 168.908C186.531 170.152 184.405 171.608 184.405 171.608H259.106C259.106 171.608 259.929 168.945 256.685 167.153Z" fill="#5CAAAA"/>
<path opacity="0.5" d="M256.685 167.153C253.441 165.362 251.966 166.855 250.787 165.362C249.607 163.868 254.031 159.973 245.171 156.091C245.171 156.091 244.581 147.716 232.477 147.38C220.373 147.044 223.617 155.755 220.373 157.845C217.129 159.936 216.232 156.601 213 158.741C209.768 160.882 211.23 164.963 208.576 165.623C205.922 166.282 202.432 162.935 199.126 165.026C195.821 167.116 195.87 168.908 194.395 168.908C192.921 168.908 189.971 167.664 188.251 168.908C186.531 170.152 184.405 171.608 184.405 171.608H259.106C259.106 171.608 259.929 168.945 256.685 167.153Z" fill="#5CAAAA"/>
<g opacity="0.6">
<path d="M402.216 115.399C396.735 112.363 394.253 114.889 392.262 112.363C390.271 109.837 397.73 103.291 382.788 96.7333C382.788 96.7333 381.792 82.6094 361.369 82.0992C340.946 81.589 346.426 96.2231 340.946 99.7198C335.465 103.217 333.966 97.7039 328.485 101.238C323.005 104.772 325.499 111.828 321.014 112.836C316.529 113.844 310.556 108.294 305.039 111.828C299.521 115.362 299.558 118.386 297.064 118.386C294.569 118.386 289.592 116.37 286.606 118.386C283.62 120.402 280.13 122.928 280.13 122.928H406.209C406.209 122.928 407.696 118.386 402.216 115.399Z" fill="white"/>
<path opacity="0.5" d="M402.216 115.399C396.735 112.363 394.253 114.889 392.262 112.363C390.271 109.837 397.73 103.291 382.788 96.7333C382.788 96.7333 381.792 82.6094 361.369 82.0992C340.946 81.589 346.426 96.2231 340.946 99.7198C335.465 103.217 333.966 97.7039 328.485 101.238C323.005 104.772 325.499 111.828 321.014 112.836C316.529 113.844 310.556 108.294 305.039 111.828C299.521 115.362 299.558 118.386 297.064 118.386C294.569 118.386 289.592 116.37 286.606 118.386C283.62 120.402 280.13 122.928 280.13 122.928H406.209C406.209 122.928 407.696 118.386 402.216 115.399Z" fill="white"/>
</g>
<g opacity="0.6">
<path d="M293.562 47.0693C290.318 45.2773 288.843 46.7706 287.664 45.2773C286.484 43.7841 290.908 39.8891 282.048 36.0066C282.048 36.0066 281.458 27.6318 269.354 27.2958C257.25 26.9599 260.494 35.6706 257.25 37.7612C254.006 39.8518 253.121 36.5168 249.877 38.6572C246.633 40.7975 248.107 44.9413 245.453 45.5386C242.799 46.136 239.309 42.8383 236.003 44.9413C232.698 47.0444 232.759 48.8238 231.272 48.8238C229.785 48.8238 226.848 47.5795 225.128 48.8238C223.408 50.0682 221.294 51.5117 221.294 51.5117H295.995C295.995 51.5117 296.818 48.8612 293.562 47.0693Z" fill="white"/>
<path opacity="0.5" d="M293.562 47.0693C290.318 45.2773 288.843 46.7706 287.664 45.2773C286.484 43.7841 290.908 39.8891 282.048 36.0066C282.048 36.0066 281.458 27.6318 269.354 27.2958C257.25 26.9599 260.494 35.6706 257.25 37.7612C254.006 39.8518 253.121 36.5168 249.877 38.6572C246.633 40.7975 248.107 44.9413 245.453 45.5386C242.799 46.136 239.309 42.8383 236.003 44.9413C232.698 47.0444 232.759 48.8238 231.272 48.8238C229.785 48.8238 226.848 47.5795 225.128 48.8238C223.408 50.0682 221.294 51.5117 221.294 51.5117H295.995C295.995 51.5117 296.818 48.8612 293.562 47.0693Z" fill="white"/>
</g>
<g opacity="0.6">
<path d="M256.686 167.153C253.441 165.361 251.967 166.855 250.787 165.361C249.607 163.868 254.031 159.973 245.171 156.091C245.171 156.091 244.582 147.716 232.477 147.38C220.373 147.044 223.618 155.755 220.373 157.845C217.129 159.936 216.232 156.601 213 158.741C209.769 160.882 211.231 164.963 208.577 165.623C205.922 166.282 202.432 162.935 199.127 165.025C195.821 167.116 195.87 168.908 194.396 168.908C192.921 168.908 189.972 167.664 188.252 168.908C186.531 170.152 184.405 171.608 184.405 171.608H259.106C259.106 171.608 259.93 168.945 256.686 167.153Z" fill="white"/>
<path opacity="0.5" d="M256.686 167.153C253.441 165.361 251.967 166.855 250.787 165.361C249.607 163.868 254.031 159.973 245.171 156.091C245.171 156.091 244.582 147.716 232.477 147.38C220.373 147.044 223.618 155.755 220.373 157.845C217.129 159.936 216.232 156.601 213 158.741C209.769 160.882 211.231 164.963 208.577 165.623C205.922 166.282 202.432 162.935 199.127 165.025C195.821 167.116 195.87 168.908 194.396 168.908C192.921 168.908 189.972 167.664 188.252 168.908C186.531 170.152 184.405 171.608 184.405 171.608H259.106C259.106 171.608 259.93 168.945 256.686 167.153Z" fill="white"/>
</g>
<path d="M365.326 368.571H428.648C427.419 360.731 422.504 362.113 421.804 349.905C421.472 343.783 427.063 336.217 426.571 328.166C426.178 321.545 419.727 314.751 419.198 307.173C418.756 300.341 424.249 292.75 423.721 285.383C423.217 278.415 416.679 271.695 416.102 264.49C415.524 257.285 420.931 249.756 420.292 242.614C419.653 235.471 413.005 228.925 412.292 221.87C411.567 214.627 416.79 206.837 415.979 199.918C415.131 192.564 408.274 186.23 407.377 179.436C406.333 171.895 411.186 163.831 410.056 157.323C408.667 149.346 401.331 143.572 399.783 137.686C396.907 126.723 397.325 116.146 393.872 115.461C390.247 114.727 389.424 125.081 386.683 136.616C385.295 142.44 378.082 148.338 376.951 156.315C375.992 162.786 381.068 170.638 380.232 178.154C379.495 184.886 372.859 191.345 372.159 198.662C371.556 205.543 376.976 213.121 376.435 220.314C375.919 227.308 369.443 234.002 368.988 241.071C368.533 248.139 374.137 255.605 373.756 262.623C373.375 269.642 366.997 276.586 366.678 283.504C366.334 290.809 372.023 298.188 371.753 304.97C371.446 312.437 365.166 319.38 364.933 325.951C364.65 333.927 370.438 341.282 370.266 347.354C369.873 360.532 363.913 357.807 363.704 368.409L365.326 368.571Z" fill="#5CAAAA"/>
<path d="M392.508 136.591V365.609" stroke="#032B2B" stroke-miterlimit="10"/>
<path d="M402.401 160.596L392.091 169.617L383.649 158.219" stroke="#032B2B" stroke-miterlimit="10"/>
<path d="M402.401 200.466L392.091 209.475L383.649 198.089" stroke="#032B2B" stroke-miterlimit="10"/>
<path d="M402.401 237.947L392.091 246.969L383.649 235.583" stroke="#032B2B" stroke-miterlimit="10"/>
<path d="M402.401 282.558L392.091 291.58L383.649 280.194" stroke="#032B2B" stroke-miterlimit="10"/>
<path d="M402.401 327.643L392.091 336.665L383.649 325.279" stroke="#032B2B" stroke-miterlimit="10"/>
<path d="M298.724 368.571H353.641C352.584 361.776 348.271 362.971 347.693 352.394C347.41 347.08 352.264 340.51 351.847 333.541C351.49 327.805 345.899 321.906 345.469 315.336C345.076 309.412 349.856 302.83 349.389 296.433C348.946 290.398 343.245 284.599 342.778 278.327C342.311 272.056 346.968 265.548 346.464 259.35C345.96 253.153 340.136 247.466 339.534 241.369C338.895 235.085 343.417 228.328 342.729 222.33C341.991 215.946 336.056 210.446 335.245 204.572C334.348 198.027 338.563 191.033 337.58 185.396C336.351 178.477 330.01 173.462 328.671 168.36C326.213 158.853 326.496 149.694 323.546 149.097C320.401 148.45 319.688 157.435 317.304 167.489C316.075 172.467 309.931 177.644 308.874 184.562C308.038 190.175 312.438 197.006 311.713 203.502C311.074 209.338 305.286 214.938 304.721 221.284C304.192 227.245 308.886 233.828 308.407 240.062C307.928 246.297 302.349 251.909 301.956 258.056C301.562 264.204 306.416 270.662 306.085 276.722C305.753 282.782 300.223 288.83 299.94 294.828C299.645 301.175 304.585 307.571 304.34 313.494C304.082 320.015 298.638 325.938 298.441 331.687C298.195 338.606 303.209 344.99 303.062 350.253C302.718 361.677 297.556 359.313 297.372 368.509L298.724 368.571Z" fill="#5CAAAA"/>
<path d="M322.268 167.402V366.008" stroke="#032B2B" stroke-miterlimit="10"/>
<path d="M330.845 188.221L321.911 196.048L314.587 186.168" stroke="#032B2B" stroke-miterlimit="10"/>
<path d="M330.845 222.79L321.911 230.618L314.587 220.737" stroke="#032B2B" stroke-miterlimit="10"/>
<path d="M330.845 255.306L321.911 263.121L314.587 253.253" stroke="#032B2B" stroke-miterlimit="10"/>
<path d="M330.845 293.995L321.911 301.809L314.587 291.929" stroke="#032B2B" stroke-miterlimit="10"/>
<path d="M330.845 333.081L321.911 340.908L314.587 331.028" stroke="#032B2B" stroke-miterlimit="10"/>
<path d="M105.402 368.571H181.787C180.325 359.113 174.316 360.781 173.517 346.172C173.124 338.78 179.87 329.646 179.28 319.952C178.801 311.963 171.022 303.775 170.42 294.629C169.88 286.379 176.564 277.207 175.876 268.335C175.262 259.935 167.373 251.872 166.685 243.136C165.996 234.624 172.497 225.378 171.735 216.755C170.973 208.131 162.937 200.229 162.089 191.743C161.216 183.032 167.508 173.612 166.549 165.249C165.517 156.389 157.259 148.724 156.141 140.548C154.912 131.452 160.749 121.733 159.373 113.881C157.702 104.262 148.854 97.293 146.986 90.2373C143.521 77.0094 143.951 64.2544 139.859 63.4206C135.484 62.5371 134.489 75.0433 131.183 89.0054C129.512 96.0237 120.861 103.142 119.448 112.761C118.293 120.563 124.363 130.045 123.405 139.105C122.508 147.218 114.459 155.02 113.672 163.843C112.935 172.131 119.473 181.265 118.834 189.975C118.207 198.4 110.391 206.439 109.851 215C109.31 223.562 115.995 232.546 115.589 240.996C115.11 249.706 107.442 257.845 107.049 266.182C106.631 275.005 113.5 283.902 113.193 292.078C112.825 301.15 105.255 309.499 104.972 317.376C104.64 326.996 111.62 335.881 111.399 343.198C110.932 359.101 103.743 355.803 103.485 368.596L105.402 368.571Z" fill="#5CAAAA"/>
<path d="M138.188 88.7566V365" stroke="#032B2B" stroke-miterlimit="10"/>
<path d="M150.12 117.726L137.684 128.602L127.509 114.864" stroke="#032B2B" stroke-miterlimit="10"/>
<path d="M150.12 165.797L137.684 176.673L127.509 162.948" stroke="#032B2B" stroke-miterlimit="10"/>
<path d="M150.12 211.018L137.684 221.894L127.509 208.156" stroke="#032B2B" stroke-miterlimit="10"/>
<path d="M150.12 264.826L137.684 275.702L127.509 261.964" stroke="#032B2B" stroke-miterlimit="10"/>
<path d="M150.12 319.206L137.684 330.082L127.509 316.344" stroke="#032B2B" stroke-miterlimit="10"/>
<path d="M88.5923 283.093V350.502C88.5923 353.746 89.8649 356.858 92.1303 359.152C94.3956 361.446 97.4681 362.734 100.672 362.734H238.732C241.935 362.734 245.008 361.446 247.273 359.152C249.539 356.858 250.811 353.746 250.811 350.502V342.824" stroke="#032B2B" stroke-width="2" stroke-linecap="round" stroke-linejoin="round"/>
<path d="M92.9538 269.927H82.6685V277.605H92.9538V269.927Z" fill="#032B2B" stroke="#032B2B" stroke-linecap="round" stroke-linejoin="round"/>
<path d="M83.9595 233.118H33.356V372.291H83.9595V233.118Z" fill="white"/>
<mask id="mask0_1_2827" style="mask-type:luminance" maskUnits="userSpaceOnUse" x="33" y="233" width="51" height="140">
<path d="M83.96 233.118H33.3564V372.291H83.96V233.118Z" fill="white"/>
</mask>
<g mask="url(#mask0_1_2827)">
<path d="M33.3564 372.291H55.9302V251.535L55.795 233.118H33.3564V372.291Z" fill="#5CAAAA"/>
<path opacity="0.5" d="M33.3564 372.291H55.9302V251.535L55.795 233.118H33.3564V372.291Z" fill="white"/>
<path d="M65.786 299.133H62.2347L64.8521 291.928H56.3117L52.6497 302.02H55.218L50.7573 314.265L65.786 299.133Z" fill="#032B2B"/>
</g>
<path d="M83.9595 233.118H33.356V372.291H83.9595V233.118Z" stroke="#032B2B" stroke-miterlimit="10"/>
<path d="M58.6577 274.258C72.6315 274.258 83.9595 256.725 83.9595 235.097C83.9595 213.469 72.6315 195.936 58.6577 195.936C44.684 195.936 33.356 213.469 33.356 235.097C33.356 256.725 44.684 274.258 58.6577 274.258Z" fill="white" stroke="#032B2B" stroke-linecap="round" stroke-linejoin="round"/>
<path d="M64.5682 222.802H52.7345C51.6689 222.802 50.8052 223.677 50.8052 224.756V233.454C50.8052 234.533 51.6689 235.408 52.7345 235.408H64.5682C65.6337 235.408 66.4974 234.533 66.4974 233.454V224.756C66.4974 223.677 65.6337 222.802 64.5682 222.802Z" fill="#5CAAAA" stroke="#032B2B" stroke-linecap="round" stroke-linejoin="round"/>
<path d="M67.3077 258.429C67.3077 256.707 66.8033 255.022 65.8581 253.59C64.9129 252.157 63.5695 251.041 61.9977 250.382C60.4259 249.722 58.6963 249.55 57.0277 249.886C55.3591 250.222 53.8264 251.052 52.6234 252.27C51.4204 253.488 50.6012 255.04 50.2693 256.73C49.9374 258.42 50.1077 260.171 50.7588 261.763C51.4098 263.355 52.5124 264.715 53.9269 265.672C55.3415 266.629 57.0046 267.14 58.7059 267.14C59.8355 267.14 60.954 266.915 61.9977 266.477C63.0413 266.039 63.9896 265.398 64.7883 264.589C65.5871 263.78 66.2207 262.82 66.653 261.763C67.0853 260.706 67.3077 259.573 67.3077 258.429Z" fill="#032B2B" stroke="#032B2B" stroke-linecap="round" stroke-linejoin="round"/>
<path opacity="0.2" d="M62.9826 258.429C62.9826 257.563 62.7289 256.716 62.2536 255.996C61.7783 255.276 61.1027 254.714 60.3124 254.383C59.522 254.051 58.6523 253.964 57.8132 254.133C56.9741 254.302 56.2034 254.72 55.5985 255.332C54.9935 255.945 54.5816 256.725 54.4147 257.575C54.2478 258.425 54.3334 259.305 54.6608 260.106C54.9882 260.906 55.5426 261.59 56.2539 262.072C56.9653 262.553 57.8015 262.81 58.6571 262.81C59.8033 262.806 60.9016 262.344 61.7121 261.523C62.5226 260.702 62.9793 259.59 62.9826 258.429Z" fill="white"/>
<path d="M61.3605 208.554C61.3605 208.012 61.202 207.483 60.9049 207.033C60.6078 206.583 60.1856 206.232 59.6916 206.025C59.1976 205.817 58.6541 205.763 58.1296 205.869C57.6052 205.975 57.1235 206.235 56.7454 206.618C56.3674 207.001 56.1099 207.489 56.0056 208.02C55.9012 208.551 55.9548 209.101 56.1594 209.602C56.364 210.102 56.7105 210.529 57.1551 210.83C57.5997 211.131 58.1224 211.292 58.6571 211.292C59.3731 211.288 60.0588 210.999 60.5651 210.486C61.0714 209.973 61.3573 209.279 61.3605 208.554Z" fill="#032B2B" stroke="#032B2B" stroke-linecap="round" stroke-linejoin="round"/>
<path d="M90.9145 276.896H86.4292V284.574H90.9145V276.896Z" fill="#032B2B" stroke="#032B2B" stroke-linecap="round" stroke-linejoin="round"/>
<path d="M83.9595 346.657H33.356V372.291H83.9595V346.657Z" fill="#5CAAAA" stroke="#032B2B" stroke-linecap="round" stroke-linejoin="round"/>
<path d="M475 363.643H1V372.963H475V363.643Z" fill="white" stroke="#032B2B" stroke-linecap="round" stroke-linejoin="round"/>
<path d="M475 370.761H1V375.141H475V370.761Z" fill="#032B2B" stroke="#032B2B" stroke-linecap="round" stroke-linejoin="round"/>
<path d="M176.319 266.381H175.655C174.995 266.381 174.344 266.223 173.756 265.918C173.168 265.614 172.66 265.174 172.272 264.632C171.885 264.09 171.63 263.464 171.528 262.803C171.426 262.142 171.48 261.467 171.686 260.831C172.522 258.218 173.935 255.58 176.319 255.182C181.234 254.348 194.752 258.504 194.752 261.404C194.752 264.303 194.752 265.548 193.105 265.548H182.869L174.672 274.681L174.5 274.532C174.077 274.173 173.736 273.725 173.503 273.219C173.269 272.712 173.148 272.16 173.148 271.601C173.148 271.043 173.269 270.49 173.503 269.984C173.736 269.478 174.077 269.029 174.5 268.671C175.231 268.018 175.846 267.244 176.319 266.381Z" fill="#032B2B" stroke="#032B2B" stroke-linecap="round" stroke-linejoin="round"/>
<path d="M268.887 343.534H404.883C404.883 343.534 424.544 330.256 420.44 295.413C416.336 260.57 394.229 283.803 386.032 307.036H325.414C325.414 307.036 312.302 280.48 291.006 283.803C269.711 287.125 268.887 343.534 268.887 343.534Z" fill="#032B2B" stroke="#032B2B" stroke-linecap="round" stroke-linejoin="round"/>
<path d="M302.299 336.64C302.299 326.399 299.411 317.19 294.779 310.682V300.976H278.386C265.164 300.976 254.46 316.941 254.46 336.64C254.46 356.339 265.164 372.242 278.386 372.242H294.779V362.536C299.411 356.065 302.299 346.869 302.299 336.64Z" fill="#032B2B" stroke="#032B2B" stroke-linecap="round" stroke-linejoin="round"/>
<path d="M294.778 372.292C307.992 372.292 318.704 356.33 318.704 336.64C318.704 316.95 307.992 300.988 294.778 300.988C281.564 300.988 270.853 316.95 270.853 336.64C270.853 356.33 281.564 372.292 294.778 372.292Z" fill="#032B2B"/>
<mask id="mask1_1_2827" style="mask-type:luminance" maskUnits="userSpaceOnUse" x="270" y="300" width="49" height="73">
<path d="M294.778 372.292C307.992 372.292 318.704 356.33 318.704 336.64C318.704 316.95 307.992 300.988 294.778 300.988C281.564 300.988 270.853 316.95 270.853 336.64C270.853 356.33 281.564 372.292 294.778 372.292Z" fill="white"/>
</mask>
<g mask="url(#mask1_1_2827)">
<path opacity="0.2" d="M294.778 372.292C307.992 372.292 318.704 356.33 318.704 336.64C318.704 316.95 307.992 300.988 294.778 300.988C281.564 300.988 270.853 316.95 270.853 336.64C270.853 356.33 281.564 372.292 294.778 372.292Z" fill="white"/>
</g>
<path d="M294.778 372.292C307.992 372.292 318.704 356.33 318.704 336.64C318.704 316.95 307.992 300.988 294.778 300.988C281.564 300.988 270.853 316.95 270.853 336.64C270.853 356.33 281.564 372.292 294.778 372.292Z" stroke="#032B2B" stroke-linecap="round" stroke-linejoin="round"/>
<path d="M154.519 300.976H138.974C126.489 300.976 116.364 316.941 116.364 336.64C116.364 356.339 126.539 372.242 138.974 372.242H154.47C166.955 372.242 177.081 356.276 177.081 336.59C177.081 316.904 167.004 300.976 154.519 300.976Z" fill="#032B2B" stroke="#032B2B" stroke-linecap="round" stroke-linejoin="round"/>
<path d="M294.779 365.087C305.318 365.087 313.863 352.35 313.863 336.64C313.863 320.929 305.318 308.193 294.779 308.193C284.239 308.193 275.695 320.929 275.695 336.64C275.695 352.35 284.239 365.087 294.779 365.087Z" fill="white" stroke="#032B2B" stroke-linecap="round" stroke-linejoin="round"/>
<path d="M414.333 336.64C414.333 326.399 412.49 317.19 409.54 310.682V300.976H395.065C386.659 300.976 379.839 316.941 379.839 336.64C379.839 356.339 386.659 372.242 395.065 372.242H409.54V362.536C412.49 356.065 414.333 346.869 414.333 336.64Z" fill="#032B2B" stroke="#032B2B" stroke-linecap="round" stroke-linejoin="round"/>
<path d="M409.54 372.292C417.948 372.292 424.765 356.33 424.765 336.64C424.765 316.95 417.948 300.988 409.54 300.988C401.131 300.988 394.314 316.95 394.314 336.64C394.314 356.33 401.131 372.292 409.54 372.292Z" fill="#032B2B"/>
<mask id="mask2_1_2827" style="mask-type:luminance" maskUnits="userSpaceOnUse" x="394" y="300" width="31" height="73">
<path d="M409.542 372.292C417.95 372.292 424.767 356.33 424.767 336.64C424.767 316.95 417.95 300.988 409.542 300.988C401.133 300.988 394.316 316.95 394.316 336.64C394.316 356.33 401.133 372.292 409.542 372.292Z" fill="white"/>
</mask>
<g mask="url(#mask2_1_2827)">
<path opacity="0.2" d="M409.542 372.292C417.95 372.292 424.767 356.33 424.767 336.64C424.767 316.95 417.95 300.988 409.542 300.988C401.133 300.988 394.316 316.95 394.316 336.64C394.316 356.33 401.133 372.292 409.542 372.292Z" fill="white"/>
</g>
<path d="M409.54 372.292C417.948 372.292 424.765 356.33 424.765 336.64C424.765 316.95 417.948 300.988 409.54 300.988C401.131 300.988 394.314 316.95 394.314 336.64C394.314 356.33 401.131 372.292 409.54 372.292Z" stroke="#032B2B" stroke-linecap="round" stroke-linejoin="round"/>
<path d="M409.54 365.087C416.246 365.087 421.681 352.35 421.681 336.64C421.681 320.929 416.246 308.193 409.54 308.193C402.835 308.193 397.399 320.929 397.399 336.64C397.399 352.35 402.835 365.087 409.54 365.087Z" fill="white" stroke="#032B2B" stroke-linecap="round" stroke-linejoin="round"/>
<path d="M274.614 345.338C274.614 316.928 284.371 293.895 296.389 293.895C308.407 293.895 318.164 316.928 318.164 345.338C318.164 346.906 318.164 348.449 318.066 349.967H395.643C395.594 348.449 395.569 346.906 395.569 345.338C395.569 316.928 402.672 293.895 411.433 293.895C417.283 293.895 422.395 304.186 425.135 319.492V277.531C425.135 275.618 424.474 273.766 423.266 272.295C422.059 270.825 420.381 269.829 418.524 269.48L418.155 269.405C412.773 268.31 403.102 257.969 388.048 244.903C372.995 231.837 359.552 230.754 359.552 230.754H223.765C221.194 230.764 218.7 231.64 216.675 233.243L170.36 269.442C170.36 269.442 128.96 277.606 119.818 286.864C110.675 296.122 111.756 350.004 111.756 350.004H274.713C274.651 348.449 274.614 346.906 274.614 345.338Z" fill="#5CAAAA"/>
<mask id="mask3_1_2827" style="mask-type:luminance" maskUnits="userSpaceOnUse" x="111" y="230" width="315" height="121">
<path d="M274.613 345.338C274.613 316.928 284.37 293.895 296.388 293.895C308.406 293.895 318.163 316.928 318.163 345.338C318.163 346.906 318.163 348.449 318.065 349.967H395.642C395.593 348.449 395.568 346.906 395.568 345.338C395.568 316.928 402.671 293.895 411.432 293.895C417.282 293.895 422.394 304.186 425.134 319.492V277.531C425.134 275.618 424.473 273.766 423.265 272.295C422.058 270.825 420.38 269.829 418.523 269.48L418.154 269.405C412.772 268.31 403.101 257.969 388.048 244.903C372.994 231.837 359.551 230.754 359.551 230.754H223.764C221.193 230.764 218.699 231.64 216.674 233.243L170.359 269.442C170.359 269.442 128.959 277.606 119.817 286.864C110.674 296.122 111.755 350.004 111.755 350.004H274.712C274.65 348.449 274.613 346.906 274.613 345.338Z" fill="white"/>
</mask>
<g mask="url(#mask3_1_2827)">
<path opacity="0.3" d="M301.5 269.405L308.689 230.754H223.764C221.193 230.764 218.699 231.64 216.674 233.243L170.359 269.442C170.359 269.442 128.959 277.606 119.817 286.864C110.674 296.122 111.755 350.004 111.755 350.004H257.152C258.208 320.911 264.795 307.073 264.795 307.073H224.649C255.775 273.014 301.5 269.405 301.5 269.405Z" fill="#374151"/>
</g>
<path d="M274.614 345.338C274.614 316.928 284.371 293.895 296.389 293.895C308.407 293.895 318.164 316.928 318.164 345.338C318.164 346.906 318.164 348.449 318.066 349.967H395.643C395.594 348.449 395.569 346.906 395.569 345.338C395.569 316.928 402.672 293.895 411.433 293.895C417.283 293.895 422.395 304.186 425.135 319.492V277.531C425.135 275.618 424.474 273.766 423.266 272.295C422.059 270.825 420.381 269.829 418.524 269.48L418.155 269.405C412.773 268.31 403.102 257.969 388.048 244.903C372.995 231.837 359.552 230.754 359.552 230.754H223.765C221.194 230.764 218.7 231.64 216.675 233.243L170.36 269.442C170.36 269.442 128.96 277.606 119.818 286.864C110.675 296.122 111.756 350.004 111.756 350.004H274.713C274.651 348.449 274.614 346.906 274.614 345.338Z" stroke="#032B2B" stroke-linecap="round" stroke-linejoin="round"/>
<path d="M326.224 230.754H223.764C221.193 230.764 218.699 231.64 216.673 233.243L170.358 269.442H301.5L326.224 230.754Z" fill="#5CAAAA" stroke="#032B2B" stroke-linecap="round" stroke-linejoin="round"/>
<path d="M272.549 283.965C265.176 284.064 252.261 284.562 246.67 286.827C242.037 288.669 237.544 290.852 233.227 293.36H259.561L272.549 283.965Z" fill="#032B2B" stroke="#032B2B" stroke-linecap="round" stroke-linejoin="round"/>
<path d="M261.183 301.523V296.62H233.227L238.289 301.349C238.209 301.398 238.135 301.456 238.068 301.523H261.183Z" fill="#032B2B" stroke="#032B2B" stroke-linecap="round" stroke-linejoin="round"/>
<path d="M263.861 294.442V301.56C264.949 301.465 266.001 301.116 266.935 300.542C267.868 299.968 268.658 299.184 269.244 298.25C271.935 293.895 277.981 283.965 277.981 283.965L263.861 294.442Z" fill="#032B2B" stroke="#032B2B" stroke-linecap="round" stroke-linejoin="round"/>
<path d="M122.397 301.311L127.46 296.583H115.528C115.159 298.113 114.815 299.756 114.52 301.485H122.618C122.549 301.421 122.475 301.363 122.397 301.311Z" fill="#032B2B" stroke="#032B2B" stroke-linecap="round" stroke-linejoin="round"/>
<path d="M118.402 288.706C117.578 290.178 116.919 291.739 116.436 293.36H127.496C124.551 291.642 121.515 290.088 118.402 288.706Z" fill="#032B2B" stroke="#032B2B" stroke-linecap="round" stroke-linejoin="round"/>
<path d="M301.5 269.405H381.055C381.055 269.405 392.348 265.597 389.116 251.436C388.023 246.633 365.461 235.657 362.241 235.657H323.533L301.5 269.405Z" fill="#032B2B"/>
<mask id="mask4_1_2827" style="mask-type:luminance" maskUnits="userSpaceOnUse" x="301" y="235" width="89" height="35">
<path d="M301.5 269.405H381.055C381.055 269.405 392.348 265.598 389.116 251.436C388.023 246.633 365.461 235.657 362.241 235.657H323.533L301.5 269.405Z" fill="white"/>
</mask>
<g mask="url(#mask4_1_2827)">
<path opacity="0.2" d="M301.5 269.405H381.055C381.055 269.405 392.348 265.598 389.116 251.436C388.023 246.633 365.461 235.657 362.241 235.657H323.533L301.5 269.405Z" fill="white" stroke="#032B2B" stroke-linecap="round" stroke-linejoin="round"/>
</g>
<path d="M301.5 269.405H381.055C381.055 269.405 392.348 265.597 389.116 251.436C388.023 246.633 365.461 235.657 362.241 235.657H323.533L301.5 269.405Z" stroke="#032B2B" stroke-linecap="round" stroke-linejoin="round"/>
<path d="M213.515 235.657L170.321 269.405H301.5L323.091 235.657H213.515Z" fill="#032B2B" stroke="#032B2B" stroke-linecap="round" stroke-linejoin="round"/>
<path d="M129.474 294.442V305.878L137.535 311.864H202.578L217.631 305.331V294.442H129.474Z" fill="#032B2B" stroke="#032B2B" stroke-linecap="round" stroke-linejoin="round"/>
<path opacity="0.3" d="M132.485 294.442H129.474V297.491H132.485V294.442Z" fill="white"/>
<path opacity="0.3" d="M135.804 297.815H132.793V300.863H135.804V297.815Z" fill="white"/>
<path opacity="0.3" d="M139.133 301.175H136.123V304.223H139.133V301.175Z" fill="white"/>
<path opacity="0.3" d="M142.451 304.547H139.44V307.596H142.451V304.547Z" fill="white"/>
<path opacity="0.3" d="M217.042 294.442H214.032V297.491H217.042V294.442Z" fill="white"/>
<path opacity="0.3" d="M213.713 297.815H210.702V300.863H213.713V297.815Z" fill="white"/>
<path opacity="0.3" d="M210.394 301.175H207.384V304.223H210.394V301.175Z" fill="white"/>
<path opacity="0.3" d="M207.076 304.547H204.065V307.596H207.076V304.547Z" fill="white"/>
<path opacity="0.3" d="M147.073 304.547H144.062V307.596H147.073V304.547Z" fill="white"/>
<path opacity="0.3" d="M151.68 304.547H148.669V307.596H151.68V304.547Z" fill="white"/>
<path opacity="0.3" d="M156.301 304.547H153.29V307.596H156.301V304.547Z" fill="white"/>
<path opacity="0.3" d="M160.92 304.547H157.909V307.596H160.92V304.547Z" fill="white"/>
<path opacity="0.3" d="M165.53 304.547H162.519V307.596H165.53V304.547Z" fill="white"/>
<path opacity="0.3" d="M170.149 304.547H167.138V307.596H170.149V304.547Z" fill="white"/>
<path opacity="0.3" d="M174.758 304.547H171.747V307.596H174.758V304.547Z" fill="white"/>
<path opacity="0.3" d="M179.378 304.547H176.367V307.596H179.378V304.547Z" fill="white"/>
<path opacity="0.3" d="M183.999 304.547H180.988V307.596H183.999V304.547Z" fill="white"/>
<path opacity="0.3" d="M188.607 304.547H185.596V307.596H188.607V304.547Z" fill="white"/>
<path opacity="0.3" d="M193.227 304.547H190.216V307.596H193.227V304.547Z" fill="white"/>
<path opacity="0.3" d="M197.835 304.547H194.825V307.596H197.835V304.547Z" fill="white"/>
<path opacity="0.3" d="M202.456 304.547H199.445V307.596H202.456V304.547Z" fill="white"/>
<path d="M248.807 326.013H114.962L113.168 311.49C112.344 319.479 111.939 327.979 111.804 334.972L112.271 336.901L114.962 331.463H126.439L119.312 337.399H225.742L221.945 331.413H248.856L256.389 335.769H261.759V308.056L248.807 326.013Z" fill="#032B2B" stroke="#032B2B" stroke-linecap="round" stroke-linejoin="round"/>
<path d="M329.506 266.381H328.842C328.183 266.379 327.534 266.219 326.947 265.914C326.361 265.609 325.854 265.168 325.468 264.627C325.082 264.086 324.828 263.46 324.727 262.8C324.626 262.14 324.68 261.466 324.885 260.831C325.709 258.218 327.134 255.58 329.506 255.182C334.421 254.348 347.938 258.504 347.938 261.404C347.938 264.303 347.938 265.548 346.304 265.548H336.068L327.872 274.681L327.699 274.532C327.276 274.173 326.936 273.725 326.702 273.219C326.468 272.712 326.347 272.16 326.347 271.601C326.347 271.043 326.468 270.49 326.702 269.984C326.936 269.478 327.276 269.029 327.699 268.671C328.427 268.018 329.038 267.244 329.506 266.381Z" fill="#5CAAAA"/>
<path d="M353.935 269.405H358.432C357.953 262.723 356.073 248.014 348.687 235.657H344.19C346.783 241.344 352.927 256.016 353.935 269.405Z" fill="#032B2B" stroke="#032B2B" stroke-linecap="round" stroke-linejoin="round"/>
<path d="M257.004 244.816L258.651 249.37C256.627 251.323 255.447 254.007 255.369 256.837V269.405H245.281L253.735 244.816H257.004ZM209.902 251.038C202.984 255.306 192.539 264.726 187.464 269.405H221.146L238.571 242.327L227.106 243.148C221.056 245.006 215.272 247.658 209.902 251.038ZM279.541 247.715L275.436 246.882H269.71L268.063 248.549C268.063 248.549 272.168 248.96 272.573 251.449C272.852 253.927 272.988 256.42 272.979 258.915H275.854C275.854 258.915 275.854 254.348 277.894 252.282C279.052 251.097 280.283 249.987 281.581 248.96L279.541 247.715Z" fill="white" stroke="#032B2B" stroke-linecap="round" stroke-linejoin="round"/>
<path d="M327.699 274.532L327.871 274.681L336.068 265.547H346.304C347.656 265.547 347.889 264.689 347.926 262.748H324.726C324.865 263.754 325.358 264.675 326.114 265.343C326.87 266.01 327.839 266.379 328.842 266.381H329.506C329.034 267.244 328.419 268.019 327.687 268.671C327.264 269.03 326.925 269.479 326.692 269.986C326.46 270.493 326.34 271.045 326.341 271.604C326.342 272.163 326.464 272.715 326.699 273.221C326.934 273.727 327.275 274.174 327.699 274.532Z" fill="#032B2B" stroke="#032B2B" stroke-linecap="round" stroke-linejoin="round"/>
<path d="M352.976 279.422H343.76V281.426H352.976V279.422Z" fill="#032B2B"/>
<path d="M394.474 279.422H385.258V281.426H394.474V279.422Z" fill="#032B2B"/>
<path d="M395.125 271.446C395.125 271.446 401.798 276.038 405.669 292.128C405.669 292.128 389.202 294.119 389.202 340.149" stroke="#032B2B" stroke-linecap="round" stroke-linejoin="round"/>
<path d="M387.2 342.115H318.115C318.115 343.185 318.115 344.255 318.115 345.338C318.115 346.906 318.115 348.449 318.017 349.967H395.593C395.544 348.449 395.519 346.906 395.519 345.338V345.027L387.2 342.115Z" fill="#032B2B" stroke="#032B2B" stroke-linecap="round" stroke-linejoin="round"/>
<path d="M274.613 345.338C274.613 344.255 274.613 343.185 274.613 342.115H111.706C111.706 346.906 111.706 349.967 111.706 349.967H274.712C274.65 348.449 274.613 346.906 274.613 345.338Z" fill="#032B2B" stroke="#032B2B" stroke-linecap="round" stroke-linejoin="round"/>
<path d="M422.246 275.428C421.427 275.428 420.622 275.644 419.911 276.054C419.199 276.465 418.606 277.055 418.188 277.768C417.77 278.481 417.543 279.292 417.528 280.121C417.513 280.95 417.712 281.769 418.104 282.496L425.133 295.563V277.531C425.124 276.82 425.025 276.114 424.838 275.428H422.246Z" fill="#032B2B" stroke="#032B2B" stroke-linecap="round" stroke-linejoin="round"/>
<path d="M358.998 276.336C358.998 276.336 373.744 297.902 358.998 334.412" stroke="#032B2B" stroke-linecap="round" stroke-linejoin="round"/>
</svg>
