<svg width="400" height="401" viewBox="0 0 400 401" fill="none" xmlns="http://www.w3.org/2000/svg">
<mask id="mask0_1_5641" style="mask-type:alpha" maskUnits="userSpaceOnUse" x="-200" y="-200" width="800" height="800">
<rect x="-200" y="-200" width="800" height="800" fill="url(#paint0_radial_1_5641)"/>
</mask>
<g mask="url(#mask0_1_5641)">
<path d="M-99.75 -85.8455L-40 -115.72L19.75 -85.8455V-26.1545L-40 3.72049L-99.75 -26.1545V-85.8455Z" fill="#F3F1EE" stroke="#DCDCDC" stroke-width="0.5"/>
<path d="M20.25 -85.8455L80 -115.72L139.75 -85.8455V-26.1545L80 3.72049L20.25 -26.1545V-85.8455Z" fill="#F3F1EE" stroke="#DCDCDC" stroke-width="0.5"/>
<path d="M140.25 -85.8455L200 -115.72L259.75 -85.8455V-26.1545L200 3.72049L140.25 -26.1545V-85.8455Z" fill="#F3F1EE" stroke="#DCDCDC" stroke-width="0.5"/>
<path d="M260.25 -85.8455L320 -115.72L379.75 -85.8455V-26.1545L320 3.72049L260.25 -26.1545V-85.8455Z" fill="#F3F1EE" stroke="#DCDCDC" stroke-width="0.5"/>
<path d="M380.25 -85.8455L440 -115.72L499.75 -85.8455V-26.1545L440 3.72049L380.25 -26.1545V-85.8455Z" fill="#F3F1EE" stroke="#DCDCDC" stroke-width="0.5"/>
<path d="M-39.75 4.15451L20 -25.7205L79.75 4.15451V63.8455L20 93.7205L-39.75 63.8455V4.15451Z" fill="#F3F1EE" stroke="#DCDCDC" stroke-width="0.5"/>
<path d="M80.25 4.15451L140 -25.7205L199.75 4.15451V63.8455L140 93.7205L80.25 63.8455V4.15451Z" fill="#F3F1EE" stroke="#DCDCDC" stroke-width="0.5"/>
<path d="M200.25 4.15451L260 -25.7205L319.75 4.15451V63.8455L260 93.7205L200.25 63.8455V4.15451Z" fill="#F3F1EE" stroke="#DCDCDC" stroke-width="0.5"/>
<path d="M320.25 4.15451L380 -25.7205L439.75 4.15451V63.8455L380 93.7205L320.25 63.8455V4.15451Z" fill="#F3F1EE" stroke="#DCDCDC" stroke-width="0.5"/>
<path d="M-99.75 94.1545L-40 64.2795L19.75 94.1545V153.845L-40 183.72L-99.75 153.845V94.1545Z" fill="#F3F1EE" stroke="#DCDCDC" stroke-width="0.5"/>
<path d="M20.25 94.1545L80 64.2795L139.75 94.1545V153.845L80 183.72L20.25 153.845V94.1545Z" fill="#F3F1EE" stroke="#DCDCDC" stroke-width="0.5"/>
<path d="M140.25 94.1545L200 64.2795L259.75 94.1545V153.845L200 183.72L140.25 153.845V94.1545Z" fill="#F3F1EE" stroke="#DCDCDC" stroke-width="0.5"/>
<path d="M260.25 94.1545L320 64.2795L379.75 94.1545V153.845L320 183.72L260.25 153.845V94.1545Z" fill="#F3F1EE" stroke="#DCDCDC" stroke-width="0.5"/>
<path d="M380.25 94.1545L440 64.2795L499.75 94.1545V153.845L440 183.72L380.25 153.845V94.1545Z" fill="#F3F1EE" stroke="#DCDCDC" stroke-width="0.5"/>
<path d="M-39.75 184.155L20 154.28L79.75 184.155V243.845L20 273.72L-39.75 243.845V184.155Z" fill="#F3F1EE" stroke="#DCDCDC" stroke-width="0.5"/>
<path d="M80.25 184.155L140 154.28L199.75 184.155V243.845L140 273.72L80.25 243.845V184.155Z" fill="#F3F1EE" stroke="#DCDCDC" stroke-width="0.5"/>
<path d="M200.25 184.155L260 154.28L319.75 184.155V243.845L260 273.72L200.25 243.845V184.155Z" fill="#F3F1EE" stroke="#DCDCDC" stroke-width="0.5"/>
<path d="M320.25 184.155L380 154.28L439.75 184.155V243.845L380 273.72L320.25 243.845V184.155Z" fill="#F3F1EE" stroke="#DCDCDC" stroke-width="0.5"/>
<path d="M-99.75 274.155L-40 244.28L19.75 274.155V333.845L-40 363.72L-99.75 333.845V274.155Z" fill="#F3F1EE" stroke="#DCDCDC" stroke-width="0.5"/>
<path d="M20.25 274.155L80 244.28L139.75 274.155V333.845L80 363.72L20.25 333.845V274.155Z" fill="#F3F1EE" stroke="#DCDCDC" stroke-width="0.5"/>
<path d="M140.25 274.155L200 244.28L259.75 274.155V333.845L200 363.72L140.25 333.845V274.155Z" fill="#F3F1EE" stroke="#DCDCDC" stroke-width="0.5"/>
<path d="M260.25 274.155L320 244.28L379.75 274.155V333.845L320 363.72L260.25 333.845V274.155Z" fill="#F3F1EE" stroke="#DCDCDC" stroke-width="0.5"/>
<path d="M380.25 274.155L440 244.28L499.75 274.155V333.845L440 363.72L380.25 333.845V274.155Z" fill="#F3F1EE" stroke="#DCDCDC" stroke-width="0.5"/>
<path d="M-39.75 364.155L20 334.28L79.75 364.155V423.845L20 453.72L-39.75 423.845V364.155Z" fill="#F3F1EE" stroke="#DCDCDC" stroke-width="0.5"/>
<path d="M80.25 364.155L140 334.28L199.75 364.155V423.845L140 453.72L80.25 423.845V364.155Z" fill="#F3F1EE" stroke="#DCDCDC" stroke-width="0.5"/>
<path d="M200.25 364.155L260 334.28L319.75 364.155V423.845L260 453.72L200.25 423.845V364.155Z" fill="#F3F1EE" stroke="#DCDCDC" stroke-width="0.5"/>
<path d="M320.25 364.155L380 334.28L439.75 364.155V423.845L380 453.72L320.25 423.845V364.155Z" fill="#F3F1EE" stroke="#DCDCDC" stroke-width="0.5"/>
</g>
<defs>
<radialGradient id="paint0_radial_1_5641" cx="0" cy="0" r="1" gradientUnits="userSpaceOnUse" gradientTransform="translate(200 200) rotate(90) scale(400 400)">
<stop stop-color="white"/>
<stop offset="1" stop-color="white" stop-opacity="0"/>
</radialGradient>
</defs>
</svg>
