<svg width="40" height="41" viewBox="0 0 40 41" fill="none" xmlns="http://www.w3.org/2000/svg">
<path d="M36.6668 35.9165H3.3335C2.65016 35.9165 2.0835 36.4832 2.0835 37.1665C2.0835 37.8498 2.65016 38.4165 3.3335 38.4165H36.6668C37.3502 38.4165 37.9168 37.8498 37.9168 37.1665C37.9168 36.4832 37.3502 35.9165 36.6668 35.9165Z" fill="#525257"/>
<path d="M28.3333 3.8335H11.6667C6.66667 3.8335 5 6.81683 5 10.5002V37.1668H35V10.5002C35 6.81683 33.3333 3.8335 28.3333 3.8335ZM16.6667 29.2502H11.6667C10.9833 29.2502 10.4167 28.6835 10.4167 28.0002C10.4167 27.3168 10.9833 26.7502 11.6667 26.7502H16.6667C17.35 26.7502 17.9167 27.3168 17.9167 28.0002C17.9167 28.6835 17.35 29.2502 16.6667 29.2502ZM16.6667 21.7502H11.6667C10.9833 21.7502 10.4167 21.1835 10.4167 20.5002C10.4167 19.8168 10.9833 19.2502 11.6667 19.2502H16.6667C17.35 19.2502 17.9167 19.8168 17.9167 20.5002C17.9167 21.1835 17.35 21.7502 16.6667 21.7502ZM16.6667 14.2502H11.6667C10.9833 14.2502 10.4167 13.6835 10.4167 13.0002C10.4167 12.3168 10.9833 11.7502 11.6667 11.7502H16.6667C17.35 11.7502 17.9167 12.3168 17.9167 13.0002C17.9167 13.6835 17.35 14.2502 16.6667 14.2502ZM28.3333 29.2502H23.3333C22.65 29.2502 22.0833 28.6835 22.0833 28.0002C22.0833 27.3168 22.65 26.7502 23.3333 26.7502H28.3333C29.0167 26.7502 29.5833 27.3168 29.5833 28.0002C29.5833 28.6835 29.0167 29.2502 28.3333 29.2502ZM28.3333 21.7502H23.3333C22.65 21.7502 22.0833 21.1835 22.0833 20.5002C22.0833 19.8168 22.65 19.2502 23.3333 19.2502H28.3333C29.0167 19.2502 29.5833 19.8168 29.5833 20.5002C29.5833 21.1835 29.0167 21.7502 28.3333 21.7502ZM28.3333 14.2502H23.3333C22.65 14.2502 22.0833 13.6835 22.0833 13.0002C22.0833 12.3168 22.65 11.7502 23.3333 11.7502H28.3333C29.0167 11.7502 29.5833 12.3168 29.5833 13.0002C29.5833 13.6835 29.0167 14.2502 28.3333 14.2502Z" fill="#525257"/>
</svg>
