<svg width="44" height="45" viewBox="0 0 44 45" fill="none" xmlns="http://www.w3.org/2000/svg">
<path fill-rule="evenodd" clip-rule="evenodd" d="M5.5 31.3385V17.3813H38.5V31.4503C38.5 37.2052 34.8776 40.7435 29.0818 40.7435H14.9001C9.15862 40.7435 5.5 37.1318 5.5 31.3385ZM14.5922 26.8285C13.7591 26.867 13.0708 26.2052 13.0346 25.3637C13.0346 24.5203 13.6866 23.8237 14.5198 23.7852C15.3348 23.7852 16.0049 24.4287 16.0231 25.2518C16.0593 26.097 15.4072 26.7937 14.5922 26.8285ZM22.0362 26.8285C21.2031 26.867 20.5148 26.2052 20.4786 25.3637C20.4786 24.5203 21.1306 23.8237 21.9638 23.7852C22.7788 23.7852 23.449 24.4287 23.4671 25.2518C23.5033 26.097 22.8513 26.7937 22.0362 26.8285ZM29.4259 33.5752C28.5928 33.5568 27.9226 32.8602 27.9226 32.0168C27.9045 31.1735 28.5746 30.4787 29.4078 30.4603H29.4259C30.2772 30.4603 30.9654 31.157 30.9654 32.0168C30.9654 32.8785 30.2772 33.5752 29.4259 33.5752ZM20.4786 32.0168C20.5148 32.8602 21.2031 33.522 22.0362 33.4835C22.8513 33.4487 23.5033 32.752 23.4671 31.9087C23.449 31.0837 22.7788 30.4402 21.9638 30.4402C21.1306 30.4787 20.4786 31.1735 20.4786 32.0168ZM13.0165 32.0168C13.0527 32.8602 13.7409 33.522 14.5741 33.4835C15.3891 33.4487 16.0412 32.752 16.0049 31.9087C15.9868 31.0837 15.3167 30.4402 14.5016 30.4402C13.6685 30.4787 13.0165 31.1735 13.0165 32.0168ZM27.9407 25.3453C27.9407 24.502 28.5928 23.8237 29.4259 23.8053C30.2409 23.8053 30.893 24.4635 30.9292 25.272C30.9473 26.1153 30.2953 26.812 29.4802 26.8285C28.6471 26.8468 27.9588 26.2052 27.9407 25.3637V25.3453Z" fill="#5CAAAA"/>
<path d="M5.50635 17.3812C5.52989 16.305 5.62045 14.1692 5.79071 13.4817C6.66008 9.61518 9.61233 7.15852 13.8324 6.80835H30.1694C34.3533 7.17685 37.3417 9.65002 38.2111 13.4817C38.3796 14.1508 38.4701 16.3032 38.4937 17.3812H5.50635Z" fill="#CEE6E6"/>
<path d="M15.2257 12.4918C16.0226 12.4918 16.6203 11.8887 16.6203 11.0802V5.49034C16.6203 4.68184 16.0226 4.07684 15.2257 4.07684C14.4287 4.07684 13.8311 4.68184 13.8311 5.49034V11.0802C13.8311 11.8887 14.4287 12.4918 15.2257 12.4918Z" fill="#5CAAAA"/>
<path d="M28.774 12.4918C29.5528 12.4918 30.1686 11.8887 30.1686 11.0802V5.49034C30.1686 4.68184 29.5528 4.07684 28.774 4.07684C27.9771 4.07684 27.3794 4.68184 27.3794 5.49034V11.0802C27.3794 11.8887 27.9771 12.4918 28.774 12.4918Z" fill="#5CAAAA"/>
</svg>
