<svg width="45" height="45" viewBox="0 0 45 45" fill="none" xmlns="http://www.w3.org/2000/svg">
<path d="M26.7355 3.74184C26.3485 2.95873 25.8504 2.47098 25.0505 2.09207L24.4758 1.81977L15.5709 1.80591C10.3759 1.79783 6.52687 1.82519 6.332 1.87147C5.7965 1.99872 5.01631 2.45842 4.63655 2.87037C4.44339 3.07996 4.16274 3.51014 4.01303 3.82616L3.74072 4.40089V16.2355V28.0701L4.06526 28.7269C4.44855 29.5024 4.94327 29.9827 5.7626 30.3748L6.32185 30.6423H15.3988H24.4758L25.0505 30.37C25.8504 29.9911 26.3485 29.5034 26.7355 28.7202L27.0569 28.0701V16.231V4.39194L26.7355 3.74184Z" fill="#CEE6E6"/>
<path fill-rule="evenodd" clip-rule="evenodd" d="M6.14999 0.500319C5.91339 0.544801 5.40801 0.731502 5.02686 0.915192C3.69577 1.55677 2.64878 2.93355 2.40874 4.35798C2.34275 4.74945 2.32193 8.41413 2.33939 16.5753L2.36434 28.2334L2.58623 28.803C2.90337 29.617 3.19297 30.076 3.7252 30.6071C4.32325 31.2041 5.11746 31.6706 5.86246 31.8624L6.45112 32.0141V32.8669C6.45112 33.336 6.49819 33.8792 6.55575 34.074C6.69538 34.5466 7.40812 35.2593 7.88072 35.3989C8.37768 35.5457 14.1608 35.5457 14.6577 35.3989C15.1303 35.2593 15.8431 34.5466 15.9827 34.074C16.0403 33.8792 16.0873 33.3469 16.0873 32.8909V32.0621H17.7956H19.5039L19.5557 33.5462C19.611 35.1333 19.756 35.9712 20.1776 37.1383C20.7396 38.6942 21.5546 39.9605 22.7871 41.1931C24.3843 42.7902 26.1804 43.7684 28.3907 44.2449C29.4115 44.465 31.6701 44.4653 32.6891 44.2456C34.945 43.759 36.6585 42.8249 38.2932 41.1902C39.9103 39.573 40.8567 37.8396 41.3508 35.5896C41.5031 34.8963 41.5114 34.2702 41.5114 23.5443V12.2304L41.3158 11.4561C40.9705 10.0883 40.3589 8.99781 38.9275 7.19722C38.2316 6.32179 37.4248 5.36204 37.1348 5.06444C36.2167 4.12276 35.1837 3.5599 33.8786 3.29034C32.9701 3.1027 29.0367 3.09874 28.5197 3.28501C28.3305 3.35315 28.171 3.40959 28.1654 3.41028C28.1598 3.41097 28.005 3.15372 27.8213 2.83865C27.1401 1.67017 25.957 0.790008 24.7132 0.526475C24.2289 0.423832 22.6663 0.404646 15.356 0.411357C10.2817 0.416089 6.39873 0.453601 6.14999 0.500319ZM25.0507 2.09219C25.8506 2.47109 26.3488 2.95884 26.7358 3.74195L27.0571 4.39205V16.2312V28.0703L26.7358 28.7204C26.3488 29.5035 25.8506 29.9912 25.0507 30.3701L24.476 30.6424H15.399H6.32207L5.76282 30.3749C4.94349 29.9828 4.44877 29.5025 4.06548 28.727L3.74094 28.0703V16.2356V4.401L4.01325 3.82627C4.16296 3.51025 4.44361 3.08007 4.63677 2.87048C5.01654 2.45853 5.79672 1.99883 6.33222 1.87158C6.52709 1.8253 10.3761 1.79794 15.5711 1.80602L24.476 1.81988L25.0507 2.09219ZM6.66235 4.05298L6.45112 4.26412V6.93911V9.6141L6.66235 9.82523C6.94171 10.1047 7.33714 10.1047 7.6165 9.82523L7.82772 9.6141V6.93911V4.26412L7.6165 4.05298C7.4834 3.91979 7.30703 3.84176 7.13942 3.84176C6.97182 3.84176 6.79545 3.91979 6.66235 4.05298ZM23.1815 4.05298L22.9703 4.26412V6.93911V9.6141L23.1815 9.82523C23.4609 10.1047 23.8563 10.1047 24.1357 9.82523L24.3469 9.6141V6.93911V4.26412L24.1357 4.05298C24.0026 3.91979 23.8262 3.84176 23.6586 3.84176C23.491 3.84176 23.3146 3.91979 23.1815 4.05298ZM9.89262 6.93911V9.34816H15.399H20.9054V6.93911V4.53006H15.399H9.89262V6.93911ZM31.0187 7.49448C31.4455 7.92123 31.1431 8.65986 30.5416 8.65986C30.1879 8.65986 29.8533 8.32526 29.8533 7.97156C29.8533 7.61786 30.1879 7.28326 30.5416 7.28326C30.7092 7.28326 30.8856 7.36129 31.0187 7.49448ZM33.7719 7.49448C34.1987 7.92123 33.8963 8.65986 33.2948 8.65986C32.9411 8.65986 32.6065 8.32526 32.6065 7.97156C32.6065 7.61786 32.9411 7.28326 33.2948 7.28326C33.4624 7.28326 33.6388 7.36129 33.7719 7.49448ZM13.9658 12.2286C12.2301 12.5436 10.671 13.3835 9.45048 14.661C6.36156 17.8941 6.38152 22.8944 9.49608 26.1121C10.9551 27.6195 12.8791 28.4848 15.0119 28.5927C18.9229 28.7907 22.3521 26.2458 23.4206 22.3524C23.6805 21.4055 23.6805 19.3165 23.4206 18.3695C22.5323 15.1329 20.0046 12.7884 16.801 12.2297C15.92 12.0761 14.8088 12.0756 13.9658 12.2286ZM32.7967 15.3512L34.6645 17.2122L34.6895 20.8731L34.7144 24.5338L34.951 24.9826C35.2647 25.5778 35.7151 26.0147 36.2825 26.2745L36.7469 26.4871L36.718 30.5436L36.689 34.6002L36.466 35.2598C36.1162 36.2942 35.666 37.0192 34.8941 37.7911C34.1188 38.5664 33.389 39.0184 32.3628 39.3587C31.7868 39.5498 31.5558 39.5775 30.5416 39.5773C29.5163 39.5772 29.2994 39.5504 28.6918 39.3493C27.7083 39.0239 26.9887 38.5722 26.1971 37.7836C25.407 36.9964 24.9553 36.2747 24.6356 35.2885C24.4493 34.7138 24.4053 34.3861 24.3687 33.3043L24.3249 32.0084L24.8105 31.8996C25.5775 31.728 26.41 31.2634 27.0027 30.6761C27.5978 30.0866 27.8854 29.641 28.2118 28.803L28.4337 28.2334L28.4579 20.8342L28.4821 13.4349L29.7054 13.4625L30.9288 13.4901L32.7967 15.3512ZM16.7329 15.1342C16.548 15.9112 16.1047 18.6045 16.1545 18.6481C16.1885 18.678 17.0968 19.0659 18.1728 19.5102C19.2489 19.9544 20.1296 20.3444 20.1301 20.3768C20.1311 20.4349 14.153 25.7813 14.0871 25.7813C14.0685 25.7813 14.1994 24.9589 14.3783 23.9536C14.5571 22.9484 14.676 22.102 14.6425 22.0728C14.609 22.0434 13.7013 21.656 12.6253 21.2117C11.5494 20.7675 10.6811 20.3665 10.6958 20.3207C10.7293 20.2164 16.6222 14.9518 16.7127 14.9453C16.7491 14.9427 16.7582 15.0277 16.7329 15.1342ZM40.1773 30.3198C40.177 33.162 40.1464 34.2841 40.0526 34.9013C39.5967 37.9036 37.7212 40.5337 35.0353 41.9373C32.245 43.3955 29.1562 43.45 26.3688 42.0902C24.3741 41.117 22.898 39.6577 21.9049 37.6772C21.2261 36.3232 20.9068 34.852 20.9059 33.073L20.9054 32.0621H21.9379H22.9703V33.0402C22.9703 35.4208 23.6857 37.258 25.204 38.7762C28.1701 41.7424 32.9132 41.7424 35.8792 38.7762C36.6153 38.0403 37.2434 37.0866 37.6043 36.1574C38.0622 34.978 38.1129 34.3926 38.1129 30.287V26.5557H39.1454H40.1778L40.1773 30.3198Z" fill="#5CAAAA"/>
</svg>
