<svg width="39" height="45" viewBox="0 0 39 45" fill="none" xmlns="http://www.w3.org/2000/svg">
<path d="M31.2063 17.9325C31.0256 17.4999 30.7657 17.2286 30.3474 17.0356C30.019 16.884 29.5302 16.877 19.4304 16.8784C7.93918 16.8802 8.67355 16.8504 8.13982 17.3349C7.84162 17.6055 7.79589 17.7135 6.54335 21.1027C5.90913 22.8188 5.36353 24.2905 5.33087 24.3732C5.27448 24.5158 5.6803 24.5236 13.1312 24.5236H20.9912H32.051H32.8503H33.6495L33.3603 23.7285C32.712 21.9462 31.3336 18.2374 31.2063 17.9325Z" fill="#CEE6E6"/>
<path d="M36.3299 32.5562C36.3323 28.0224 36.3502 28.1104 35.1802 26.9077L34.5739 26.2845H19.6112H4.64853L3.86396 26.9684C3.22106 27.5288 3.02756 27.7574 2.79271 28.2343L2.50612 28.8162L2.48016 32.4261C2.45755 35.585 2.47165 36.0815 2.5932 36.3999C2.74767 36.8044 3.20129 37.2501 3.56069 37.3508C3.86473 37.4358 34.926 37.4371 35.2292 37.352C35.5742 37.2552 35.9929 36.8648 36.1702 36.4744C36.3151 36.1555 36.3282 35.8347 36.3299 32.5562Z" fill="#CEE6E6"/>
<path fill-rule="evenodd" clip-rule="evenodd" d="M16.281 0.559149C15.774 0.869124 15.7676 0.893709 15.737 2.64878L15.7088 4.26905L15.0923 4.26923C14.2881 4.2694 13.9144 4.44631 13.7674 4.89683C13.6802 5.164 13.6824 5.27574 13.7798 5.50878C13.9156 5.83389 14.2141 6.07424 14.4818 6.07424C14.6588 6.07424 14.6661 6.11911 14.7149 7.51408C14.7733 9.18422 14.9212 9.79712 15.459 10.6001C16.0738 11.518 16.8979 12.1205 17.9153 12.3959L18.473 12.5468V13.8235V15.1001L14.0245 15.1019C11.5778 15.1028 9.33209 15.1389 9.03397 15.182C7.97958 15.3345 6.99068 15.9831 6.48128 16.8565C6.3691 17.0489 5.62321 18.9734 4.82378 21.1333L3.37017 25.0605L2.37965 26.0331C1.33849 27.0554 1.05705 27.4844 0.80398 28.4354C0.61753 29.1358 0.622172 41.3395 0.809137 41.9557C1.17103 43.1487 2.21675 44.0969 3.42304 44.3256C4.01832 44.4385 6.19503 44.4383 6.79091 44.3253C7.82889 44.1284 8.66323 43.4682 9.1728 42.4406C9.48527 41.8103 9.49051 41.7827 9.51983 40.6139L9.54957 39.4271H19.3756H29.2016L29.2314 40.6091C29.2594 41.722 29.2767 41.824 29.528 42.3542C30.0011 43.3525 30.9895 44.1267 32.0451 44.3256C32.6433 44.4383 34.8196 44.4384 35.4141 44.3256C36.6204 44.0969 37.6661 43.1487 38.028 41.9557C38.2223 41.3153 38.2209 28.8733 38.0265 28.1269C37.8232 27.3465 37.406 26.6531 36.6752 25.881L36.0067 25.1749L34.5108 21.1264C33.688 18.8996 32.9345 16.9479 32.8363 16.789C32.5593 16.3407 31.8377 15.7109 31.3429 15.4855C30.5744 15.1353 30.0228 15.1015 25.0705 15.1008L20.3642 15.1001V13.8235V12.5468L20.9219 12.3959C21.9393 12.1205 22.7634 11.518 23.3782 10.6001C23.916 9.79712 24.0638 9.18422 24.1223 7.51408C24.1711 6.11911 24.1783 6.07424 24.3553 6.07424C24.6231 6.07424 24.9215 5.83389 25.0574 5.50878C25.1548 5.27574 25.157 5.164 25.0697 4.89683C24.9228 4.44631 24.5491 4.2694 23.7448 4.26923L23.1283 4.26905L23.1001 2.62857L23.0719 0.988094L22.7932 0.739237C22.4274 0.412585 22.1641 0.354475 21.8104 0.522271C21.3003 0.764338 21.2697 0.87858 21.2386 2.65729L21.2104 4.26905H19.4186H17.6268L17.5986 2.65729C17.5677 0.887692 17.5352 0.763564 17.0424 0.52975C16.6929 0.363845 16.5942 0.367713 16.281 0.559149ZM30.5505 17.1538C30.9688 17.3468 31.2287 17.6181 31.4094 18.0507C31.5368 18.3556 32.9151 22.0644 33.5634 23.8467L33.8526 24.6418H33.0534H32.2541L32.1473 24.1647C31.7536 22.4049 30.1634 20.7366 28.3585 20.1896C25.7613 19.4025 22.9438 20.6156 21.7485 23.0356C21.5573 23.4226 21.3544 23.9424 21.2975 24.1905L21.1943 24.6418H13.3343C5.88342 24.6418 5.47759 24.634 5.53399 24.4914C5.56665 24.4087 6.11225 22.937 6.74647 21.2209C7.999 17.8316 8.04473 17.7237 8.34293 17.4531C8.87667 16.9686 8.1423 16.9983 19.6335 16.9966C29.7333 16.9952 30.2221 17.0022 30.5505 17.1538ZM28.2822 22.1222C29.0654 22.4907 29.6639 23.0644 30.0312 23.7985C30.1986 24.1332 30.3356 24.4598 30.3356 24.5244C30.3356 24.6218 29.7178 24.6418 26.716 24.6418H23.0963L23.1545 24.4054C23.341 23.6488 24.009 22.7963 24.7772 22.3346C25.4738 21.9159 25.9468 21.8054 26.9068 21.8367C27.6127 21.8599 27.8131 21.9014 28.2822 22.1222ZM35.2013 27.0702C36.3713 28.2729 36.3534 28.185 36.351 32.7187C36.3493 35.9972 36.3362 36.318 36.1913 36.6369C36.014 37.0273 35.5953 37.4177 35.2503 37.5145C34.9471 37.5996 3.88585 37.5983 3.58181 37.5133C3.22241 37.4126 2.76879 36.9669 2.61432 36.5624C2.49277 36.244 2.47867 35.7475 2.50128 32.5887L2.52724 28.9787L2.81383 28.3968C3.04868 27.9199 3.24218 27.6913 3.88508 27.1309L4.66965 26.447H19.6324H34.595L35.2013 27.0702ZM4.61317 29.7065L4.33242 29.9573V32.4213V34.8853L4.60638 35.13C4.77572 35.2814 5.02174 35.3957 5.25109 35.4298C5.45499 35.4599 6.95638 35.4724 8.58749 35.4573C11.7921 35.4277 11.7759 35.4301 12.0589 34.951C12.1777 34.7498 12.1979 34.3765 12.1979 32.378V30.0402L11.9056 29.7479L11.6133 29.4556H8.25362H4.89392L4.61317 29.7065ZM26.9316 29.7479L26.6393 30.0402V32.378C26.6393 34.3765 26.6595 34.7498 26.7782 34.951C27.0613 35.4301 27.045 35.4277 30.2497 35.4573C31.8808 35.4724 33.3822 35.4599 33.5861 35.4298C33.8154 35.3957 34.0614 35.2814 34.2308 35.13L34.5047 34.8853V32.4213V29.9573L34.224 29.7065L33.9432 29.4556H30.5835H27.2238L26.9316 29.7479ZM15.3784 30.2893C15.0801 30.3456 14.7194 30.7093 14.6581 31.0154C14.6293 31.1598 14.6598 31.3979 14.728 31.5613C14.9637 32.1252 14.9236 32.1204 19.4186 32.1204C23.9136 32.1204 23.8735 32.1252 24.1091 31.5613C24.2689 31.1788 24.1874 30.8164 23.8737 30.5158L23.6196 30.2723L19.6064 30.2605C17.3992 30.254 15.4966 30.267 15.3784 30.2893ZM10.3497 32.4213V33.5388L8.26514 33.5618L6.18058 33.5849V32.4213V31.2577L8.26514 31.2808L10.3497 31.3038V32.4213ZM32.6566 32.4228V33.5849L30.572 33.5618L28.4875 33.5388L28.4631 32.5122C28.4497 31.9476 28.4582 31.4351 28.4819 31.3733C28.5158 31.285 28.9685 31.2608 30.5909 31.2608H32.6566V32.4228ZM15.0607 32.8903C14.6745 33.1257 14.5313 33.6158 14.7277 34.0297C14.9894 34.5814 14.8932 34.5703 19.4186 34.5703C23.944 34.5703 23.8477 34.5814 24.1095 34.0297C24.3059 33.6158 24.1627 33.1257 23.7765 32.8903C23.5144 32.7305 23.3144 32.7228 19.4186 32.7228C15.5227 32.7228 15.3228 32.7305 15.0607 32.8903ZM3.07215 39.2563C3.55224 39.4068 3.86161 39.4271 5.67247 39.4271H7.72788L7.72599 40.3512C7.72384 41.4059 7.59249 41.8153 7.13174 42.203C6.74096 42.5318 6.55675 42.5647 5.10607 42.5647C3.65539 42.5647 3.47118 42.5318 3.0804 42.203C2.59936 41.7982 2.4883 41.4199 2.48615 40.1793C2.48512 39.5765 2.49389 39.0838 2.50575 39.0844C2.51761 39.085 2.77249 39.1624 3.07215 39.2563ZM36.3529 40.1605C36.3529 41.3083 36.2632 41.6857 35.8975 42.0774C35.5312 42.4697 35.2506 42.5519 34.1424 42.5911C32.3544 42.6544 31.7645 42.4836 31.2828 41.7638C31.094 41.4817 31.0673 41.3371 31.038 40.4372L31.0052 39.4271L33.1418 39.4219C34.9766 39.4173 35.3452 39.3943 35.7512 39.2587C36.0112 39.172 36.2529 39.0969 36.2884 39.0921C36.3239 39.0872 36.3529 39.568 36.3529 40.1605Z" fill="#5CAAAA"/>
</svg>
