<svg width="124" height="328" viewBox="0 0 124 328" fill="none" xmlns="http://www.w3.org/2000/svg">
<path d="M62.6136 728.395C61.7995 728.388 60.9912 728.175 60.2194 727.766C52.195 723.58 45.9526 711.793 41.672 692.731C38.2504 677.501 35.9577 657.09 34.8578 632.057C32.8901 587.268 35.0639 536.99 36.3611 506.954L36.5033 503.663C38.9614 446.546 36.5207 225.426 36.5033 223.219L42.888 223.04C42.9141 225.27 45.3577 446.821 42.888 504.37L42.7458 507.661C41.4572 537.44 39.3038 587.277 41.2424 631.377C42.3017 655.493 44.4754 674.982 47.7025 689.371C51.2895 705.339 56.1767 715.038 62.2334 718.191C62.5498 718.356 62.8139 718.43 63.3363 717.801C65.597 715.047 71.1719 701.039 74.1814 630.042C75.9924 587.199 76.6686 529.66 76.1868 459.017C75.3655 338.609 71.4128 220.387 71.3751 219.207L77.7598 218.67C77.7975 219.85 81.756 338.26 82.5802 458.879C83.062 529.789 82.3857 587.599 80.5632 630.703C77.4086 705.312 71.4389 720.72 67.2135 725.819C65.9056 727.468 64.2859 728.375 62.6136 728.395Z" fill="#1B1B1B"/>
<path d="M69.9415 10.5355C78.8626 10.5355 86.9537 14.3635 93.3442 21.6064C96.5403 25.2361 99.3192 29.7056 101.56 34.8208C103.996 40.4361 105.844 46.6354 107.034 53.1805C113.943 90.3588 116.39 138.131 113.581 180.982C110.777 223.765 103.049 255.077 92.9089 264.753C79.1267 277.898 68.3424 284.031 58.9541 284.031C48.7966 284.031 39.0658 277.118 25.3562 260.163C17.7207 250.726 12.7001 236.575 10.0069 216.903C7.58656 199.236 7.52853 180.555 7.47919 165.546C7.45598 158.046 7.43568 151.565 7.13386 146.246C6.5041 135.23 5.37225 106.607 8.41948 79.086C10.0447 64.3982 12.6217 52.0055 16.0781 42.2886C19.9496 31.3921 24.9906 23.7591 31.0589 19.596C42.7864 11.5545 54.2062 11.1138 64.2853 10.7283C65.6522 10.6732 66.9436 10.6227 68.2321 10.5539C68.8126 10.5263 69.3698 10.5126 69.9299 10.5126L69.9415 10.5355ZM69.9299 0.414751C69.2943 0.414751 68.6587 0.414744 68.0174 0.465233C57.0299 1.04356 43.0592 0.364255 28.5167 10.3336C-3.40666 32.2229 -0.687403 121.534 0.772363 147.15C2.23213 172.766 -3.39794 237.438 21.4268 268.117C34.9304 284.811 46.2167 294.119 58.9541 294.119C69.6281 294.119 81.3178 287.588 96.1941 273.4C122.249 248.546 127.758 128.937 113.148 50.3301C107.202 18.3292 90.5756 0.410156 69.9299 0.410156V0.414751Z" fill="#1B1B1B"/>
<path d="M69.7623 270.899C69.4721 270.899 69.1819 270.899 68.8917 270.899C58.2032 270.357 46.8617 268.604 36.3619 259.295C23.9118 248.28 15.098 229.002 9.41565 200.388C4.56911 175.965 1.91655 145.511 2.14002 116.852C2.32575 93.3789 4.55167 60.3957 14.1084 36.6291C20.5743 20.5414 29.3648 11.2101 40.2274 8.89218C59.1435 4.85304 74.0662 3.38428 85.4019 9.3879C95.7305 14.8499 103.026 26.0034 110.586 47.879C113.985 57.7152 116.556 71.7466 118.228 89.5142C119.714 105.304 120.419 123.626 120.259 142.496C119.954 181.395 116.237 215.572 110.563 231.696L110.43 232.073L110.259 232.408C109.475 233.977 90.3877 270.899 69.7623 270.899ZM66.8138 15.4374C59.8052 15.4374 51.4093 16.6721 41.1097 18.8707C32.1886 20.7755 24.9246 28.56 19.5179 42.0176C10.7623 63.7968 8.71914 94.8017 8.54501 116.948C8.33316 144.189 10.9422 174.244 15.5275 197.345C20.6991 223.402 28.5407 240.775 39.4962 250.464C45.0102 255.325 52.3931 259.943 69.1152 260.787C86.0171 261.641 103.273 229.934 105.162 226.363C110.198 211.643 113.628 178.77 113.915 142.367C114.223 103.252 110.894 69.7362 105.014 52.7167C95.6724 25.7005 87.0096 15.4374 66.8138 15.4374Z" fill="#1B1B1B"/>
<path d="M55.205 257.896C53.8236 257.892 52.4457 257.68 51.0898 257.262C38.5236 253.448 28.4532 240.931 21.1834 220.084C11.2785 191.7 8.72751 154.526 8.33282 128.336C7.83656 95.3207 10.5355 68.4329 13.2664 57.4217C20.6755 27.422 28.6477 21.5102 30.3309 20.5738C44.1798 11.5454 56.717 16.14 66.5929 33.8571C77.6964 53.7819 85.0098 89.8862 86.6553 132.917C88.2311 174.07 84.2581 212.231 76.0335 235.001C69.466 253.122 61.6303 257.896 55.205 257.896ZM32.374 30.13C31.634 30.6625 25.4553 35.7665 19.2012 61.0845C16.6271 71.5036 14.2677 97.8635 14.7175 128.097C15.2515 163.522 19.5321 194.458 26.7729 215.205C33.0937 233.321 41.6782 244.121 52.2941 247.367C59.413 249.528 65.5336 243.695 70.4788 229.998C77.9982 209.178 81.7507 172.216 80.2706 133.532C78.7325 93.3011 71.8225 58.5417 61.7928 40.54C53.7539 26.1184 43.9564 22.5613 32.6671 29.9832L32.374 30.13Z" fill="#1B1B1B"/>
<path d="M106.108 220.951C101.943 225 96.6036 227.644 90.0099 228.612L46.9831 236.787C43.9425 237.074 40.8967 236.379 38.0313 234.744C35.166 233.11 32.5411 230.569 30.3167 227.278C28.0923 223.987 26.3149 220.013 25.093 215.6C23.871 211.187 23.23 206.427 23.209 201.61L25.2666 51.5466C25.1766 30.9379 32.7628 13.3585 45.7846 12.6195L85.1547 10.3796C89.8228 10.115 94.388 12.5884 97.9728 17.3245C101.558 22.0606 103.909 28.7252 104.576 36.0373L117.148 174.056C119.051 194.917 115.685 211.643 106.108 220.951Z" fill="#2B3954"/>
<path d="M106.108 220.952C103.419 221.945 100.688 222.634 97.9361 223.012L53.4641 231.205C40.6309 232.417 34.1214 223.343 34.0344 203.01L31.5907 51.5421C30.2209 30.5111 38.2396 13.074 52.1117 12.615L88.0835 10.5679C92.2209 11.3517 96.0793 14.2717 99.0611 18.8755C102.043 23.4793 103.981 29.5098 104.576 36.0328L117.148 174.052C119.052 194.918 115.685 211.643 106.108 220.952Z" fill="#B3DFFF"/>
<path d="M113.903 207.76C111.957 213.345 109.113 218.017 105.658 221.305C102.969 222.299 100.238 222.987 97.4859 223.366L53.0138 231.563C40.1806 232.775 33.6711 223.701 33.5841 203.367L31.1405 51.9C30.3018 39.0207 32.9833 27.4863 38.3784 20.3765C36.315 26.6509 35.4472 34.2242 35.9754 42.3346L38.419 193.802C38.5061 214.135 45.0155 223.21 57.8632 221.998L102.335 213.8C105.087 213.422 107.818 212.733 110.508 211.739C111.71 210.571 112.846 209.239 113.903 207.76Z" fill="#95C8E8"/>
<path d="M53.4638 17.9622C53.3982 17.6929 53.3745 17.4026 53.3946 17.1158C53.4147 16.8289 53.478 16.5539 53.5792 16.3138C53.6804 16.0737 53.8166 15.8754 53.9763 15.7358C54.136 15.5961 54.3146 15.5191 54.497 15.5112L87.1632 13.8956C90.6706 13.5731 94.1175 15.4442 96.7605 19.1051C98.9713 22.2166 100.447 26.4251 100.945 31.0388C102.443 43.8905 105.685 79.9901 106.459 88.7109C106.481 88.9491 106.469 89.1918 106.426 89.4225C106.383 89.6532 106.309 89.8665 106.209 90.048C106.109 90.2294 105.985 90.3749 105.847 90.4744C105.708 90.5739 105.558 90.6252 105.406 90.6249L97.8604 30.7956C97.8604 30.7956 96.4093 19.6467 89.7344 17.3426C82.2093 14.7493 53.458 17.953 53.458 17.953L53.4638 17.9622Z" fill="white"/>
<path d="M59.9561 105.285L84.0117 101.765L81.1851 105.285C81.1851 105.285 83.6693 124.462 81.7858 143.602L63.1251 147.159C63.1251 147.159 63.5518 118.706 59.9561 105.285Z" fill="#95C8E8"/>
<path d="M85.6364 170.292L81.7853 143.616C81.7853 143.616 83.7529 120.873 81.1846 105.299L84.0112 101.779C84.0112 101.779 87.1775 119.652 85.6364 170.292Z" fill="#75B2D8"/>
<path d="M87.5205 62.8055L89.8973 74.7163L101.378 50.7571L97.8955 41.8572C97.5776 41.0448 97.1337 40.3742 96.606 39.9091C96.0783 39.444 95.4843 39.1998 94.8801 39.1997H89.0266C88.1707 39.1995 87.3334 39.5951 86.6179 40.338L84.8999 42.1235C84.5167 42.5213 84.2087 43.0756 84.0085 43.7277C83.8082 44.3797 83.7231 45.1053 83.7622 45.8275L85.5963 79.2924L88.3156 78.3377C85.0508 66.8217 87.5205 62.8055 87.5205 62.8055Z" fill="#2B3954"/>
<path d="M76.9824 56.687H72.4463V47.9341L76.6167 47.8193L76.9824 56.687Z" fill="white"/>
<path d="M109.556 140.628C108.578 142.654 107.212 144.125 105.661 144.818C104.844 145.183 103.992 145.318 103.145 145.218H102.977C101.456 144.985 100.034 143.929 98.9485 142.229C97.8635 140.529 97.1829 138.288 97.0215 135.886C95.199 109.609 89.2641 79.7056 86.9772 68.8734C86.7102 67.6048 86.6747 66.2429 86.8749 64.9439C87.0751 63.6449 87.5029 62.4615 88.109 61.5295L90.9648 57.137L90.5904 54.8787C90.4554 54.0934 90.4454 53.2674 90.5614 52.4745C90.6774 51.6816 90.9156 50.9465 91.255 50.3347C93.9249 45.6622 97.2972 49.1 97.2972 49.1C103.267 64.5405 106.326 87.4351 107.899 106.474C108.844 117.802 109.397 129.204 109.556 140.628Z" fill="#95C8E8"/>
<path d="M105.661 144.814C104.844 145.179 103.992 145.314 103.145 145.213H102.977C101.456 144.98 100.034 143.924 98.9485 142.224C97.8635 140.524 97.1828 138.284 97.0215 135.882C95.199 109.604 89.2641 79.701 86.9772 68.8687C86.7102 67.6002 86.6747 66.2382 86.8749 64.9392C87.0751 63.6402 87.5029 62.4568 88.109 61.5249L90.9648 57.1323L90.5904 54.8741C90.4554 54.0888 90.4454 53.2628 90.5614 52.4699C90.6774 51.677 90.9156 50.9419 91.255 50.3301C92.471 54.2223 97.3843 70.3375 99.0414 82.0005C99.1005 82.4209 99.0881 82.8586 99.0055 83.269C98.9229 83.6793 98.7731 84.0478 98.5712 84.3368L97.4307 85.98C97.2327 86.2646 97.0851 86.626 97.0027 87.0286C96.9202 87.4311 96.9056 87.8608 96.9605 88.275L97.48 92.1351C97.5532 92.6821 97.7431 93.1726 98.0179 93.5244C98.2927 93.8763 98.6356 94.068 98.9892 94.0674C99.3323 94.0668 99.6657 94.2469 99.9369 94.5794C100.208 94.9118 100.401 95.3777 100.487 95.9034C101.671 103.293 105.905 131.048 105.661 144.814Z" fill="#75B2D8"/>
<path d="M107.324 155.926C107.55 166.914 108.052 184.558 109.559 195.349C109.663 196.078 110.67 202.624 111.23 203.34C112.475 204.574 113.758 192.967 114.185 190.736C116.196 180.179 115.926 169.406 116.701 158.478C116.756 157.675 117.351 121.469 116.913 112.331C116.265 98.9466 115.29 85.5945 113.595 72.3984C112.4 63.0993 110.647 54.1581 107.997 45.552C106.056 39.2546 105.208 32.2412 104.544 25.2783C108.54 30.7862 111.41 37.6344 113.851 44.9324C126.292 94.0445 122.99 147.802 122.473 161.672C120.552 184.65 118.773 208.949 111.956 215.833C111.053 217.05 109.504 216.862 108.473 215.044C106.584 212.836 105.739 209.701 105.145 206.218C104.053 199.833 104.053 193.247 103.554 186.756C103.006 179.651 102.344 163.857 101.888 156.734C101.778 154.902 107.298 154.65 107.324 155.926Z" fill="#2D2D2D"/>
<path d="M100.423 142.087L101.189 155.604C101.189 155.604 105.661 160.754 109.556 154.686L108.975 140.646C108.975 140.646 106.3 145.319 100.423 142.087Z" fill="#2B3954"/>
</svg>
