<svg width="118" height="284" viewBox="0 0 118 284" fill="none" xmlns="http://www.w3.org/2000/svg">
<path d="M46.7645 0.893112L82.3851 0.411162C87.0593 0.349781 91.5735 3.10087 95.0131 8.10704C98.4527 13.1132 100.56 20.0001 100.909 27.3724L105.326 120.823C105.686 128.44 105.733 136.086 105.469 143.713L102.482 229.898C102.054 242.239 99.1022 254.026 94.0703 263.483C89.0384 272.94 82.1996 279.554 74.5842 282.329L71.8736 283.316C66.0436 285.442 59.9705 285.238 54.2026 282.723C46.9214 279.549 40.4548 272.837 35.716 263.535C30.9773 254.233 28.2059 242.812 27.7933 230.885L24.7722 143.773C24.5497 137.386 24.5623 130.985 24.8099 124.601L28.5421 28.2399C28.8269 20.8803 30.866 13.9655 34.2478 8.89029C37.6297 3.81508 42.1026 0.957181 46.7645 0.893112Z" fill="#1F2937"/>
<path d="M102.415 143.672L100.427 201.069L99.9108 216.294L99.6671 223.334C99.2719 234.742 96.5429 245.638 91.8915 254.38C87.2402 263.121 80.9184 269.235 73.8788 271.799L71.3743 272.717C65.9856 274.682 60.3725 274.494 55.0412 272.171C48.3102 269.237 42.3321 263.033 37.9511 254.434C33.5701 245.836 31.0077 235.278 30.6256 224.252L30.408 218.015L29.932 204.273L27.8338 143.731C27.6277 137.828 27.6394 131.911 27.8686 126.01L31.3192 36.9653C31.5822 30.1604 33.4675 23.7666 36.5948 19.0744C39.7221 14.3822 43.8584 11.7411 48.1689 11.684L81.0935 11.225C85.4142 11.1687 89.5868 13.7121 92.7661 18.3398C95.9454 22.9676 97.8936 29.3336 98.216 36.1483L102.296 122.526C102.624 129.563 102.664 136.627 102.415 143.672Z" fill="#6DA4E3"/>
<path d="M34.422 152.493C43.4737 146.366 66.9258 134.593 94.5395 152.828C94.975 153.119 95.448 153.24 95.9192 153.183C96.3905 153.126 96.8464 152.893 97.249 152.501C97.6517 152.11 97.9895 151.572 98.2345 150.933C98.4794 150.294 98.6245 149.572 98.6576 148.826L99.2902 134.304C99.5735 127.8 98.3294 121.361 95.7963 116.219C93.2633 111.077 89.6194 107.594 85.5632 106.438L85.3659 106.379C85.1914 106.331 85.0147 106.307 84.8377 106.305H44.1238C43.9359 106.305 43.7484 106.333 43.5637 106.388C39.6533 107.576 36.1386 110.929 33.6504 115.846C31.1623 120.763 29.8637 126.921 29.9876 133.216L30.2778 148.321C30.2921 149.087 30.4248 149.836 30.6641 150.502C30.9035 151.168 31.2424 151.732 31.6511 152.143C32.0599 152.555 32.5261 152.802 33.0091 152.863C33.4921 152.924 33.9772 152.797 34.422 152.493Z" fill="#2161AA"/>
<path d="M63.0949 75.5669H62.8047C61.6715 75.5669 60.7529 77.0198 60.7529 78.812V92.4807C60.7529 94.2729 61.6715 95.7257 62.8047 95.7257H63.0949C64.2281 95.7257 65.1467 94.2729 65.1467 92.4807V78.812C65.1467 77.0198 64.2281 75.5669 63.0949 75.5669Z" fill="white"/>
<path d="M82.4958 152.645C83.1032 152.645 83.5957 151.867 83.5957 150.908C83.5957 149.948 83.1032 149.17 82.4958 149.17H46.8113C46.2039 149.17 45.7114 149.948 45.7114 150.908C45.7114 151.867 46.2039 152.645 46.8113 152.645H82.4958Z" fill="white"/>
<path d="M57.4383 190.351H69.4994C70.4595 190.35 71.3894 190.882 72.1263 191.856C72.8632 192.829 73.3603 194.181 73.5305 195.675L76.8969 225.051C76.9883 225.831 76.9883 226.63 76.8969 227.41L74.0152 251.535C73.8379 253.019 73.3384 254.359 72.6029 255.323C71.8674 256.286 70.9422 256.813 69.987 256.813H56.9275C55.9494 256.82 55.002 256.273 54.2568 255.271C53.5116 254.269 53.0177 252.879 52.8645 251.351L50.1772 224.693C50.1027 223.958 50.1095 223.207 50.1975 222.476L53.3898 195.63C53.5671 194.139 54.0695 192.795 54.8093 191.83C55.5491 190.866 56.4795 190.342 57.4383 190.351Z" fill="#2161AA"/>
<path d="M100.428 201.073L94.9776 237.086C93.8168 245.66 89.896 252.319 84.7708 254.472L82.4492 255.441C70.0831 260.619 57.0606 260.397 44.768 254.798C39.6516 252.466 35.8179 245.641 34.6367 234.754L29.9121 204.268L30.388 218.01L32.7765 237.659C33.978 247.569 38.3689 255.386 44.2312 258.057C56.8608 263.81 70.2407 264.037 82.9454 258.713L85.2671 257.745C91.1381 255.285 95.619 247.647 96.9597 237.834L99.9112 216.293L100.428 201.073Z" fill="#111827"/>
<path d="M65.5937 338.734H60.7327C59.754 338.736 58.8147 338.125 58.1194 337.036C57.4242 335.947 57.0293 334.467 57.0209 332.919L56.5826 256.377L54.3132 254.082L53.1523 236.03L56.4579 204.135C56.6263 202.503 57.1572 201.02 57.9551 199.951C58.753 198.883 59.7656 198.299 60.811 198.306H65.9188C66.9662 198.301 67.9802 198.888 68.7783 199.961C69.5763 201.034 70.106 202.522 70.2719 204.158L73.4643 235.576L72.6865 254.624L70.7856 256.8L69.3346 333.029C69.3072 334.565 68.9002 336.023 68.2007 337.09C67.5013 338.157 66.5653 338.747 65.5937 338.734Z" fill="#1F2937"/>
<path d="M117.293 482.445C116.59 458.238 116.535 433.998 116.402 409.782C116.326 396.012 116.521 382.183 116.692 368.381C117.055 339.707 116.248 311.076 114.907 282.476C114.695 277.978 114.152 273.392 114.739 268.83C114.713 263.193 113.401 251.195 113.366 250.732C112.533 239.487 111.845 228.241 110.777 217.014C109.059 199.013 105.493 182.278 98.2982 167.806C96.7862 165.052 94.6212 164.666 92.5752 163.895C84.0662 160.682 75.3569 160.788 66.7057 160.223C59.5113 159.764 52.3025 159.581 45.0965 159.512C40.5402 159.47 36.2915 160.723 32.4549 164.763C30.2174 166.314 28.5428 168.71 27.7418 172.451C25.0465 178.217 22.6411 184.308 20.5475 190.668C20.147 191.866 19.6565 193.041 19.6449 194.482C19.7135 195.095 19.6886 195.724 19.5724 196.318C14.2292 221.123 10.6396 246.787 8.86935 272.841C7.77525 289.269 6.93941 305.733 6.66371 322.192C6.42574 336.325 6.19068 350.453 5.70022 364.567C5.01823 384.234 4.08086 403.884 2.4905 423.428C1.18164 439.552 0.250061 455.681 0.459014 471.957C0.511252 475.739 1.25128 479.517 0.554771 483.308C0.314645 487.679 0.461163 492.082 0.990089 496.389C2.03195 503.88 1.86071 511.536 2.34826 519.137C3.31467 534.215 2.77198 549.43 3.26534 564.549C3.77902 580.343 3.3292 596.22 3.42207 612.037C3.53525 631.135 3.52654 650.262 5.99334 669.08C7.18902 678.196 8.79967 687.114 12.6508 694.527C14.8709 696.087 16.3539 694.169 17.6308 691.722C19.7204 687.711 20.7361 682.91 21.1366 677.861C22.2075 664.385 23.6615 650.973 23.705 637.332C23.7282 629.699 23.8646 622.061 23.9604 614.428C24.2506 590.313 25.0429 566.234 25.1212 542.082C25.159 532.627 25.0719 523.144 25.6378 513.702C26.2182 504.128 26.7986 494.553 27.2891 484.969C28.7402 457.329 28.0698 429.762 26.2269 402.208C25.1202 385.66 24.4373 369.059 24.178 352.403C23.8298 330.119 24.0184 307.817 23.1565 285.546C22.4426 267.09 22.4397 248.625 23.5947 230.183C23.8588 225.946 24.4102 221.724 24.2303 217.423C22.0624 217.423 21.9463 220.269 21.5777 222.472C19.3431 235.929 18.1503 249.598 17.596 263.414C17.6473 260.315 17.5911 257.213 17.4277 254.124C17.1172 248.708 17.5176 243.526 17.982 238.247C19.2705 223.605 23.2407 210.189 25.6668 196.066C26.4417 191.559 27.7447 187.345 30.583 184.931C30.9661 183.407 34.1961 170.748 47.0874 170.036C50.8282 169.389 76.6426 170.349 85.7668 171.537C100.405 172.047 104.065 206.214 104.158 209.358C104.284 212.629 104.541 215.883 104.927 219.103C106.507 233.387 107.359 247.849 107.475 262.349C107.968 324.772 106.976 387.195 108.055 449.618C108.261 461.506 108.723 473.384 108.865 485.281C108.94 491.505 109.059 497.789 109.428 504.008C110.284 518.37 109.918 532.622 108.667 546.901C107.115 564.605 100.6 562.594 98.2982 559.482C96.2667 556.728 95.5818 552.9 94.6821 549.219C90.5814 532.411 90.416 514.62 89.5483 497.018C88.9417 484.708 88.6022 472.347 87.4791 460.133C84.9397 432.47 84.4173 404.563 83.1259 376.748C82.5687 364.894 82.0666 353.034 81.6197 341.167C81.3295 333.171 80.5082 325.272 79.9278 317.345C79.3473 309.419 77.9253 293.854 77.4987 285.964C77.2578 281.539 75.8503 280.479 73.1455 282.205C73.0294 284.959 73.7259 295.493 74.08 298.238C74.3702 304.016 74.4979 309.827 74.9506 315.569C77.2259 343.733 78.6769 372.025 79.742 400.34C80.752 427.141 81.3759 453.983 82.1595 480.806C82.676 498.487 83.0998 516.176 84.6147 533.737C85.3315 542.068 86.2921 550.316 88.1146 558.243C89.4467 564.045 91.307 569.346 94.2874 573.495C102.219 584.511 107.243 574.904 108.508 573.036C114.448 564.366 116.97 553.433 117.31 540.907C117.869 521.415 117.863 501.928 117.293 482.445ZM18.2751 319.044C19.4011 331.436 19.6681 343.875 20.1818 356.295C20.8667 372.897 21.0263 389.554 22.6602 406.036C23.6353 415.845 24.5814 425.723 24.4015 435.641C24.0242 455.176 22.1088 474.518 20.9596 493.933C19.9815 510.457 18.8729 526.953 18.8236 543.555C18.7336 572.724 19.169 601.911 18.159 631.053C17.7876 641.752 17.6628 652.501 16.5077 663.132C16.2814 665.206 16.0434 666.505 14.8361 667.263C14.1483 667.855 13.4286 668.681 13.0136 666.804C12.7333 665.341 12.5248 663.846 12.3896 662.333C10.2769 644.208 10.3581 625.807 10.1956 607.534C9.87057 572.256 10.2769 536.959 8.82872 501.727C8.50658 493.924 8.70102 486.121 8.16993 478.401C7.24416 464.921 7.85649 451.527 8.58782 438.157C9.60356 419.595 11.7076 401.226 12.5318 382.619C13.5737 359.169 14.7316 335.737 14.7461 312.2C14.7461 295.887 13.7478 290.825 15.9331 287.414C16.2005 287.378 16.4564 287.226 16.6728 286.975C16.8893 286.724 17.0581 286.384 17.1607 285.992C17.0736 297.049 17.2797 308.083 18.2751 319.039V319.044Z" fill="#374151"/>
<path d="M67.8395 711.262C65.0216 715.246 61.8437 715.852 58.5527 713.038C55.7957 710.674 54.0661 706.805 52.6411 702.6C48.7784 691.19 46.1433 679.151 45.1479 666.23C43.8796 649.835 43.3311 633.357 42.9858 616.874C42.1354 576.561 42.0774 536.234 42.5911 495.902C42.8494 475.592 42.6955 455.268 42.9422 434.953C43.2324 411.893 42.771 388.815 43.4936 365.764C43.9435 351.435 44.5993 337.114 45.0347 322.78C45.3249 312.866 45.4119 302.933 45.6151 293.01C45.647 291.339 45.6151 280.653 45.6935 278.987C48.9351 277.808 51.1813 288.805 51.1175 293.813C51.0072 302.249 50.9434 310.681 50.5603 319.135C50.154 328.205 49.7448 337.321 49.5445 346.441C49.0367 369.39 48.9641 392.34 48.909 415.29C48.909 421.715 49.6345 428.073 49.5155 434.485C49.2253 450.343 48.7755 466.183 47.9832 482.009C47.3592 494.475 47.2432 506.996 46.6598 519.472C45.7399 539.135 45.9691 558.839 46.0794 578.526C46.2303 605.537 47.4376 632.416 50.7837 658.978C51.9446 668.208 52.6469 677.604 54.9889 686.366C55.4562 688.147 55.996 689.896 56.44 691.695C57.2874 695.013 58.7443 696.652 61.0283 696.326C63.913 695.211 64.1161 691.369 64.5514 687.761C65.8603 676.943 64.7633 666.143 64.3657 655.361C63.8317 640.898 62.5403 626.545 62.221 612.023C61.6841 587.485 61.3243 562.911 60.4362 538.414C60.0386 527.398 60.265 516.438 59.9661 505.468C59.1999 477.24 59.8616 448.98 59.2754 420.77C58.8691 401.222 59.078 381.618 58.0158 362.102C57.8678 359.421 57.9926 356.539 57.862 354.046C57.7314 351.554 57.1975 345.651 58.4918 343.531C63.4922 341.603 65.039 349.498 65.1667 357.581C65.5614 383.284 65.1377 408.956 65.1667 434.641C65.1667 447.713 65.2363 460.803 65.6136 473.829C66.3739 500.05 67.3326 526.263 68.4896 552.469C69.6504 578.631 71.7255 604.688 72.3291 630.956C72.6193 644.194 73.3419 657.449 73.6757 670.7C73.9659 682.01 73.429 693.333 70.5356 704.01C69.8188 706.63 68.4925 708.627 67.8395 711.262Z" fill="#404040"/>
<path d="M54.4847 688.702C52.8479 682.143 51.7915 675.323 50.7816 668.47C48.5585 653.424 46.8028 638.259 45.8944 622.873C45.5462 616.948 45.4011 610.995 45.1747 605.051C44.3041 582.308 44.5507 559.542 44.6726 536.78C44.7162 528.707 45.253 520.638 45.5636 512.564C45.6158 511.187 45.6855 509.81 45.7087 508.433C45.9466 493.933 46.9102 479.489 47.27 465.012C47.6009 451.619 48.399 438.249 47.717 424.745C47.1162 412.898 47.5399 400.919 47.5341 388.999C47.5341 375.862 47.9897 362.758 48.547 349.658C48.9039 341.282 48.9997 332.878 49.2783 324.492C49.5685 315.799 49.7687 307.105 49.9574 298.407C50.0735 293.019 48.9271 280.608 45.6826 278.974V277.17C46.1817 275.508 45.729 273.704 46.0018 272.011C48.4309 269.895 52.0643 272.19 53.498 276.743C54.061 279.41 54.2177 291.192 54.1509 293.932C53.765 309.492 52.9901 325.015 52.2065 340.534C51.5782 353.179 51.5782 365.883 52.2065 378.529C52.43 383.119 52.4068 387.709 52.4126 392.267C52.4358 407.244 52.6447 422.23 52.3719 437.193C51.9279 461.451 51.3562 485.704 50.8367 509.957C50.5059 525.356 50.4014 540.787 51.0921 556.219C51.6435 568.556 51.3562 580.967 51.2314 593.342C50.9209 623.69 52.2675 653.787 56.2434 683.529C56.345 684.277 58.0224 694.38 57.9847 695.146C57.6393 696.56 56.2695 694.412 54.4847 688.702Z" fill="#111827"/>
<path d="M24.2533 217.395C22.9271 220.888 22.6746 224.904 22.1261 228.746C20.4428 240.528 19.7463 252.522 18.957 264.52C18.3765 273.355 18.69 282.205 18.0863 291.027C17.5843 298.159 18.4026 305.338 18.7944 312.471C19.4213 323.863 20.4457 335.191 20.9043 346.62C21.5582 362.905 22.3321 379.175 23.226 395.429C23.612 402.41 24.4216 409.336 25.0572 416.286C26.1716 428.44 25.777 440.58 25.1588 452.771C24.5465 464.815 23.0344 476.638 22.1202 488.6C21.8068 492.685 21.7227 496.82 21.5892 500.919C21.3483 508.382 20.9913 515.841 20.7185 523.3C19.7057 551.532 20.7186 579.788 20.1207 608.007C19.7492 625.513 19.7928 643.106 17.9238 660.474C17.5233 664.215 17.1228 667.951 15.9503 671.623C15.8052 670.558 15.6601 669.498 15.5208 668.41C14.1278 667.033 14.122 664.738 14.2294 662.682C14.8098 651.721 14.5951 640.724 15.042 629.754C15.3525 622.144 15.8633 614.538 15.8836 606.905C15.9242 589.188 16.0403 571.462 15.8575 553.745C15.6485 533.37 17.1286 513.206 18.4984 493.025C19.6593 475.867 20.7795 458.692 20.8491 441.443C20.8985 429.702 19.6883 418.034 19.1369 406.303C18.6029 394.74 17.7149 383.206 17.6539 371.598C17.5233 346.854 16.493 322.201 14.952 297.581C15.2596 223.559 26.1136 189.585 28.0348 185.128C28.534 183.967 28.8155 182.144 30.1331 182.571C30.847 186.491 25.6522 204.865 24.9092 211.566C24.7119 213.535 24.4768 215.481 24.2533 217.395Z" fill="#111827"/>
<path d="M117.356 540.906C117.017 553.414 114.495 564.347 108.554 573.036C107.277 574.899 105.6 575.84 104.436 577.887C104.105 576.084 105.057 575.427 105.707 574.674C113.407 565.793 116.32 553.207 116.471 538.823C116.654 521.266 116.834 503.682 116.41 486.144C115.603 452.711 116.12 419.278 115.984 385.85C115.94 374.834 116.213 363.818 115.865 352.871C115.45 339.9 115.635 326.92 115.22 313.972C114.959 305.889 114.93 297.806 114.765 289.728C114.66 284.541 114.071 279.405 114.21 274.195C114.257 272.359 114.115 270.523 114.744 268.839C114.164 273.401 114.701 277.987 114.913 282.485C116.254 311.084 117.06 339.716 116.698 368.39C116.521 382.192 116.326 396.016 116.407 409.791C116.541 434.007 116.596 458.247 117.298 482.454C117.857 501.936 117.877 521.421 117.356 540.906Z" fill="#020202"/>
<path d="M19.6444 194.478C20.4135 195.928 19.9114 197.378 19.627 198.806C16.2838 215.733 13.5616 232.909 11.8755 250.442C10.9903 259.622 10.5608 268.935 9.80335 278.156C8.72376 291.325 8.14334 304.558 7.59485 317.795C7.45554 321.146 7.49038 324.51 7.49328 327.87C7.49328 344.972 6.6023 361.996 5.86516 379.034C5.61268 384.817 5.39502 390.614 5.28474 396.393C5.01194 409.075 4.36187 421.665 2.89921 434.149C1.25951 448.167 0.827094 462.318 1.07958 476.547C1.12021 478.809 1.32626 481.136 0.577518 483.28C0.358131 481.247 0.306421 479.178 0.423697 477.125C-0.156725 471.273 0.629759 465.333 0 459.481V448.507C0.623955 443.582 -0.162497 438.551 0.420828 433.622C0.661703 423.983 1.70066 414.509 2.45231 404.976C3.85693 387.534 4.75078 370.093 5.24705 352.536C5.88551 329.811 5.82744 307.05 6.92154 284.357C8.32582 254.64 12.3302 225.374 18.8202 197.397C19.0524 196.396 19.3687 195.451 19.6444 194.478Z" fill="#111827"/>
<path d="M79.2397 287.672C78.9088 297.815 80.8329 315.56 81.8312 325.493C83.0298 337.426 83.8279 349.406 84.4838 361.423C85.4241 378.612 86.3441 395.806 87.1538 413.013C88.1753 434.632 88.8776 456.292 90.0936 477.883C91.1442 496.587 91.6288 515.35 92.8013 534.031C93.2743 541.563 94.2523 548.852 96.9049 555.287C98.7651 559.817 101.258 562.659 104.947 561.286C104.532 564.297 103.037 563.925 101.754 563.581C98.8812 562.819 96.9136 559.969 95.5147 556.081C93.9737 551.794 93.0393 547.122 92.2702 542.389C90.3399 530.718 89.1164 518.782 88.6164 506.744C87.8183 486.19 86.6662 465.687 84.8436 445.276C84.0514 436.381 83.6509 427.375 83.3926 418.388C83.0617 406.812 82.3827 395.269 81.8864 383.707C81.66 378.378 81.5091 373.049 81.2537 367.724C80.9113 360.583 80.6936 353.409 80.4353 346.257C79.9826 333.777 79.0917 321.339 77.9714 308.946C77.5913 304.723 77.1966 300.468 77.1356 296.214C77.0863 292.789 75.4321 282.967 73.3948 282.044C73.3948 280.452 72.9363 278.515 74.2654 277.716C75.5946 276.917 76.9847 276.123 78.4445 276.798C79.1381 277.119 79.0481 278.216 79.0713 279.093C79.1352 281.943 79.1845 284.789 79.2397 287.672Z" fill="#111827"/>
</svg>
