<svg width="141" height="363" viewBox="0 0 141 363" fill="none" xmlns="http://www.w3.org/2000/svg">
<path d="M6.57369 146.215C9.54836 147.455 12.642 148.157 15.3062 150.847C16.3451 151.898 17.5466 152.641 18.4347 154.835C14.5226 158.649 12.5811 164.626 11.5857 171.455C10.2013 180.933 10.5496 190.223 13.0367 199.201C13.2689 200.037 13.4836 200.978 13.8783 201.588C17.1461 206.637 17.5408 213.522 18.4753 219.975C19.3778 226.213 19.9815 232.556 20.826 238.794C21.1162 241.034 20.6606 242.117 19.4156 243.054C14.6863 246.578 10.5148 251.729 7.20635 258.131C5.6305 241.557 3.27107 225.222 1.05095 208.849C-2.83209 179.97 5.27065 169.087 5.60149 160.811C5.76111 156.763 5.24743 152.673 5.92362 148.657C6.08033 147.794 6.08033 146.858 6.57369 146.215Z" fill="#1F2937"/>
<path d="M128.945 257.897C128.191 257.011 127.909 255.777 127.837 254.345C127.45 246.328 127.045 238.312 126.624 230.298C126.226 222.725 125.527 215.211 124.728 207.725C124.467 205.178 124.311 202.607 124.261 200.027C123.748 198.843 123.748 197.402 123.472 196.103C123.182 194.07 123.33 191.885 122.688 189.957C122.581 188.011 122.581 186.037 122.032 184.215C120.471 171.015 118.721 157.892 115.871 145.201C115.247 142.415 114.71 139.578 113.97 136.856C112.142 128.829 109.925 121.062 107.586 113.37C107.217 112.149 106.715 110.969 106.854 109.491C106.207 104.828 105.766 100.174 106.953 95.5425C108.921 99.2511 110.853 102.997 112.159 107.421C115.9 121.12 119.089 135.18 121.707 149.515C124.337 163.694 126.493 177.973 127.869 192.661C129.244 207.348 130.022 221.967 129.827 236.765C129.827 237.83 129.909 238.913 129.616 239.928C129.749 245.938 129.525 251.954 128.945 257.897Z" fill="#010101"/>
<path d="M129.627 239.914C129.586 236.554 129.432 233.189 129.522 229.843C129.709 221.59 129.287 213.331 128.263 205.232C126.547 191.132 125.053 176.949 122.65 163.083C121.402 155.863 120.125 148.643 118.601 141.561C116.57 132.156 115.093 122.476 112.698 113.269C112.232 111.411 112.051 109.406 112.17 107.417C114.823 112.924 116.651 119.135 118.419 125.377C124.179 145.738 127.453 167.145 128.979 189.264C129.975 203.977 130.32 218.782 130.013 233.57C129.972 235.696 130.062 237.844 129.627 239.914Z" fill="#1B1B1B"/>
<path d="M10.4049 227.099C10.2714 228.788 10.7532 231.454 9.24406 232.01C7.55213 232.625 7.47086 229.715 7.05876 228.021C5.58739 222.018 4.85025 215.706 4.30756 209.354C3.99703 205.705 4.66742 203.043 5.75862 203.144C7.58985 203.318 7.92069 205.93 8.35311 208.014C9.62133 214.132 10.0102 220.521 10.4049 227.099Z" fill="#1E1E1E"/>
<path d="M106.805 141.837C103.206 62.5686 122.262 183.045 125.646 200.835C129.83 245.954 128.806 291.385 132.55 336.357C136.235 411.696 136.729 488.031 137.396 563.673C137.64 591.006 149.417 738.393 124.551 722.98C107.977 713.158 109.315 626.945 107.121 600.383C107.94 522.97 104.06 444.785 88.7567 370.516C88.7712 360.679 73.7614 314.156 86.5163 318.149C87.9122 319.476 88.0631 321.821 88.3823 323.992C96.0671 370.584 109.127 415.538 110.984 464.118C114.336 516.516 116.611 569.043 117.618 621.731C120.265 645.915 117.122 694.055 125.164 712.327C140.76 695.477 130.097 530.36 129.262 493.571C126.763 374.927 132.245 254.583 106.805 141.837Z" fill="#2B2B2B"/>
<path d="M124.473 711.763C126.107 711.304 126.853 709.435 127.491 707.283C129.296 701.21 129.714 694.679 130.074 688.134C131.894 654.907 131.328 621.621 130.994 588.344C130.791 568.176 129.447 548.123 128.643 528.014C127.718 504.858 126.957 481.693 126.58 458.491C126.063 426.898 125.373 395.315 124.766 363.727C124.737 362.208 124.804 360.684 124.824 359.16C124.505 357.99 124.621 356.755 124.624 355.543C124.659 338.198 124.54 320.853 123.913 303.53C123.138 282.114 122.479 260.67 119.713 239.574C118.944 231.427 118.146 223.285 117.415 215.128C116.185 201.359 114.513 187.745 112.522 174.209C112.307 172.745 111.942 171.331 111.651 169.895C112.374 168.816 112.853 169.211 113.123 170.547C114.011 174.907 114.998 179.226 115.735 183.646C118.347 199.298 120.259 215.211 122.589 230.968C123.953 240.185 125.55 249.328 126.313 258.737C126.975 266.898 127.407 275.105 127.935 283.289C128.559 293.033 128.362 302.791 128.751 312.527C129.238 324.676 129.331 336.927 128.556 349.122C128.324 352.002 128.318 354.915 128.539 357.797C128.948 362.217 128.829 366.628 128.968 371.044C129.885 403.848 129.334 436.679 129.627 469.488C129.717 479.37 130.541 489.225 131.116 499.102C131.406 504.115 131.302 509.141 131.717 514.166C132.239 520.496 132.193 526.94 132.468 533.329C132.744 539.719 133.133 546.085 133.432 552.469C133.722 558.395 134.079 564.325 134.154 570.264C134.276 580.032 134.183 589.808 134.207 599.585C134.207 604.767 134.099 609.944 134.645 615.117C134.889 617.691 134.909 620.305 134.706 622.888C133.705 636.901 134.436 650.955 134.195 664.987C133.986 677.349 133.006 689.648 131.27 701.706C130.736 705.424 130.065 709.137 128.693 712.35C127.097 716.091 125.013 716.481 122.555 713.727C122.09 710.354 123.443 711.451 124.473 711.763Z" fill="black"/>
<path d="M122.647 304.921C117.748 328.398 110.168 349.085 97.7524 364.755C97.0065 365.696 96.3303 366.843 95.3378 367.183C94.5571 363.869 93.5762 360.647 93.5762 356.998C93.7272 356.826 93.9067 356.727 94.0928 356.713C96.2548 357.751 97.9206 356.847 99.4646 354.106C105.365 343.646 110.96 332.864 115.04 320.306C115.798 317.97 116.538 315.67 116.491 313.008C116.361 306.729 117.31 300.675 117.942 294.557L121.405 273.489C122.856 273.388 122.856 275.385 122.92 276.629C123.419 284.789 123.5 292.996 123.976 301.157C124.069 302.943 123.427 303.962 122.647 304.921Z" fill="#010101"/>
<path d="M117.931 294.548C117.931 300.634 117.905 306.72 117.957 312.802C117.973 315.547 117.511 318.247 116.622 320.605C113.531 329.211 110.388 337.776 106.221 345.22C103.417 350.223 100.759 355.447 97.674 360.036C96.0517 362.451 95.8573 362.359 94.8328 359.174C94.5716 358.361 94.3395 357.526 94.0928 356.7C105.748 340.254 112.666 319.251 117.42 296.163C117.564 295.605 117.735 295.065 117.931 294.548Z" fill="#1B1B1B"/>
<path d="M122.647 304.921C123.227 301.033 123.094 297.187 122.783 293.217C122.386 288.131 122.51 282.954 122.034 277.85C121.895 276.358 121.944 274.82 121.393 273.489C121.724 264.043 120.522 254.79 119.98 245.449C119.869 243.499 119.562 241.566 119.713 239.583C121.297 246.193 121.872 253.17 122.545 260.082C123.723 272.144 123.944 284.335 124.449 296.499C125.267 316.18 124.588 335.852 124.974 355.52C124.998 356.732 124.876 357.948 124.823 359.192C124.08 352.271 124.472 345.262 124.243 338.303C123.903 328.449 123.639 318.59 123.314 308.74C123.259 307.4 123.462 305.917 122.647 304.921Z" fill="#1C1C1C"/>
<path d="M86.0078 365.118C82.0319 367.816 78.0241 370.263 73.6709 371.14C69.3177 372.016 65.0458 371.277 60.8 369.685C59.2444 369.102 58.5944 367.986 58.6669 365.297C58.841 358.926 58.8033 352.537 58.8498 346.157C58.3883 341.319 58.8497 336.467 58.7656 331.625C58.693 327.159 58.3361 326.521 55.4746 325.869C54.0525 325.548 52.6334 325.194 51.2114 324.855C51.104 335.384 51.0111 345.909 50.8776 356.438C50.8573 358.058 51.1214 359.77 50.4365 361.487C49.0725 361.028 48.0945 359.532 47.0671 358.247C41.2339 350.953 36.6804 341.916 32.8467 331.923C26.8248 316.212 23.2697 299.014 20.6259 281.264C20.3966 279.722 20.1674 278.203 21.6939 277.95C22.0364 277.876 22.3479 277.596 22.5639 277.169C22.7799 276.742 22.884 276.2 22.8547 275.655C22.7764 271.189 24.2042 267.063 23.9779 262.583C24.0533 262.381 24.1317 262.184 24.2071 261.987C24.2071 261.849 24.2071 261.711 24.2071 261.578C24.4103 256.134 23.8966 250.714 23.9169 245.275C24.1839 242.36 23.3365 239.643 23.3365 236.774C22.9331 229.384 22.3033 222.041 21.5604 214.743C20.417 203.525 18.6583 192.371 21.0961 181.002C21.3999 179.562 21.3999 178.004 21.0961 176.564C21.6533 173.736 21.6097 170.849 21.4443 167.953C21.3166 165.681 21.0177 163.404 21.0409 161.141C21.1338 153.054 20.3908 145.04 20.2661 136.966C20.1964 132.275 19.8191 127.562 19.8046 122.839C19.8046 121.306 19.7321 119.786 19.1836 118.441C18.4929 118.63 17.9618 119.286 17.4423 119.961C12.3142 126.671 8.73593 135.107 6.44325 144.925C6.36518 145.112 6.31337 145.323 6.29134 145.544C6.26931 145.765 6.27757 145.99 6.31556 146.206C6.7857 148.634 8.1584 149.153 9.43243 149.795C10.7065 150.438 12.0443 150.86 13.2632 151.829C15.315 153.476 15.5037 154.918 14.1339 157.896C7.92914 171.258 7.56637 190.421 13.2632 204.255C14.3718 206.944 15.495 209.602 15.9274 212.81C16.8474 219.658 17.8979 226.465 18.5393 233.401C19.1719 240.079 19.1661 240.019 15.6168 243.76C12.0676 247.501 8.1526 250.672 7.16588 258.149C7.43867 264.075 8.66047 269.666 9.60366 275.352C9.85615 276.881 10.0825 278.432 11.2347 278.749C12.2243 279.02 12.4361 280.011 12.4797 281.338C12.5232 282.664 12.6306 284.092 12.6596 285.469C13.0862 303.787 13.951 322.064 14.7462 340.346C15.7271 362.896 17.0331 385.414 17.8602 407.974C18.6728 430.083 19.1633 452.23 19.6015 474.367C20.3251 510.407 20.7662 546.456 20.9248 582.515C21.0699 625.912 21.4588 669.264 24.4683 712.478C25.0836 721.282 25.8759 730.039 27.237 738.641C27.7432 742.081 28.8492 745.228 30.4293 747.724C32.1508 750.484 34.2486 752.584 36.5622 753.864C38.8758 755.144 41.3439 755.57 43.7776 755.11C46.2114 754.65 48.5463 753.315 50.6038 751.209C52.6614 749.102 54.387 746.279 55.6487 742.955C58.0459 736.764 59.5521 729.952 60.4459 722.902C62.8634 703.826 63.8501 684.494 63.8414 665.069C63.8414 649.638 63.6412 634.206 63.4583 618.78C63.261 602.426 62.3903 586.145 61.1918 569.902C60.3211 557.926 59.1603 546.034 59.1777 533.875C59.2038 520.436 58.841 506.992 58.574 493.553C58.0401 466.674 57.6512 439.791 57.8195 412.899C57.8775 403.581 58.1097 394.268 58.2925 384.951C58.3158 383.652 58.0691 382.068 59.2909 381.637C60.9596 378.043 63.2842 379.282 65.4085 379.759C71.5458 381.188 77.813 379.996 83.5613 376.308C92.5637 370.557 92.0036 360.064 86.0078 365.118ZM56.5077 678.742C55.9281 693.536 54.5838 708.23 52.4883 722.677C51.9079 726.56 50.9763 730.218 49.978 733.881C48.4021 739.651 45.1808 741.018 41.8143 742.001C40.1572 742.46 38.8396 740.807 37.6701 739.219C35.4732 736.191 33.8633 732.242 33.0267 727.827C31.2593 719.042 30.5657 709.954 29.7183 700.884C27.1064 672.922 28.035 644.759 27.6432 616.677C27.2079 585.663 27.4981 554.631 26.7726 523.626C26.3982 507.749 25.7569 491.891 25.1881 476.028C24.448 455.287 23.5571 434.559 22.9186 413.812C22.3382 395.039 22.048 376.253 21.5749 357.475C21.305 346.79 20.9074 336.114 20.594 325.429C20.5272 323.193 20.594 320.944 20.594 318.704L21.1077 318.516C22.6458 323.106 24.1984 327.659 25.722 332.249C28.6503 341.076 32.0458 349.411 36.1697 356.975C39.8496 363.736 43.959 369.758 48.8026 374.366C50.3407 375.826 50.8515 377.492 50.8341 380.246C50.7122 395.852 50.7528 411.421 50.6309 427.008C50.4365 451.624 50.8051 476.217 51.9398 500.764C53.2835 529.864 54.8419 558.941 56.293 588.027C56.8734 599.461 57.2071 610.903 57.1636 622.374C57.0678 641.165 57.2797 659.965 56.5077 678.742Z" fill="#1B1B1B"/>
<path d="M66.2332 331.015C42.9959 331.015 23.9319 301.414 23.1164 264.066L18.5804 56.4271C17.9303 26.6247 32.5802 1.7336 51.119 1.1415L73.6539 0.420883C92.0708 -0.166627 107.269 23.4531 107.53 53.0719L109.376 260.637C109.707 299.344 90.3034 331.015 66.2332 331.015Z" fill="#85C0C0"/>
<path d="M96.5023 14.0714C91.0655 8.59931 84.7257 5.79635 78.2828 6.01608L55.7478 6.7367C37.2091 7.3288 22.5592 32.2199 23.2238 62.0223L27.7598 269.657C27.9516 279.19 29.3788 288.56 31.9532 297.185C34.5276 305.811 38.1942 313.508 42.726 319.801C36.8843 313.659 32.0562 305.395 28.645 295.7C25.2337 286.005 23.3381 275.16 23.1164 264.071L18.5804 56.4272C17.9303 26.6248 32.5802 1.73369 51.119 1.14159L73.6539 0.420965C82.0973 0.148444 90.2816 5.03805 96.5023 14.0714Z" fill="#2BABAD"/>
<path d="M76.1785 297.118H54.5403C47.7848 297.115 41.2927 292.972 36.4274 285.56C31.562 278.147 28.7018 268.042 28.4474 257.365L24.5092 92.4077C24.355 86.0192 25.0174 79.6471 26.4569 73.673C27.8963 67.6989 30.0832 62.2456 32.8865 57.6397C35.6899 53.0337 39.052 49.3697 42.7718 46.8672C46.4915 44.3646 50.4922 43.0749 54.5345 43.0752H73.2793C81.2477 43.0776 88.8892 48.0857 94.5231 56.9979C100.157 65.9101 103.322 77.9967 103.322 90.5993L102.28 256.217C102.212 267.098 99.4327 277.496 94.5456 285.154C89.6584 292.812 83.0582 297.111 76.1785 297.118Z" fill="#1F2937"/>
<path d="M74.0103 275.362H54.9521C49.0053 275.363 43.2897 271.718 39.0059 265.195C34.7221 258.671 32.2034 249.776 31.9789 240.377L28.4964 95.1248C28.3621 89.5009 28.9465 83.8921 30.2147 78.6338C31.4829 73.3755 33.4088 68.5758 35.8771 64.522C38.3453 60.4683 41.3053 57.2437 44.5799 55.0413C47.8545 52.8388 51.3763 51.7038 54.9347 51.7041H71.4391C78.4556 51.7041 85.1847 56.1124 90.1461 63.9593C95.1075 71.8061 97.8948 82.4487 97.8948 93.5458L96.9777 239.368C96.9174 248.942 94.4716 258.091 90.1715 264.83C85.8714 271.569 80.064 275.354 74.0103 275.362Z" fill="#075555"/>
<path d="M100.67 94.7987C100.403 94.7987 100.148 94.6314 99.9596 94.3336C99.7713 94.0357 99.6655 93.6318 99.6655 93.2106C99.6912 83.6834 97.7862 74.3938 94.2298 66.704C90.8056 59.2805 85.9861 53.7577 80.4593 50.9239C80.3299 50.8658 80.2091 50.7671 80.1043 50.6337C79.9994 50.5003 79.9126 50.335 79.849 50.1475C79.7853 49.96 79.7461 49.7542 79.7338 49.5423C79.7214 49.3304 79.736 49.1168 79.7769 48.914C79.8178 48.7113 79.884 48.5236 79.9716 48.3621C80.0592 48.2006 80.1664 48.0686 80.2869 47.9739C80.4074 47.8792 80.5387 47.8238 80.673 47.811C80.8073 47.7982 80.9419 47.8281 81.0687 47.8991C87.0012 50.9395 92.1751 56.8653 95.8521 64.8313C99.658 73.0625 101.698 83.0043 101.674 93.2014C101.675 93.4108 101.649 93.6183 101.599 93.812C101.549 94.0057 101.475 94.1819 101.382 94.3303C101.288 94.4788 101.177 94.5966 101.055 94.677C100.933 94.7573 100.802 94.7987 100.67 94.7987Z" fill="#2BABAD"/>
<path d="M26.3553 96.5382C26.0954 96.5385 25.8455 96.3794 25.6583 96.0944C25.471 95.8093 25.3609 95.4206 25.3511 95.0098C24.9071 75.9663 31.5123 58.4054 42.1834 50.2813C42.4215 50.1178 42.6903 50.1065 42.9335 50.2496C43.1767 50.3927 43.3754 50.6792 43.488 51.049C43.6006 51.4188 43.6183 51.8431 43.5374 52.2331C43.4565 52.6231 43.2833 52.9484 43.0541 53.1408C33.1085 60.7187 26.9502 77.1092 27.3652 94.9088C27.3703 95.1172 27.3492 95.3251 27.3033 95.5205C27.2575 95.716 27.1876 95.8952 27.0978 96.0479C27.008 96.2006 26.9001 96.3237 26.7801 96.4102C26.6601 96.4967 26.5306 96.5449 26.3988 96.552L26.3553 96.5382Z" fill="#2BABAD"/>
<path d="M47.5111 139.624H42.7139V158.452H47.5111V139.624Z" fill="#DAA3A7"/>
<path d="M84.7132 241.989H48.6543V243.678H84.7132V241.989Z" fill="#5CAAAA"/>
<path d="M84.7132 247.203H48.6543V248.892H84.7132V247.203Z" fill="#5CAAAA"/>
<path d="M38.831 280.461H90.3494C90.3494 281.835 90.0045 283.151 89.3906 284.122C88.7767 285.093 87.944 285.639 87.0758 285.639H42.0929C41.2247 285.639 40.3921 285.093 39.7781 284.122C39.1642 283.151 38.8193 281.835 38.8193 280.461H38.831Z" fill="white"/>
</svg>
