<svg width="124" height="254" viewBox="0 0 124 254" fill="none" xmlns="http://www.w3.org/2000/svg">
<path d="M58.3454 172.615C58.3454 172.615 57.765 198.424 65.8619 228.217C73.9588 258.01 87.1635 316.444 89.4794 337.457C91.7952 358.47 98.3308 420.718 104.927 450.121C111.524 479.524 124.421 584.606 112.804 613.215C101.187 641.824 49.9844 674.72 38.5907 537.614C38.5907 537.614 37.0497 450.121 43.3531 392.527C49.6565 334.933 53.8326 235.313 53.8326 235.313L50.8492 236.571C50.8492 236.571 48.8526 319.648 41.5625 364.785C34.2723 409.923 25.5863 519.066 37.395 579.594C49.2037 640.121 65.177 647.277 79.766 653.161C94.3549 659.045 115.317 641.402 119.711 603.548C127.779 533.878 88.4694 312.382 91.3077 308.876C91.3077 308.876 61.9353 200.838 62.6289 172.252L58.3454 172.615Z" fill="#111827"/>
<path d="M120.689 510.695C119.058 494.35 116.519 478.299 114.269 462.165C113.547 456.979 112.673 451.898 112.94 446.463C111.655 442.066 111.675 437.155 111.692 432.487C111.808 402.124 111.112 371.803 110.473 341.473C109.977 318.193 110.096 294.886 109.681 271.601C109.391 254.48 110.128 237.434 110.711 220.377C111.266 204.152 111.788 187.917 112.122 171.669C112.412 156.733 112.929 141.766 111.832 126.89C110.282 105.717 107.566 85.1215 101.341 66.6058C101.121 66.0756 101.012 65.4492 101.03 64.8157C102.005 65.6052 102.588 68.4142 104.008 66.7481C103.607 64.2007 102.768 62.0755 101.904 60.0376C100.894 57.6554 100.087 54.8143 98.3223 53.8504C97.9921 54.1175 97.7164 54.5269 97.5269 55.0312C97.3374 55.5355 97.2419 56.1143 97.2514 56.7007C97.0947 63.6453 96.671 70.6128 97.5649 77.516C99.0631 79.6403 100.229 82.2865 100.969 85.2455V85.2913C101.149 85.911 101.294 86.5949 101.471 87.2283C101.901 88.7705 102.777 92.8739 103.212 94.4161C103.384 96.1052 107.983 118.499 107.983 136.079C107.983 144.341 108.709 152.603 108.332 160.763C107.824 171.724 107.972 182.708 107.589 193.673C107.177 205.405 106.3 217.036 105.848 228.749C105.525 236.956 104.957 245.131 104.521 253.328C104.425 255.164 104.391 257 104.388 258.836C104.37 271.514 104.414 284.191 104.35 296.868C104.292 308.297 104.719 319.754 103.935 331.155C104.087 336.545 104.036 341.945 103.784 347.325C103.784 347.615 103.784 347.904 103.784 348.193C103.624 362.027 103.389 375.879 103.941 389.709C103.511 383.907 101.86 372.047 101.796 371.808C99.7473 364.409 99.9997 355.794 98.3949 348.179C98.6095 348.367 98.8522 348.458 99.0972 348.445C100.65 348.445 100.548 345.421 100.778 343.488C101.88 334.345 102.44 325.073 102.02 315.724C101.814 311.134 101.608 306.608 101.584 302.018C101.547 293.61 101.875 285.238 102.046 276.852C102.336 263.082 103.035 249.436 103.845 235.781C105.554 207.044 108.007 178.407 106.634 149.335C106.611 148.876 106.588 148.389 106.567 147.921C105.85 133.307 104.785 118.761 101.697 105.069C100.412 99.3687 100.006 93.5578 99.8488 87.6506C99.3381 84.1439 98.9956 81.4588 98.8389 81.3027C98.8389 81.3027 98.8215 81.3027 98.8157 81.3027C98.6537 81.2555 98.487 81.2669 98.3282 81.336C98.1694 81.4052 98.0225 81.5303 97.8986 81.7021C97.1412 82.9735 97.1499 84.6993 97.1412 86.3333C97.1034 95.0771 96.88 103.83 97.3298 112.565C97.3124 114.327 98.0263 115.507 98.392 116.971C98.8621 120.446 99.4774 123.828 99.637 127.464C99.9272 133.958 99.8256 140.508 100.244 146.948C101.239 162.384 100.371 177.751 99.9156 193.104C99.4106 209.992 98.8021 226.875 98.0901 243.754C97.6461 254.393 97.3588 265.056 96.9293 275.7C96.3489 290.236 95.1184 304.676 94.5757 319.533C94.5496 319.194 94.5118 318.863 94.4712 318.537C93.1624 308.27 91.9202 297.938 89.4447 288.345C86.7342 277.834 84.1687 267.231 81.551 256.629C76.8321 237.576 71.4371 219.074 68.5611 198.598C67.5918 191.713 66.4251 184.828 65.1975 178.022C64.9096 177.454 64.5308 177.018 64.1005 176.759C62.1909 175.961 61.4683 177.81 61.3029 180.89C61.2199 182.263 61.2083 183.645 61.2681 185.021C61.8614 198.162 63.6753 211.093 66.6515 223.398C70.6796 239.99 75.2389 256.133 79.2351 272.748C83.063 288.685 87.1376 304.446 90.0803 321.053C94.6279 346.715 96.8335 373.378 100.374 399.49C104.521 430.045 108.642 460.596 113.225 490.958C117.645 520.219 120.77 549.948 118.518 580.553C117.891 589.008 116.58 597.238 115.082 605.398C111.33 625.879 90.2922 646.391 77.5867 637.987C65.3107 629.881 55.3739 618.223 49.1923 597.022C45.2048 583.353 42.8947 568.638 40.6862 553.812C37.2907 531.019 35.8107 507.835 35.4073 484.353C35.0213 461.862 35.8107 439.45 38.4255 417.395C41.8616 388.368 45.9884 359.608 48.3217 330.187C49.8801 310.542 52.0074 291.058 53.2727 271.316C53.9112 261.347 54.6977 250.588 55.0778 240.601C55.4435 230.962 57.742 212.845 56.9381 203.225C56.4505 197.414 55.1968 196.459 52.1583 199.411C51.6417 200.911 51.6446 202.624 51.6214 204.285C51.4734 215.113 49.5493 234.39 49.1314 245.227C48.4349 263.197 47.3379 281.979 45.3586 299.636C41.6236 333 37.9524 366.369 35.1142 400.031C33.4628 419.64 31.3675 439.119 30.6739 458.971C30.5665 462.083 31.3066 465.521 29.9832 468.431C29.9689 468.595 29.9312 468.752 29.8729 468.89C29.8207 468.991 29.7162 469.137 29.6785 469.105C29.1851 468.646 29.0458 467.728 28.8078 466.953C24.6918 453.142 21.2344 438.865 18.4647 424.239C13.9722 400.11 11.0324 375.278 8.01706 350.47C5.81145 332.385 4.11661 314.209 4.05857 295.652C3.98601 271.977 3.91926 248.298 4.09629 224.632C4.18045 213.359 4.36039 202.027 5.21941 190.846C7.8081 157.16 12.6866 124.476 18.6243 92.268C20.2176 83.639 22.5131 75.5102 24.1035 66.9179C24.9277 62.4565 25.7751 57.403 23.5231 53.0977C22.8005 54.6353 22.4377 56.5309 21.9734 58.3164C13.267 91.7081 7.88646 126.936 4.29364 163.164C2.1867 184.392 1.08679 205.85 0.230669 227.317C-0.0768896 228.791 -0.0768896 230.383 0.230669 231.857C0.262592 232.614 0.329339 233.371 0.314828 234.124C-0.00150288 248.706 -0.0856644 263.284 0.314828 277.866C0.311856 278.775 0.279891 279.684 0.219058 280.588C0.758852 302.271 1.86456 323.853 3.74804 345.306C8.24922 396.525 16.2272 445.646 30.4475 491.008C30.9001 492.333 31.1534 493.805 31.1876 495.309C31.4139 513.21 32.7286 530.909 34.6701 548.456C36.2199 562.382 37.8247 576.262 40.7094 589.554C46.4498 616.001 56.5898 634.076 71.4719 643.219C74.4205 645.028 77.4213 646.79 80.5004 647.258C84.5333 647.944 88.6091 647.634 92.5819 646.341C101.782 643.183 109.792 636.243 114.905 621.385C118.683 610.561 121.126 598.7 122.105 586.433C124.029 561.037 123.193 535.728 120.689 510.695ZM97.2195 343.86L97.0338 343.337C97.107 343.501 97.1692 343.676 97.2195 343.86Z" fill="#252525"/>
<path d="M25.5488 45.7539C25.929 46.1486 26.0074 46.8371 26.0857 47.5302C26.4141 52.4345 26.4248 57.379 26.1176 62.2868L25.9812 63.907C26.1002 67.7855 25.4559 71.3932 24.7101 74.9228C16.1314 115.562 11.0092 157.652 8.50467 200.866C7.26256 222.296 6.33098 243.772 6.61539 265.304C7.3206 318.675 10.6493 371.331 20.6442 421.999C23.1981 434.952 26.0538 447.702 29.7308 459.765C30.6502 462.672 31.146 465.869 31.1818 469.119C31.5214 471.767 31.8609 474.416 31.2312 477.721C29.931 475.426 29.1562 472.942 28.4132 470.482C22.2595 450.149 17.5862 428.776 14.483 406.774C11.2065 383.54 7.84298 360.347 5.17013 336.86C3.55976 322.603 2.76716 308.144 2.802 293.66C2.82522 273.189 2.88906 252.718 2.77878 232.252C2.72074 221.396 3.14735 210.583 3.47239 199.782C3.87869 186.215 5.32684 172.849 6.95493 159.579C9.58425 138.25 12.7011 117.164 16.5029 96.4175C17.8292 89.1746 19.2686 81.9638 21.245 75.2166C22.9166 69.5113 23.8163 63.6454 23.5435 57.1966C23.4854 55.8196 23.5289 54.4426 23.526 53.0656C23.9759 50.4356 24.7943 48.1223 25.5488 45.7539Z" fill="#111827"/>
<path d="M112.94 446.459C112.592 446.918 112.099 447.478 111.948 446.371C111.222 441.088 109.849 436.021 110.322 430.307C110.434 428.484 110.472 426.652 110.436 424.822C110.436 406.462 110.468 388.153 110.436 369.821C110.41 358.53 110.05 347.243 109.809 335.965C109.64 328.039 109.64 320.098 109.397 312.185C108.758 291.608 108.277 271.027 108.471 250.418C108.549 242.189 109.109 233.987 109.342 225.775C109.597 216.164 110.322 206.644 110.587 197.038C111.051 180.119 111.684 163.21 111.457 146.269C111.228 125.431 109.021 104.766 104.91 84.9656C103.587 78.7492 101.91 72.7361 99.8981 67.0007C98.6386 63.3654 98.5196 61.5846 99.2683 56.9028C100.574 58.3349 101.143 60.7859 102.017 62.7228C102.649 64.0998 103.012 65.9358 104.007 66.762C105.827 71.6135 106.889 77.0893 107.911 82.5743C112.31 106.148 113.828 130.461 113.326 155.237C112.746 184.388 112.061 213.529 111.858 242.703C111.675 269.269 110.973 295.827 111.057 322.411C111.126 344.259 111.739 366.062 112.345 387.873C112.865 406.471 113.686 425.051 113.082 443.728C113.053 444.641 112.99 445.55 112.94 446.459Z" fill="#111827"/>
<path d="M102.04 276.829C101.857 285.214 101.541 293.587 101.578 301.995C101.602 306.585 101.808 311.134 102.014 315.701C102.434 325.05 101.874 334.322 100.772 343.465C100.539 345.398 99.7413 364.386 101.79 371.785C101.57 372.354 99.1492 363.808 98.5514 359.062C97.6808 352.071 96.8537 345.053 96.0121 338.049C95.9453 337.471 95.7973 336.874 96.1746 336.08C98.5601 344.498 99.6571 342.093 99.7413 341.193C100.693 332.192 101.306 326.313 100.777 317.128C100.351 309.812 100.357 302.514 100.362 295.198C100.362 284.37 100.928 273.593 101.233 262.793C101.639 248.775 102.684 234.881 103.424 220.933C103.941 211.381 104.788 201.88 105.203 192.319C105.728 180.33 106.1 168.369 105.572 156.261C105.049 144.368 104.356 132.6 103.015 120.918C102.324 114.924 101.189 111.78 100.005 103.477C98.9867 96.3301 95.1443 85.4014 98.801 81.2246C98.801 81.2246 98.801 81.2246 98.8242 81.2246C98.9809 81.3807 99.3234 84.0658 99.8341 87.5725C100.326 91.1424 100.942 94.6667 101.68 98.1293C104.771 111.83 105.839 132.806 106.553 147.824C106.573 148.283 106.596 148.765 106.619 149.238C107.992 178.292 105.54 206.947 103.83 235.685C103.029 249.422 102.339 263.082 102.04 276.829Z" fill="#111827"/>
<path d="M89.0788 182.759H41.3535C36.9173 182.758 32.6517 180.055 29.4422 175.212C26.2327 170.368 24.3259 163.756 24.1178 156.748L20.316 28.987C20.2061 25.2991 20.5704 21.6142 21.387 18.1554C22.2036 14.6966 23.4554 11.5357 25.0666 8.86423C26.6779 6.19271 28.6152 4.06602 30.7612 2.61289C32.9072 1.15976 35.2173 0.410407 37.5517 0.410156H88.0486C92.5877 0.409585 96.9442 3.23764 100.174 8.2816C103.404 13.3256 105.247 20.1792 105.305 27.3576L106.326 155.118C106.355 158.73 105.931 162.315 105.077 165.666C104.224 169.017 102.958 172.066 101.354 174.637C99.7493 177.208 97.8382 179.25 95.7311 180.644C93.624 182.038 91.3629 182.757 89.0788 182.759Z" fill="#1F2937"/>
<path d="M86.6702 178.774H39.8852C36.3716 178.773 32.9934 176.63 30.4531 172.791C27.9128 168.952 26.4057 163.712 26.2452 158.161L22.4898 29.0005C22.4055 26.0839 22.6958 23.1704 23.3431 20.4362C23.9905 17.7019 24.9814 15.2034 26.2562 13.0916C27.531 10.9798 29.0631 9.2985 30.7601 8.14913C32.4571 6.99977 34.2838 6.40621 36.1298 6.4043H86.9924C88.7909 6.40427 90.5717 6.96597 92.2327 8.05716C93.8936 9.14835 95.402 10.7475 96.6712 12.763C97.9404 14.7784 98.9454 17.1704 99.6287 19.8017C100.312 22.433 100.66 25.2517 100.653 28.0963L100.33 157.257C100.317 162.972 98.8713 168.445 96.3109 172.479C93.7505 176.512 90.2839 178.775 86.6702 178.774Z" fill="#F8EDED"/>
<path d="M85.718 174.285H40.68C37.6657 174.284 34.7678 172.445 32.5893 169.15C30.4108 165.855 29.1196 161.358 28.9844 156.596L25.4119 30.2399C25.3418 27.7414 25.5923 25.2464 26.1484 22.9053C26.7045 20.5641 27.5546 18.4253 28.6475 16.6179C29.7404 14.8105 31.0534 13.3719 32.5074 12.3888C33.9614 11.4057 35.5262 10.8986 37.1075 10.8979H86.0256C87.5667 10.8979 89.0926 11.3791 90.5158 12.3139C91.939 13.2487 93.2316 14.6188 94.3192 16.3454C95.4069 18.0721 96.2683 20.1214 96.8541 22.3757C97.4399 24.6301 97.7385 27.0452 97.7327 29.4826L97.4251 155.839C97.4128 160.737 96.1741 165.428 93.98 168.885C91.7859 172.343 88.8151 174.284 85.718 174.285Z" fill="#CC7E84"/>
<path d="M58.3366 92.6626C69.8254 92.6626 79.139 77.9326 79.139 59.7622C79.139 41.5918 69.8254 26.8618 58.3366 26.8618C46.8477 26.8618 37.5342 41.5918 37.5342 59.7622C37.5342 77.9326 46.8477 92.6626 58.3366 92.6626Z" fill="#1F2937"/>
<path d="M55.3913 92.6626C66.8801 92.6626 76.1937 77.9326 76.1937 59.7622C76.1937 41.5918 66.8801 26.8618 55.3913 26.8618C43.9024 26.8618 34.5889 41.5918 34.5889 59.7622C34.5889 77.9326 43.9024 92.6626 55.3913 92.6626Z" fill="#BD5A61"/>
<path d="M54.7032 40.1773C57.2288 40.1773 59.6976 41.3618 61.7975 43.5809C63.8974 45.8 65.5341 48.9541 66.5005 52.6444C67.467 56.3346 67.7199 60.3953 67.2272 64.3128C66.7345 68.2304 65.5183 71.8289 63.7325 74.6533C61.9467 77.4777 59.6714 79.4011 57.1944 80.1804C54.7174 80.9596 52.1499 80.5597 49.8166 79.0311C47.4833 77.5026 45.489 74.914 44.0859 71.5929C42.6828 68.2718 41.9339 64.3672 41.9339 60.3729C41.9339 55.0167 43.2792 49.8799 45.6739 46.0925C48.0687 42.3051 51.3166 40.1773 54.7032 40.1773ZM54.7032 34.2104C51.4315 34.2104 48.2333 35.7449 45.5129 38.6196C42.7926 41.4944 40.6724 45.5804 39.4203 50.361C38.1683 55.1415 37.8407 60.4019 38.479 65.4769C39.1173 70.5519 40.6928 75.2136 43.0062 78.8725C45.3197 82.5314 48.2672 85.0231 51.476 86.0326C54.6849 87.0421 58.0109 86.524 61.0336 84.5438C64.0563 82.5636 66.6398 79.2103 68.4575 74.9079C70.2751 70.6055 71.2453 65.5473 71.2453 60.3729C71.2453 53.4342 69.5025 46.7797 66.4002 41.8733C63.298 36.9669 59.0905 34.2104 54.7032 34.2104Z" fill="#374151"/>
<path d="M46.0869 126.564L47.9849 201.191C48.0014 201.809 48.1682 202.393 48.4506 202.82C48.7329 203.248 49.1089 203.487 49.4998 203.486H60.3944C60.7887 203.486 61.1676 203.243 61.4505 202.809C61.7333 202.374 61.8979 201.782 61.9093 201.159L63.2965 126.564H46.0869Z" fill="#334155"/>
<path d="M49.0439 201.095L49.3342 211.294C49.3498 211.824 49.494 212.323 49.7367 212.689C49.9794 213.055 50.3019 213.259 50.6372 213.258H59.5496C59.8952 213.258 60.2266 213.041 60.471 212.655C60.7154 212.268 60.8527 211.744 60.8527 211.198V201.1L49.0439 201.095Z" fill="#1F2937"/>
<path d="M69.5508 70.5117L69.5044 72.3889L68.2129 116.805C68.1338 119.625 67.7022 122.391 66.943 124.945C66.1839 127.499 65.1121 129.79 63.7898 131.685C62.4675 133.58 60.9208 135.042 59.2392 135.986C57.5576 136.93 55.7743 137.337 53.9925 137.184L53.653 137.148C50.3593 136.758 47.2703 134.471 44.9706 130.722C42.6709 126.972 41.3201 122.019 41.1739 116.801L39.9027 72.4027L39.8418 70.2867C39.9869 69.2892 40.1523 68.3514 40.3381 67.4732C43.3563 53.1251 51.4619 54.1625 59.4659 54.9932C65.2266 55.5945 67.8182 62.5207 68.8862 66.927C69.1743 68.0885 69.3967 69.2881 69.5508 70.5117Z" fill="url(#paint0_linear_1_8549)"/>
<path d="M48.4062 56.1317L61.6515 56.5907L61.5267 54.1489C61.4438 52.539 60.9869 51.0346 60.2442 49.926C59.5014 48.8174 58.5254 48.183 57.5044 48.1453L52.8291 47.9663C51.8184 47.9274 50.8338 48.4758 50.0615 49.5077C49.2893 50.5396 48.783 51.9834 48.6384 53.5659L48.4062 56.1317Z" fill="#1F2937"/>
<path d="M57.8144 82.6797H47.7788C46.8428 82.6797 46.084 83.8798 46.084 85.3602C46.084 86.8406 46.8428 88.0407 47.7788 88.0407H57.8144C58.7504 88.0407 59.5092 86.8406 59.5092 85.3602C59.5092 83.8798 58.7504 82.6797 57.8144 82.6797Z" fill="white"/>
<path d="M57.8144 94.71H47.7788C46.8428 94.71 46.084 95.9101 46.084 97.3905C46.084 98.8709 46.8428 100.071 47.7788 100.071H57.8144C58.7504 100.071 59.5092 98.8709 59.5092 97.3905C59.5092 95.9101 58.7504 94.71 57.8144 94.71Z" fill="white"/>
<path d="M69.5508 70.5121L69.5044 72.3893L69.4695 72.4811C53.2409 65.6422 39.9376 72.4811 39.9376 72.4811L39.9027 72.4031L39.8418 70.2871C39.9869 69.2896 40.1523 68.3518 40.3381 67.4736C52.8636 62.3742 64.1587 65.2337 68.8862 66.9136C69.1748 68.0795 69.3972 69.2838 69.5508 70.5121Z" fill="white"/>
<defs>
<linearGradient id="paint0_linear_1_8549" x1="65.0945" y1="38.1624" x2="27.2501" y2="43.4757" gradientUnits="userSpaceOnUse">
<stop stop-color="#441B1E"/>
<stop offset="1" stop-color="#BD5A61"/>
</linearGradient>
</defs>
</svg>
