<svg width="14" height="15" viewBox="0 0 14 15" fill="none" xmlns="http://www.w3.org/2000/svg">
<path d="M7.00065 0.833008C6.85532 0.833008 6.71265 0.834341 6.57265 0.836341L6.16198 0.847675L5.96265 0.856341L5.57665 0.879008L5.20798 0.909674C2.01798 1.21901 0.719984 2.51701 0.410651 5.70701L0.379984 6.07567L0.357318 6.46167C0.353984 6.52701 0.350651 6.59367 0.348651 6.66101L0.337318 7.07167L0.334651 7.28367L0.333984 7.49967C0.333984 7.64501 0.335318 7.78767 0.337318 7.92767L0.348651 8.33834L0.357318 8.53767L0.379984 8.92367L0.410651 9.29234C0.719984 12.4823 2.01798 13.7803 5.20798 14.0897L5.57665 14.1203L5.96265 14.143C6.02798 14.1463 6.09465 14.1497 6.16198 14.1517L6.57265 14.163L7.00065 14.1663L7.42865 14.163L7.83932 14.1517L8.03865 14.143L8.42465 14.1203L8.79332 14.0897C11.9833 13.7803 13.2813 12.4823 13.5907 9.29234L13.6213 8.92367L13.644 8.53767C13.6473 8.47234 13.6507 8.40567 13.6527 8.33834L13.664 7.92767L13.6673 7.49967L13.664 7.07167L13.6527 6.66101L13.644 6.46167L13.6213 6.07567L13.5907 5.70701C13.2813 2.51701 11.9833 1.21901 8.79332 0.909674L8.42465 0.879008L8.03865 0.856341C7.97222 0.853098 7.90578 0.850209 7.83932 0.847675L7.42865 0.836341L7.21665 0.833674L7.00065 0.833008ZM7.00732 4.16634C7.17724 4.16653 7.34067 4.23159 7.46423 4.34824C7.58779 4.46489 7.66214 4.62431 7.6721 4.79394C7.68206 4.96357 7.62687 5.13059 7.51781 5.2609C7.40875 5.3912 7.25405 5.47494 7.08532 5.49501L7.00065 5.49967C6.83073 5.49949 6.6673 5.43442 6.54374 5.31778C6.42018 5.20113 6.34583 5.04171 6.33587 4.87208C6.32591 4.70245 6.3811 4.53542 6.49016 4.40512C6.59922 4.27482 6.75392 4.19108 6.92265 4.17101L7.00732 4.16634ZM7.00065 6.83301C7.16394 6.83303 7.32154 6.89298 7.44357 7.00148C7.56559 7.10999 7.64355 7.25951 7.66265 7.42167L7.66732 7.49967V9.49967L7.74532 9.50434C7.89413 9.52189 8.03269 9.58906 8.13864 9.69501C8.2446 9.80097 8.31177 9.93953 8.32932 10.0883L8.33398 10.1663C8.33396 10.3296 8.27401 10.4872 8.16551 10.6093C8.057 10.7313 7.90748 10.8092 7.74532 10.8283L7.66732 10.833H7.00065C6.83736 10.833 6.67976 10.773 6.55774 10.6645C6.43571 10.556 6.35776 10.4065 6.33865 10.2443L6.33398 10.1663V8.16634C6.16406 8.16615 6.00063 8.10109 5.87707 7.98444C5.75351 7.8678 5.67916 7.70837 5.6692 7.53874C5.65924 7.36912 5.71443 7.20209 5.82349 7.07179C5.93255 6.94148 6.08725 6.85774 6.25598 6.83767L6.33398 6.83301H7.00065Z" fill="#525257"/>
</svg>
