<svg width="24" height="25" viewBox="0 0 24 25" fill="none" xmlns="http://www.w3.org/2000/svg">
<path d="M4 6.5C4 5.96957 4.21071 5.46086 4.58579 5.08579C4.96086 4.71071 5.46957 4.5 6 4.5H18C18.5304 4.5 19.0391 4.71071 19.4142 5.08579C19.7893 5.46086 20 5.96957 20 6.5V18.5C20 19.0304 19.7893 19.5391 19.4142 19.9142C19.0391 20.2893 18.5304 20.5 18 20.5H6C5.46957 20.5 4.96086 20.2893 4.58579 19.9142C4.21071 19.5391 4 19.0304 4 18.5V6.5Z" fill="#374151"/>
<path d="M8 11.5V16.5" stroke="white" stroke-width="1.5" stroke-linecap="round" stroke-linejoin="round"/>
<path d="M8 8.5V8.51" stroke="white" stroke-width="1.5" stroke-linecap="round" stroke-linejoin="round"/>
<path d="M12 16.5V11.5" stroke="white" stroke-width="1.5" stroke-linecap="round" stroke-linejoin="round"/>
<path d="M16 16.5V13.5C16 12.9696 15.7893 12.4609 15.4142 12.0858C15.0391 11.7107 14.5304 11.5 14 11.5C13.4696 11.5 12.9609 11.7107 12.5858 12.0858C12.2107 12.4609 12 12.9696 12 13.5" stroke="white" stroke-width="1.5" stroke-linecap="round" stroke-linejoin="round"/>
</svg>
