<svg width="40" height="24" viewBox="0 0 40 24" fill="none" xmlns="http://www.w3.org/2000/svg">
<path fill-rule="evenodd" clip-rule="evenodd" d="M20 21.1334C17.9286 22.9209 15.2417 24 12.3057 24C5.75429 24 0.443359 18.6274 0.443359 12C0.443359 5.37258 5.75429 0 12.3057 0C15.2417 0 17.9286 1.07907 20 2.86655C22.0714 1.07907 24.7583 0 27.6944 0C34.2457 0 39.5567 5.37258 39.5567 12C39.5567 18.6274 34.2457 24 27.6944 24C24.7583 24 22.0714 22.9209 20 21.1334Z" fill="#ED0006"/>
<path fill-rule="evenodd" clip-rule="evenodd" d="M20 21.1334C22.5506 18.9324 24.1679 15.6573 24.1679 12C24.1679 8.34272 22.5506 5.06757 20 2.86655C22.0714 1.07907 24.7583 0 27.6944 0C34.2457 0 39.5567 5.37258 39.5567 12C39.5567 18.6274 34.2457 24 27.6944 24C24.7583 24 22.0714 22.9209 20 21.1334Z" fill="#F9A000"/>
<path fill-rule="evenodd" clip-rule="evenodd" d="M19.9998 21.1337C22.5502 18.9327 24.1675 15.6576 24.1675 12.0005C24.1675 8.34328 22.5502 5.06821 19.9998 2.86719C17.4493 5.06821 15.832 8.34328 15.832 12.0005C15.832 15.6576 17.4493 18.9327 19.9998 21.1337Z" fill="#FF5E00"/>
</svg>
