<svg width="40" height="24" viewBox="0 0 40 24" fill="none" xmlns="http://www.w3.org/2000/svg">
<path fill-rule="evenodd" clip-rule="evenodd" d="M19.5567 21.1334C17.4853 22.9209 14.7984 24 11.8623 24C5.31093 24 0 18.6274 0 12C0 5.37258 5.31093 0 11.8623 0C14.7984 0 17.4853 1.07907 19.5567 2.86655C21.628 1.07907 24.315 0 27.251 0C33.8024 0 39.1133 5.37258 39.1133 12C39.1133 18.6274 33.8024 24 27.251 24C24.315 24 21.628 22.9209 19.5567 21.1334Z" fill="#ED0006"/>
<path fill-rule="evenodd" clip-rule="evenodd" d="M19.5566 21.1334C22.1072 18.9324 23.7246 15.6573 23.7246 12C23.7246 8.34272 22.1072 5.06757 19.5566 2.86655C21.628 1.07907 24.3149 0 27.251 0C33.8024 0 39.1133 5.37258 39.1133 12C39.1133 18.6274 33.8024 24 27.251 24C24.3149 24 21.628 22.9209 19.5566 21.1334Z" fill="#F9A000"/>
<path fill-rule="evenodd" clip-rule="evenodd" d="M19.5564 21.1337C22.1069 18.9327 23.7241 15.6576 23.7241 12.0005C23.7241 8.34328 22.1069 5.06821 19.5564 2.86719C17.0059 5.06821 15.3887 8.34328 15.3887 12.0005C15.3887 15.6576 17.0059 18.9327 19.5564 21.1337Z" fill="#FF5E00"/>
</svg>
