<svg width="28" height="24" viewBox="0 0 28 24" fill="none" xmlns="http://www.w3.org/2000/svg">
<path fill-rule="evenodd" clip-rule="evenodd" d="M3.52782 16.6572H1.38424C1.23755 16.6572 1.1128 16.7638 1.08992 16.9086L0.222952 22.4054C0.20572 22.5139 0.289719 22.6116 0.399738 22.6116H1.4231C1.56979 22.6116 1.69454 22.505 1.71742 22.36L1.95125 20.8774C1.97381 20.7322 2.09887 20.6258 2.24525 20.6258H2.92383C4.33588 20.6258 5.15077 19.9424 5.3637 18.5884C5.45958 17.996 5.36776 17.5306 5.09028 17.2045C4.78568 16.8467 4.24523 16.6572 3.52782 16.6572ZM3.77512 18.6648C3.65792 19.434 3.07022 19.434 2.50196 19.434H2.17849L2.40541 17.9975C2.41889 17.9107 2.49411 17.8468 2.58188 17.8468H2.73013C3.11723 17.8468 3.48242 17.8468 3.67112 18.0674C3.78354 18.1991 3.81806 18.3946 3.77512 18.6648ZM9.93549 18.6402H8.90898C8.82152 18.6402 8.74594 18.7042 8.73246 18.791L8.68705 19.0781L8.61526 18.9741C8.39304 18.6515 7.89755 18.5437 7.40294 18.5437C6.26851 18.5437 5.29973 19.4029 5.11102 20.6081C5.01297 21.2091 5.15236 21.784 5.49337 22.1849C5.80624 22.5535 6.25386 22.7071 6.78634 22.7071C7.70029 22.7071 8.20723 22.1193 8.20723 22.1193L8.1614 22.4046C8.14414 22.5137 8.22812 22.6115 8.33749 22.6115H9.26217C9.40925 22.6115 9.53327 22.5049 9.55648 22.3598L10.1113 18.8464C10.1288 18.7384 10.0451 18.6402 9.93549 18.6402ZM8.50458 20.6381C8.40551 21.2245 7.94005 21.6182 7.34651 21.6182C7.04844 21.6182 6.81012 21.5226 6.65724 21.3414C6.50552 21.1616 6.44779 20.9054 6.49609 20.6202C6.58863 20.0387 7.06193 19.6323 7.64648 19.6323C7.93788 19.6323 8.17489 19.7291 8.33096 19.9118C8.48732 20.0965 8.5494 20.3541 8.50458 20.6381ZM14.3709 18.64H15.4025C15.547 18.64 15.6313 18.8021 15.5492 18.9206L12.1183 23.8728C12.0628 23.953 11.9713 24.0008 11.8735 24.0008H10.8432C10.6982 24.0008 10.6134 23.8374 10.6974 23.7186L11.7657 22.2107L10.6295 18.8763C10.5902 18.7604 10.6758 18.64 10.7991 18.64H11.8127C11.9444 18.64 12.0606 18.7265 12.0986 18.8525L12.7016 20.8664L14.1244 18.7707C14.1801 18.6889 14.2726 18.64 14.3709 18.64Z" fill="#253B80"/>
<path fill-rule="evenodd" clip-rule="evenodd" d="M25.5563 22.4057L26.436 16.8084C26.4495 16.7215 26.5248 16.6575 26.6122 16.6572H27.6026C27.712 16.6572 27.796 16.7553 27.7787 16.8638L26.9112 22.3603C26.8886 22.5053 26.7638 22.6119 26.6169 22.6119H25.7324C25.623 22.6119 25.539 22.5142 25.5563 22.4057ZM18.8189 16.6575H16.6749C16.5286 16.6575 16.4038 16.7641 16.3809 16.9089L15.514 22.4057C15.4967 22.5142 15.5807 22.6119 15.6902 22.6119H16.7903C16.8925 22.6119 16.98 22.5374 16.9959 22.4358L17.2419 20.8777C17.2646 20.7325 17.3896 20.6261 17.536 20.6261H18.2142C19.6265 20.6261 20.4413 19.9427 20.6544 18.5887C20.7505 17.9963 20.6581 17.5309 20.3808 17.2048C20.0763 16.8469 19.5363 16.6575 18.8189 16.6575ZM19.0662 18.6651C18.9493 19.4343 18.3616 19.4343 17.793 19.4343H17.4698L17.6971 17.9978C17.7106 17.911 17.7851 17.8471 17.8732 17.8471H18.0214C18.4083 17.8471 18.7738 17.8471 18.9624 18.0677C19.0749 18.1994 19.1092 18.3949 19.0662 18.6651ZM25.226 18.6405H24.2002C24.112 18.6405 24.0372 18.7044 24.024 18.7913L23.9786 19.0784L23.9065 18.9744C23.6843 18.6518 23.1891 18.544 22.6945 18.544C21.56 18.544 20.5916 19.4031 20.4028 20.6084C20.3051 21.2094 20.4439 21.7843 20.7849 22.1852C21.0984 22.5537 21.5454 22.7074 22.0779 22.7074C22.9918 22.7074 23.4986 22.1196 23.4986 22.1196L23.4529 22.4049C23.4357 22.514 23.5197 22.6118 23.6297 22.6118H24.554C24.7003 22.6118 24.8251 22.5052 24.848 22.3601L25.4031 18.8467C25.4201 18.7387 25.3361 18.6405 25.226 18.6405ZM23.7952 20.6384C23.6968 21.2248 23.2307 21.6185 22.637 21.6185C22.3395 21.6185 22.1008 21.5229 21.9478 21.3417C21.796 21.1619 21.739 20.9057 21.7868 20.6205C21.8797 20.039 22.3524 19.6326 22.937 19.6326C23.2285 19.6326 23.4654 19.7294 23.6216 19.9121C23.7786 20.0968 23.8406 20.3544 23.7952 20.6384Z" fill="#179BD7"/>
<path d="M11.4605 14.69L11.7241 13.0161L11.1371 13.0025H8.33398L10.282 0.650665C10.2879 0.613373 10.3077 0.578605 10.3364 0.553918C10.3651 0.529231 10.4019 0.515625 10.4402 0.515625H15.1667C16.7358 0.515625 17.8186 0.842144 18.384 1.48661C18.649 1.78895 18.8178 2.10488 18.8995 2.45256C18.9851 2.81739 18.9867 3.25325 18.903 3.78485L18.8969 3.82365V4.16427L19.162 4.31444C19.3852 4.43284 19.5625 4.56839 19.6986 4.72359C19.9254 4.98208 20.0721 5.31062 20.134 5.70012C20.198 6.10071 20.1768 6.57739 20.0721 7.11705C19.9511 7.73785 19.7556 8.27852 19.4916 8.72093C19.2486 9.12858 18.9392 9.46661 18.572 9.72871C18.2212 9.97762 17.8045 10.1666 17.3334 10.2876C16.8768 10.4064 16.3563 10.4664 15.7854 10.4664H15.4176C15.1546 10.4664 14.899 10.5611 14.6986 10.731C14.4975 10.9043 14.3644 11.1411 14.3236 11.4001L14.2959 11.5508L13.8303 14.501L13.8091 14.6093C13.8036 14.6437 13.7941 14.6608 13.78 14.6724C13.7674 14.6829 13.7492 14.69 13.7315 14.69H11.4605Z" fill="#253B80"/>
<path d="M19.4134 3.86328C19.3993 3.95347 19.3832 4.04568 19.3651 4.14041C18.7416 7.34061 16.6093 8.44614 13.8857 8.44614H12.499C12.166 8.44614 11.8853 8.68799 11.8334 9.01653L11.1234 13.5193L10.9223 14.7956C10.8885 15.0113 11.0549 15.2058 11.2725 15.2058H13.7321C14.0233 15.2058 14.2706 14.9942 14.3165 14.707L14.3407 14.5819L14.8038 11.6433L14.8336 11.4821C14.8788 11.1939 15.1267 10.9823 15.418 10.9823H15.7858C18.1687 10.9823 20.0342 10.0148 20.5794 7.21514C20.8071 6.04561 20.6892 5.06909 20.0865 4.38228C19.9042 4.17518 19.6779 4.00335 19.4134 3.86328Z" fill="#179BD7"/>
<path d="M18.7619 3.60361C18.6668 3.57589 18.5685 3.55069 18.4676 3.52802C18.3664 3.50586 18.2625 3.4862 18.1558 3.46907C17.7819 3.4086 17.3722 3.37988 16.9333 3.37988H13.2288C13.1375 3.37988 13.0509 3.40054 12.9733 3.43783C12.8025 3.51996 12.6756 3.68172 12.6448 3.87974L11.8566 8.87125L11.834 9.01687C11.8859 8.68833 12.1666 8.44647 12.4996 8.44647H13.8863C16.6099 8.44647 18.7424 7.34044 19.3656 4.14075C19.3842 4.04602 19.3999 3.95381 19.4139 3.86362C19.2563 3.77997 19.0854 3.70842 18.9015 3.64744C18.8562 3.63233 18.8094 3.61772 18.7619 3.60361Z" fill="#222D65"/>
<path d="M12.6451 3.87943C12.6758 3.6814 12.8029 3.51965 12.9736 3.43802C13.0518 3.40073 13.138 3.38007 13.2291 3.38007H16.9337C17.3727 3.38007 17.7823 3.40879 18.1561 3.46926C18.263 3.48639 18.3668 3.50605 18.4681 3.52821C18.5689 3.5509 18.6671 3.57609 18.7624 3.60379C18.8097 3.61791 18.8565 3.63251 18.9023 3.64714C19.0863 3.7081 19.2571 3.78016 19.4148 3.8633C19.6003 2.68068 19.4134 1.87547 18.774 1.14633C18.069 0.343649 16.7967 0 15.1686 0H10.4421C10.1095 0 9.82593 0.241854 9.77443 0.570897L7.80583 13.0497C7.76696 13.2965 7.95741 13.5193 8.20631 13.5193H11.1244L11.857 8.87094L12.6451 3.87943Z" fill="#253B80"/>
</svg>
