<svg width="344" height="206" viewBox="0 0 344 206" fill="none" xmlns="http://www.w3.org/2000/svg">
<path d="M218.537 162.917C261.38 162.917 296.111 126.646 296.111 81.9033C296.111 37.1606 261.38 0.889526 218.537 0.889526C175.695 0.889526 140.964 37.1606 140.964 81.9033C140.964 126.646 175.695 162.917 218.537 162.917Z" fill="#5CAAAA" stroke="#032B2B" stroke-linecap="round" stroke-linejoin="round"/>
<path d="M201.497 41.8864C203.751 39.6173 206.413 37.8359 209.328 36.6446C212.244 35.4533 215.356 34.8755 218.486 34.9445C221.616 35.0135 224.702 35.7279 227.567 37.0466C230.432 38.3654 233.019 40.2624 235.179 42.6288" stroke="#374151" stroke-width="2" stroke-linecap="round" stroke-linejoin="round"/>
<path d="M195.241 34.6032C201.434 28.5721 209.604 25.2461 218.071 25.3082C226.539 25.3704 234.663 28.8159 240.774 34.9373" stroke="#374151" stroke-width="2" stroke-linecap="round" stroke-linejoin="round"/>
<path d="M190.584 27.2976C198.351 20.1402 208.382 16.242 218.739 16.3558C229.097 16.4696 239.047 20.5874 246.667 27.9139" stroke="#374151" stroke-width="2" stroke-linecap="round" stroke-linejoin="round"/>
<path d="M255.888 90.3521C255.888 116.589 239.125 138.61 218.452 138.61C197.779 138.61 181.023 115.543 181.023 90.3521C181.023 63.6247 197.779 49.4294 218.452 49.4294C239.125 49.4294 255.888 63.0678 255.888 90.3521Z" fill="#F6F6F6" stroke="#032B2B" stroke-width="2" stroke-miterlimit="10" stroke-linecap="round"/>
<path d="M218.701 133.784C220.729 133.737 222.728 133.258 224.573 132.378C226.419 131.497 228.073 130.232 229.435 128.661C236.679 119.834 240.177 106.671 241.257 95.3041C241.711 90.4542 241.542 85.5627 240.753 80.7599C238.009 63.2163 228.831 57.7892 218.715 57.7892H218.473C208.35 57.7892 199.165 63.2163 196.435 80.7599C195.646 85.5627 195.477 90.4542 195.931 95.3041C196.528 101.54 198.227 107.591 200.196 113.501C202.023 118.98 204.333 124.214 208.016 128.661C209.372 130.226 211.018 131.487 212.855 132.367C214.692 133.248 216.68 133.73 218.701 133.784Z" fill="#111827"/>
<path d="M218.693 133.903C226.432 133.903 232.705 127.351 232.705 119.27C232.705 111.188 226.432 104.636 218.693 104.636C210.955 104.636 204.682 111.188 204.682 119.27C204.682 127.351 210.955 133.903 218.693 133.903Z" fill="#5CAAAA"/>
<path d="M220.407 63.9514H216.995C216.319 63.9514 215.772 64.5215 215.772 65.2247C215.772 65.9279 216.319 66.4979 216.995 66.4979H220.407C221.082 66.4979 221.63 65.9279 221.63 65.2247C221.63 64.5215 221.082 63.9514 220.407 63.9514Z" fill="#ADD5D5"/>
<path d="M71.9238 200.465L70.0303 177.006L82.9991 156.516" fill="#5CAAAA"/>
<path d="M71.9238 200.465L70.0303 177.006L82.9991 156.516" stroke="#374151" stroke-miterlimit="10" stroke-linecap="round"/>
<path d="M103.821 177.825L78.2021 151.077C76.3949 149.182 76.2754 146.22 77.943 144.506L147.777 71.5749C148.647 70.7417 149.798 70.303 150.978 70.355C152.157 70.407 153.269 70.9455 154.069 71.8524L199.187 118.972C200.056 119.807 200.571 120.968 200.621 122.2C200.671 123.432 200.251 124.634 199.453 125.543L129.619 198.467C128.749 199.3 127.598 199.739 126.418 199.687C125.239 199.635 124.127 199.096 123.327 198.189L120.597 195.338" fill="#5CAAAA"/>
<path d="M103.821 177.825L78.2021 151.077C76.3949 149.182 76.2754 146.22 77.943 144.506L147.777 71.5749C148.647 70.7417 149.798 70.303 150.978 70.355C152.157 70.407 153.269 70.9455 154.069 71.8524L199.187 118.972C200.056 119.807 200.571 120.968 200.621 122.2C200.671 123.432 200.251 124.634 199.453 125.543L129.619 198.467C128.749 199.3 127.598 199.739 126.418 199.687C125.239 199.635 124.127 199.096 123.327 198.189L120.597 195.338" stroke="#374151" stroke-miterlimit="10"/>
<path d="M93.6426 189.447L113.946 168.243C117.767 164.26 124.145 164.461 128.197 168.694C132.25 172.926 132.443 179.587 128.629 183.57L108.326 204.781" fill="#5CAAAA"/>
<path d="M93.6426 189.447L113.946 168.243C117.767 164.26 124.145 164.461 128.197 168.694C132.25 172.926 132.443 179.587 128.629 183.57L108.326 204.781" stroke="#374151" stroke-miterlimit="10" stroke-linecap="round"/>
<path d="M97.6089 152.672L155.962 91.7312" stroke="#374151" stroke-miterlimit="10" stroke-linecap="round"/>
</svg>
