<svg width="40" height="41" viewBox="0 0 40 41" fill="none" xmlns="http://www.w3.org/2000/svg">
<path d="M20 35.5C23.9782 35.5 27.7936 33.9196 30.6066 31.1066C33.4196 28.2936 35 24.4782 35 20.5C35 16.5218 33.4196 12.7064 30.6066 9.8934C27.7936 7.08035 23.9782 5.5 20 5.5" fill="#525257"/>
<path d="M20 35.5C23.9782 35.5 27.7936 33.9196 30.6066 31.1066C33.4196 28.2936 35 24.4782 35 20.5C35 16.5218 33.4196 12.7064 30.6066 9.8934C27.7936 7.08035 23.9782 5.5 20 5.5" stroke="#F4F4F3" stroke-width="2" stroke-linecap="round" stroke-linejoin="round"/>
<path d="M20 5.5C16.0218 5.5 12.2064 7.08035 9.3934 9.8934C6.58035 12.7064 5 16.5218 5 20.5C5 24.4782 6.58035 28.2936 9.3934 31.1066C12.2064 33.9196 16.0218 35.5 20 35.5" fill="#525257"/>
<path d="M20 5.5C16.0218 5.5 12.2064 7.08035 9.3934 9.8934C6.58035 12.7064 5 16.5218 5 20.5C5 24.4782 6.58035 28.2936 9.3934 31.1066C12.2064 33.9196 16.0218 35.5 20 35.5" stroke="#F4F4F3" stroke-width="2" stroke-linecap="round" stroke-linejoin="round"/>
<path d="M19.9998 13.833L16.6665 20.4997H23.3332L19.9998 27.1663" stroke="#F4F4F3" stroke-width="2" stroke-linecap="round" stroke-linejoin="round"/>
</svg>
