<svg width="40" height="41" viewBox="0 0 40 41" fill="none" xmlns="http://www.w3.org/2000/svg">
<path d="M35.7711 29.6109H33.6253V24.6109C33.6253 23.4442 32.9933 23.2081 32.2225 24.0831L31.667 24.715L26.9656 30.0622C26.3197 30.7914 26.5906 31.3886 27.5628 31.3886H29.7086V36.3886C29.7086 37.5553 30.3406 37.7914 31.1114 36.9164L31.667 36.2845L36.3683 30.9372C37.0142 30.2081 36.7433 29.6109 35.7711 29.6109Z" fill="#525257"/>
<path d="M34.9165 18.8498L34.6165 20.6331L33.4498 20.1665C31.7998 19.4998 29.9998 19.4998 28.3165 20.1665L23.6665 22.0831C22.0831 22.7498 20.9831 24.3998 20.9831 26.1165V29.7665C20.9831 31.7498 21.5331 33.7331 22.5498 35.4998H10.2998C8.01648 35.4998 5.86648 33.6831 5.48315 31.4331L3.38315 18.8498C3.11648 17.2998 3.89982 15.2165 5.13315 14.2331L16.0998 5.46648C17.7831 4.11648 20.5165 4.11648 22.1998 5.48315L33.1665 14.2331C34.3831 15.2165 35.1831 17.2998 34.9165 18.8498Z" fill="#525257"/>
</svg>
