<svg width="18" height="18" viewBox="0 0 18 18" fill="none" xmlns="http://www.w3.org/2000/svg">
<mask id="mask0_382_62" style="mask-type:luminance" maskUnits="userSpaceOnUse" x="0" y="0" width="17" height="17">
<path fill-rule="evenodd" clip-rule="evenodd" d="M0.666504 0.666748H16.8972V16.8976H0.666504V0.666748Z" fill="white"/>
</mask>
<g mask="url(#mask0_382_62)">
<path fill-rule="evenodd" clip-rule="evenodd" d="M8.78234 1.91675C4.9965 1.91675 1.9165 4.99591 1.9165 8.78175C1.9165 12.5676 4.9965 15.6476 8.78234 15.6476C12.5673 15.6476 15.6473 12.5676 15.6473 8.78175C15.6473 4.99591 12.5673 1.91675 8.78234 1.91675M8.78234 16.8976C4.30734 16.8976 0.666504 13.2567 0.666504 8.78175C0.666504 4.30675 4.30734 0.666748 8.78234 0.666748C13.2573 0.666748 16.8973 4.30675 16.8973 8.78175C16.8973 13.2567 13.2573 16.8976 8.78234 16.8976" fill="#374151"/>
</g>
<mask id="mask1_382_62" style="mask-type:luminance" maskUnits="userSpaceOnUse" x="13" y="13" width="5" height="5">
<path fill-rule="evenodd" clip-rule="evenodd" d="M13.3667 13.7559H17.5534V17.9348H13.3667V13.7559Z" fill="white"/>
</mask>
<g mask="url(#mask1_382_62)">
<path fill-rule="evenodd" clip-rule="evenodd" d="M16.9286 17.9348C16.7694 17.9348 16.6094 17.874 16.4869 17.7523L13.5502 14.824C13.3061 14.5798 13.3052 14.184 13.5494 13.9398C13.7927 13.694 14.1886 13.6957 14.4336 13.9382L17.3702 16.8673C17.6144 17.1115 17.6152 17.5065 17.3711 17.7507C17.2494 17.874 17.0886 17.9348 16.9286 17.9348" fill="#374151"/>
</g>
</svg>
