<svg width="20" height="17" viewBox="0 0 20 17" fill="none" xmlns="http://www.w3.org/2000/svg">
<path d="M20 0.510014C19 1.00001 18.02 1.19901 17 1.50001C15.879 0.235013 14.217 0.165013 12.62 0.763013C11.023 1.36101 9.977 2.82301 10 4.50001V5.50001C6.755 5.58301 3.865 4.10501 2 1.50001C2 1.50001 -2.182 8.93301 6 12.5C4.128 13.747 2.261 14.588 0 14.5C3.308 16.303 6.913 16.923 10.034 16.017C13.614 14.977 16.556 12.294 17.685 8.27501C18.0218 7.05268 18.189 5.78987 18.182 4.52201C18.182 4.27301 19.692 1.75001 20 0.509013V0.510014Z" fill="#374151"/>
</svg>
