<svg width="76" height="24" viewBox="0 0 76 24" fill="none" xmlns="http://www.w3.org/2000/svg">
<path fill-rule="evenodd" clip-rule="evenodd" d="M19.2012 23.8129H12.6931L7.81282 5.1944C7.58118 4.33794 7.08935 3.58079 6.36587 3.22394C4.56036 2.32714 2.57081 1.61343 0.400391 1.25348V0.536663H10.8844C12.3314 0.536663 13.4166 1.61343 13.5974 2.86398L16.1296 16.2941L22.6345 0.536663H28.9617L19.2012 23.8129ZM32.5792 23.8129H26.4329L31.494 0.536663H37.6404L32.5792 23.8129ZM45.5925 6.98505C45.7733 5.7314 46.8585 5.01459 48.1246 5.01459C50.1142 4.83461 52.2814 5.19457 54.0901 6.08826L55.1753 1.07677C53.3666 0.359958 51.3771 0 49.5716 0C43.6061 0 39.2652 3.22411 39.2652 7.69876C39.2652 11.1028 42.34 12.8902 44.5104 13.967C46.8585 15.0407 47.7629 15.7575 47.582 16.8311C47.582 18.4416 45.7733 19.1585 43.9678 19.1585C41.7974 19.1585 39.627 18.6216 37.6406 17.7248L36.5554 22.7394C38.7258 23.6331 41.0739 23.9931 43.2443 23.9931C49.9333 24.1699 54.0901 20.9489 54.0901 16.1143C54.0901 10.0261 45.5925 9.66922 45.5925 6.98505ZM75.6007 23.8129L70.7204 0.536663H65.4784C64.3932 0.536663 63.308 1.25348 62.9463 2.32714L53.9092 23.8129H60.2364L61.4993 20.4119H69.2735L69.9969 23.8129H75.6007ZM66.3823 6.80541L68.1878 15.5778H63.1267L66.3823 6.80541Z" fill="#172B85"/>
</svg>
